<svg width="900" height="506" viewBox="0 0 900 506" fill="none" xmlns="http://www.w3.org/2000/svg">
<g id="Export Frame">
<g id="Autodrome Hermanos Rodriguez">
<path id="Vector 7" d="M209.291 64.4418H181.829C148.875 65.3576 139.263 93.7347 134.687 109.754C132.856 117.535 134.687 125.773 140.179 125.773H165.352C176.794 125.773 178.167 126.917 182.287 128.977C188.877 132.273 193.043 124.4 196.018 118.45C202.242 106.001 211.121 113.416 212.494 118.45L224.395 171.085C227.69 186.463 229.429 186.079 239.498 186.189C281.606 186.647 368.477 187.562 379.095 187.562C389.714 187.562 402.743 190.308 407.93 191.681L462.396 211.82C485.28 219.143 474.753 252.555 497.18 252.555L548.442 253.012C588.719 253.012 581.396 288.255 623.962 302.443C631.651 306.105 636.319 310.224 636.319 316.632L636.777 440.667C636.319 455.313 649.135 454.855 654.627 449.821L687.581 418.697C692.158 414.121 689.412 410.459 685.75 408.628L665.612 399.474C660.852 396.545 661.476 394.44 665.154 387.117C707.262 303.267 747.386 202.361 762.185 162.389C765.481 153.235 766.762 136.3 766.762 118.908C767.128 114.148 765.847 112.958 762.185 111.127L750.285 107.008C744.793 105.177 744.793 102.889 744.793 99.6847V74.9692C744.793 70.3694 744.793 65.8153 736.097 64.8995C716.69 61.238 598.941 61.238 542.492 61.6957C469.627 62.7941 376.807 67.6457 209.291 64.4418Z" stroke="black" stroke-width="16"/>
<path id="start-line" d="M214.447 53L213.868 75.2234" stroke="white" stroke-width="3"/>
</g>
</g>
</svg>
