<svg width="900" height="506" viewBox="0 0 900 506" fill="none" xmlns="http://www.w3.org/2000/svg">
<g id="Export Frame">
<g id="Miami">
<path id="start-line" d="M535.84 275.583C573.34 251.083 535.84 243.083 438.84 185.583L376.84 149.083C346.84 121.083 282.34 132.583 270.84 138.083C259.34 143.583 234.34 178.582 187.34 144.582C149.74 117.382 171.673 112.249 187.34 113.082L699.34 134.083C812.34 138.083 833.84 131.582 819.34 162.083C801.512 199.583 835.131 178.104 819.34 204.083C803.84 229.583 778.34 224.083 778.34 224.083C733.94 224.083 747.34 264.083 767.84 270.083C796.34 283.583 781.34 293.445 772.34 297.083C652.34 345.583 575.84 393.083 494.34 393.083C395.34 394.583 407.34 346.968 289.84 358.083C178.84 368.583 156.34 341.125 133.34 345.583C68.84 358.083 71.8399 328.583 83.8399 303.583C116.24 266.783 157.013 277.583 168.34 293.083C191.14 324.283 221.84 310.749 234.34 300.083C269.34 275.583 285.84 291.083 342.84 324.583C399.316 357.775 452.34 377.083 499.84 349.083C533.84 325.583 498.34 290.083 535.84 275.583Z" stroke="black" stroke-width="13"/>
<path id="circuit" d="M452 174L433 202.5" stroke="white" stroke-width="3"/>
</g>
</g>
</svg>
