<svg width="900" height="506" viewBox="0 0 900 506" fill="none" xmlns="http://www.w3.org/2000/svg">
<g id="Export Frame">
<g id="Circuit Zandvoort">
<path id="circuit" d="M615.733 298.503L679.733 137.503C695.733 85.4927 653.233 54 625.233 54H586.733C565.733 53.9998 556.733 68.4929 558.233 83.5L576.733 189C584.733 228 551.733 224.5 542.233 202.5C539.733 198 535.733 199.227 533.733 200.5C529.333 203.3 482.733 228.5 439.733 239C370.733 258.5 310.733 249.326 303.233 249C280.233 248 278.733 232 279.733 222C280.733 205.5 313.233 194 342.233 191C354.233 190 364.733 183 372.733 174C376.733 168.5 373.11 161.5 372.233 160.5C347.233 132 320.733 128.5 290.733 127.503C281.233 127 277.233 131 273.733 138.003C259.733 166.003 250.233 186.503 241.233 198.503C191.233 253.503 229.233 295.503 260.233 297.503L327.233 300.003C351.233 300.003 380.233 277.503 389.733 272.003C414.233 253.503 461.733 268.503 472.733 270.503C486.733 274.003 502.233 274.564 519.733 272.003C540.233 269.003 563.233 259.836 578.733 254.503C603.133 248.903 610.233 275.003 594.733 284.503L560.733 298.503C554.733 301.303 549.233 307.003 549.233 315.503C549.233 326.503 549.733 338.003 548.233 352.003C544.233 374.003 530.733 401.836 521.233 424.003C511.733 446.503 545.733 465.003 557.733 440.003L615.733 298.503Z" stroke="black" stroke-width="16"/>
<path id="start-line" d="M604.387 292.277L626.943 301.28" stroke="white" stroke-width="3"/>
</g>
</g>
</svg>
