<svg width="900" height="506" viewBox="0 0 900 506" fill="none" xmlns="http://www.w3.org/2000/svg">
<g id="Export Frame">
<g id="Circuit de Spa-Francorchamps">
<path id="circuit" d="M255.315 359.497L290.315 332.497C298.093 326.496 300.889 330.997 301.315 333.997V340.997C301.315 346.997 304.315 346.026 310.815 344.997C389.815 332.497 395.315 317.054 443.815 293.497C457.815 286.697 462.315 289.997 474.315 291.497C537.815 305.997 547.315 319.997 556.315 329.997C606.815 406.997 624.315 410.997 629.815 414.497C642.815 426.497 658.815 432.997 680.815 438.497C696.815 442.497 712.815 440.497 719.315 430.497L738.315 395.997C741.815 385.997 742.315 381.497 732.815 374.497L679.315 349.997C668.315 344.497 664.815 331.497 668.315 321.497L672.815 310.997C676.815 293.997 668.815 284.997 654.815 280.997L566.315 258.997C537.315 249.497 531.815 228.497 531.815 201.497C530.215 188.697 539.815 177.349 555.315 172.497C612.815 154.497 634.815 147.497 673.315 126.997C683.815 120.997 689.815 124.497 694.315 128.997L720.315 159.497C732.815 171.997 753.815 152.497 741.315 137.497L680.315 71.9971C676.315 66.4965 666.481 66.9967 662.815 68.9965L642.315 76.9971C634.815 80.9971 623.815 81.4971 616.815 68.9965C612.815 64.497 603.315 63.9969 597.815 66.4965L420.815 144.496C401.815 153.496 389.815 156.996 377.815 165.996L311.815 220.996C293.315 234.496 276.315 220.996 259.315 262.996L198.815 331.497C176.315 359.497 167.315 382.497 157.315 418.497C150.315 437.497 160.815 433.497 167.315 427.497L255.315 359.497Z" stroke="black" stroke-width="13"/>
<path id="start-line" d="M248.315 349.997L262.956 369.374" stroke="white" stroke-width="3"/>
</g>
</g>
</svg>
