<svg width="900" height="506" viewBox="0 0 900 506" fill="none" xmlns="http://www.w3.org/2000/svg">
<g id="Export Frame">
<g id="Circuit de la corniche de Djeddah">
<path id="circuit" d="M174.902 441.498L526.902 442.998H684.402C722.402 445.998 722.902 439.18 740.402 432.498C762.402 424.098 753.902 415.498 746.402 401.498L569.902 110.498C546.302 62.898 516 88.5 509.902 102.998L490.902 144.998C462.103 206.998 503.902 235.998 537.902 244.998C565.402 249.998 586.902 272.498 595.902 290.998C604.402 314.498 608.902 344.998 574.402 341.998H305.902C286.302 341.998 255.402 338.665 242.402 336.998C217.902 336.998 233.402 326.498 240.902 314.498C248.102 300.098 268.902 290.498 287.902 293.998L429.402 310.998C449.402 309.498 448.902 295.998 438.402 288.498L369.902 238.998C349.502 226.198 347.902 209.998 352.402 186.998C357.402 141.498 320.402 147.998 301.902 132.998C286.127 120.207 253.069 84.8314 239.402 67.4981C221.402 41.4981 199.902 46.9981 197.402 67.4981L169.402 256.998C156.402 327.498 154.321 344.498 165.902 368.998C178.902 396.498 179.402 398.498 159.402 417.998C130.706 445.976 153.902 441.498 174.902 441.498Z" stroke="black" stroke-width="13"/>
<path id="start-line" d="M523.5 429.5V457" stroke="white" stroke-width="3"/>
</g>
</g>
</svg>
