<svg width="900" height="506" viewBox="0 0 900 506" fill="none" xmlns="http://www.w3.org/2000/svg">
<g id="Export Frame">
<g id="svg autralia">
<path id="Autralie" d="M362.153 438.752L512.822 435.945C557.164 431.735 679.225 435.181 696.265 424.25C708.662 416.298 684.946 366.219 696.265 363.88C717.727 359.445 782.69 385.658 794.486 383.086C811.651 379.344 830.951 331.603 850.5 290.438C829.998 269.856 739.778 221.702 707.356 215.153C689.238 211.494 618.194 219.831 583.74 223.573C574.329 231.993 562.886 251.64 552.873 261.463C379.795 290.466 362.153 215.153 326.87 140.776C306.654 93.25 243.907 53.3017 207.545 50.0272C180.009 49.3669 155.101 60.7537 137.459 80.4006C126.539 92.5627 92.1635 83.2071 87.3955 102.854C78.7577 138.447 61.5565 160.167 54.4929 197.845C38.8829 281.11 56.4035 257.689 108.851 311.016C124.586 331.598 69.2771 360.133 92.1635 371.827C124.234 393.345 233.773 398.958 309.107 394.28C364.416 405.975 339.868 438.752 362.153 438.752Z" stroke="black" stroke-width="15"/>
<path id="start line" d="M496.238 416.739L495.761 456.5" stroke="white" stroke-width="7"/>
</g>
</g>
</svg>
