<svg width="900" height="506" viewBox="0 0 900 506" fill="none" xmlns="http://www.w3.org/2000/svg">
<g id="Export Frame">
<g id="Hungaroring">
<path id="circuit" d="M212.417 336.623L211.462 424.075V435.067C221.019 485.244 275.02 464.218 275.02 438.89V371.031C274.064 341.881 315.639 343.314 315.639 368.164C314.206 405.439 315.639 414.04 307.993 448.926C303.692 477.598 312.772 475.209 328.542 476.165L493.41 486.2C510.614 487.634 525.906 476.165 530.207 464.218L543.587 421.209C548.844 404.961 555.534 395.403 566.048 389.191L631.995 350.005C638.494 346.946 640.119 332.801 636.296 322.766L617.181 291.226C611.924 286.447 613.358 272.588 616.225 268.287L658.756 211.42C660.668 206.832 666.243 206.004 668.792 206.163H678.349C682.172 206.163 687.907 203.296 687.907 195.172L699.376 121.101C700.905 109.249 699.376 94.8174 697.464 81.4368C690.583 47.0296 655.411 46.0738 640.597 68.0562L594.72 129.703C589.751 135.819 588.508 135.915 582.296 135.915C546.455 135.915 537.853 135.915 520.171 139.26L366.294 171.278C357.215 173.19 350.524 174.145 344.79 186.092L324.719 231.969C313.728 257.774 276.931 249.172 276.453 224.323L276.931 115.366C276.931 85.2599 261.566 53.242 240.134 27.9137C227.518 13.0039 213.373 21.7019 213.373 33.1703L212.417 336.623Z" stroke="black" stroke-width="16"/>
<path id="start-line" d="M200 332.126L223.886 332.533" stroke="white" stroke-width="3"/>
</g>
</g>
</svg>
