<svg width="900" height="506" viewBox="0 0 900 506" fill="none" xmlns="http://www.w3.org/2000/svg">
<g id="Export Frame">
<g id="Red Bull Ring">
<path id="Vector 5" d="M652.063 351.645L781.063 250.145C823.063 209.645 836.091 191.145 825.563 177.645C811.396 159.478 779.663 120.245 766.063 108.645C752.463 97.0448 733.396 101.811 725.563 105.645L507.063 204.645C431.563 241.645 467.063 288.645 428.563 309.145C412.563 321.145 393.063 314.645 383.563 309.145L313.063 255.145C283.563 229.645 306.063 184.205 334.563 179.645C359.563 175.645 398.063 165.645 428.563 156.145C472.063 136.645 492.063 104.145 498.563 70.6453C506.063 44.6452 490.063 37.4205 472.063 44.6453C398.563 74.1452 354.063 88.1452 288.063 101.645C201.563 116.645 165.063 127.145 88.563 167.645C62.0631 180.645 67.0631 187.814 84.063 194.145C182.063 230.645 220.194 247.473 272.063 298.645C346.563 372.145 413.563 405.645 491.063 455.645C502.263 466.445 506.063 466.645 516.563 457.645L652.063 351.645Z" stroke="black" stroke-width="16"/>
<path id="start-line" d="M648.063 340.645L661.679 360.754" stroke="white" stroke-width="3"/>
</g>
</g>
</svg>
