<svg width="536" height="500" viewBox="0 0 536 500" fill="none" xmlns="http://www.w3.org/2000/svg">
<path d="M280.595 239.5C281.169 239.334 281.739 239.163 282.305 238.987C288.969 236.915 295.18 234.091 299.769 230.248C304.411 226.361 307.5 221.323 307.5 215C307.5 209.16 304.861 203.785 300.872 199.012C296.882 194.239 291.406 189.898 285.361 186.056C280.113 182.721 274.358 179.712 268.626 177.087C273.963 177.174 279.318 176.681 284.279 175.329C290.54 173.623 296.293 170.514 300.525 165.364C304.77 160.198 307.303 153.2 307.499 144.054C307.717 133.956 303.647 125.985 297.018 119.861C290.463 113.804 281.441 109.573 271.639 106.654C252.03 100.815 228.508 99.9943 212.839 101.005L210.051 101.185L210.538 103.936C215.868 133.998 222.578 176.941 225.41 208.139C226.836 223.845 227.242 236.235 226.128 242.562C225.877 243.99 225.579 244.913 225.31 245.444C225.153 245.327 224.946 245.15 224.684 244.886C223.882 244.073 222.867 242.728 221.637 240.703C210.658 222.619 190.199 219.178 170.105 221.669C152.425 223.861 134.334 230.693 121.43 237.126L157.911 104.161L158.868 100.672L155.266 101.011C130.482 103.344 103.568 107.581 79.1704 114.016C123.432 46.8321 199.54 2.5 286 2.5C422.464 2.5 533.133 112.943 533.499 249.322C518.648 274.533 503.802 289.186 489.697 296.489C475.571 303.804 461.989 303.852 449.424 299.465C436.776 295.048 425.077 286.101 415.005 275.321C406.168 265.864 398.673 255.093 392.973 244.986C403.181 245.835 416.734 245.582 428.963 242.42C443.162 238.75 456.368 230.909 459.451 215.49C461.012 207.688 458.282 200.323 453.264 193.724C448.262 187.146 440.834 181.108 432.473 175.755C424.567 170.694 415.699 166.164 406.985 162.309C412.544 162.714 418.031 162.659 423.036 161.919C430.087 160.876 436.558 158.417 440.795 153.569C445.12 148.62 446.718 141.652 444.955 132.526C442.626 120.473 433.311 111.471 421.62 105.036C409.886 98.5785 395.347 94.4642 381.697 92.3422C368.066 90.2233 355.059 90.0509 346.351 91.6587C342.123 92.4392 338.354 93.7315 336.235 95.9071C335.08 97.0931 334.331 98.6371 334.443 100.453C334.549 102.177 335.409 103.748 336.609 105.135C337.942 106.677 339.405 109.305 340.932 113.012C342.44 116.674 343.941 121.215 345.416 126.439C348.366 136.885 351.168 149.899 353.716 163.752C358.58 190.199 362.485 219.53 364.71 239.5H280.595ZM39.1637 231.734C63.9761 250.704 101.338 271.979 154.478 295.782C224.491 327.143 272.083 354.624 302.971 378.413C333.935 402.261 347.758 422.126 350.948 438.151C354.079 453.875 347.061 466.529 334.432 476.472C321.793 486.421 303.776 493.409 285.722 497.5C149.159 497.35 38.5 386.598 38.5 250C38.5 243.856 38.7238 237.765 39.1637 231.734ZM35.0294 222.051C19.7393 209.337 10.6329 197.953 6.29352 187.863C1.68141 177.139 2.42097 167.826 6.9765 159.592C11.6075 151.222 20.3149 143.737 32.059 137.17C42.2439 131.474 54.5511 126.556 68.0784 122.38C50.5608 152.23 38.9998 185.998 35.0294 222.051Z" stroke="black" stroke-width="5"/>
</svg>
