<svg width="500" height="500" viewBox="0 0 500 500" fill="none" xmlns="http://www.w3.org/2000/svg">
<path d="M121.884 339.528V343.028H125.384H171.464H174.964V339.528V308.212H188.843C190.227 310.784 191.01 312.409 191.667 313.774C192.092 314.656 192.464 315.429 192.913 316.28C194.164 318.649 195.49 320.443 198.793 324.182C205.628 331.916 213.677 337.625 222.922 341.25L222.95 341.261L222.978 341.272C232.105 344.672 241.909 346.356 252.36 346.356C262.811 346.356 272.615 344.672 281.742 341.272L281.77 341.261L281.798 341.25C291.04 337.626 299.087 331.92 305.92 324.19C305.922 324.187 305.924 324.184 305.927 324.182L319.979 308.462L386.944 308.224V339.528V343.028H390.444H436.524H440.024V339.528V308.212H455.98H459.48V304.712V266.824V263.324H455.98H440.024V160.328V156.828H436.524H393.516H391.863L390.813 158.105L327.302 235.331C326.682 223.333 324.841 212.715 321.731 203.518C318.025 192.055 312.766 182.541 305.871 175.101C299.031 167.721 290.989 162.29 281.77 158.851C272.636 155.273 262.822 153.5 252.36 153.5C241.898 153.5 232.083 155.273 222.95 158.851C213.731 162.29 205.689 167.721 198.849 175.101C192.052 182.434 186.759 191.787 182.895 203.043L174.964 214.758V160.328V156.828H171.464H128.456H126.691L125.642 158.247L42.1855 271.143L41.5 272.071V273.224V304.712V308.212H45H121.884V339.528Z" stroke="#FEFEFA" stroke-width="7"/>
<path d="M96.12 264.707L92.2302 270.224H98.9805H138.148H141.648V266.724V211.172V200.134L135.288 209.155L96.12 264.707Z" stroke="#FEFEFA" stroke-width="7"/>
<path d="M279.091 277.478L279.092 277.471L279.094 277.463C280.515 270.004 281.204 260.807 281.204 249.928V244.808C281.204 232.038 280.09 221.741 277.723 214.088C275.4 206.411 272.038 200.435 267.317 196.74C262.829 193.228 257.815 191.388 252.36 191.388C246.904 191.388 241.89 193.228 237.403 196.74L237.373 196.763L237.343 196.787C232.85 200.464 229.504 206.39 227.019 214.017C224.461 221.7 223.26 232.026 223.26 244.808V249.928C223.26 260.807 223.949 270.004 225.37 277.463L225.371 277.471L225.373 277.478C226.78 284.689 228.753 290.712 231.386 295.414L231.427 295.488L231.472 295.559C234.209 299.939 237.305 303.336 240.857 305.425L240.894 305.447L240.932 305.468C244.508 307.454 248.334 308.468 252.36 308.468C256.386 308.468 260.212 307.454 263.788 305.468C267.597 303.351 270.656 299.878 273.09 295.393C275.717 290.693 277.686 284.678 279.091 277.478Z" stroke="#FEFEFA" stroke-width="7"/>
<path d="M358.12 264.707L354.23 270.224H360.98H400.148H403.648V266.724V211.172V200.134L397.288 209.155L358.12 264.707Z" stroke="#FEFEFA" stroke-width="7"/>
</svg>
