<svg width="600" height="600" viewBox="0 0 600 600" fill="none" xmlns="http://www.w3.org/2000/svg">
<circle cx="300" cy="300" r="295" stroke="#68FE9A" stroke-width="10"/>
<path d="M135.243 133.943L121.179 120.156L115.717 125.542L111.946 121.846L127.442 106.565L131.213 110.262L125.751 115.647L139.815 129.434L135.243 133.943Z" fill="white"/>
<path d="M148.309 121.389L132.381 102.208L136.673 98.763L142.066 105.257C142.031 104.768 142.072 104.202 142.189 103.56C142.291 102.9 142.55 102.205 142.966 101.475C143.382 100.745 143.999 100.053 144.817 99.3963C146.582 97.9795 148.297 97.3791 149.963 97.5949C151.647 97.7958 153.202 98.7548 154.627 100.472L162.523 109.98L158.231 113.425L151.177 104.931C150.388 103.981 149.583 103.44 148.761 103.308C147.943 103.143 147.06 103.441 146.112 104.201C145.425 104.753 144.964 105.336 144.731 105.949C144.516 106.548 144.488 107.149 144.648 107.751C144.792 108.335 145.092 108.902 145.547 109.45L152.601 117.944L148.309 121.389Z" fill="white"/>
<path d="M174.487 102.402C172.927 103.419 171.336 104.046 169.712 104.283C168.075 104.501 166.482 104.252 164.934 103.535C163.406 102.805 162.032 101.536 160.813 99.7272L160.415 99.1375C159.249 97.4077 158.632 95.7447 158.563 94.1487C158.494 92.5526 158.868 91.0787 159.683 89.7269C160.505 88.3425 161.656 87.1682 163.135 86.2042C165.754 84.4975 168.184 83.876 170.425 84.3398C172.652 84.7839 174.614 86.264 176.31 88.78L177.423 90.4312L166.267 97.701C166.824 98.4415 167.434 98.9631 168.099 99.2657C168.783 99.5553 169.465 99.6487 170.144 99.5458C170.809 99.4233 171.442 99.1667 172.042 98.7758C172.922 98.2026 173.525 97.6253 173.853 97.0441C174.187 96.4302 174.282 95.845 174.137 95.2887L178.396 92.5137C179.228 94.4323 179.3 96.2246 178.61 97.8906C177.921 99.5566 176.546 101.061 174.487 102.402ZM165.73 89.7331C165.17 90.0979 164.7 90.5316 164.319 91.0342C163.939 91.5368 163.728 92.0988 163.686 92.72C163.651 93.3086 163.846 93.9599 164.27 94.6739L170.867 90.3746C170.377 89.6473 169.849 89.1848 169.285 88.9871C168.706 88.7697 168.114 88.7453 167.508 88.9137C166.923 89.0691 166.33 89.3423 165.73 89.7331Z" fill="white"/>
<path d="M194.211 90.1654L183.314 67.8417L199.37 60.2658L201.518 64.6667L191.301 69.4878L193.822 74.6541L203.067 70.2922L205.091 74.438L195.846 78.7999L200.049 87.4105L194.211 90.1654Z" fill="white"/>
<path d="M213.304 81.3383L211.444 76.4328L216.636 74.5299L211.973 62.2331L208.164 67.7819L205.902 61.8158L209.732 56.2215L215.8 53.9973L222.738 72.2934L226.952 70.7489L228.812 75.6544L213.304 81.3383Z" fill="white"/>
<path d="M247.293 70.2834L236.086 47.2031L242.831 45.9113L249.171 60.3375L250.07 44.5247L256.074 43.3749L263.417 57.6812L264.02 41.8531L270.024 40.7033L268.483 66.2252L262.126 67.4427L254.602 52.5944L253.65 69.066L247.293 70.2834Z" fill="white"/>
<path d="M288.595 64.8455C286.727 64.9581 285.03 64.7179 283.503 64.1248C281.975 63.5082 280.723 62.5086 279.748 61.1262C278.796 59.7424 278.253 57.9677 278.118 55.8022L278.074 55.0961C277.945 53.0247 278.256 51.2812 279.009 49.8655C279.762 48.4497 280.835 47.3572 282.229 46.588C283.645 45.7938 285.239 45.3433 287.011 45.2365C290.147 45.0473 292.567 45.7047 294.271 47.2086C295.974 48.6889 296.919 50.9355 297.107 53.9483L297.23 55.9255L283.871 56.7311C283.976 57.6462 284.24 58.3982 284.661 58.9871C285.106 59.5745 285.649 59.9907 286.289 60.2356C286.927 60.457 287.606 60.5461 288.324 60.5028C289.377 60.4392 290.194 60.2364 290.773 59.8943C291.375 59.5273 291.755 59.0673 291.913 58.5143L297.012 58.2068C296.757 60.2777 295.907 61.8647 294.461 62.9678C293.016 64.0709 291.061 64.6968 288.595 64.8455ZM287.462 49.5684C286.791 49.6088 286.163 49.753 285.578 50.0009C284.993 50.2489 284.524 50.6315 284.172 51.1489C283.842 51.6413 283.679 52.3009 283.682 53.1276L291.583 52.6512C291.529 51.7803 291.307 51.1203 290.919 50.6712C290.529 50.1985 290.029 49.8861 289.418 49.7339C288.832 49.5803 288.18 49.5251 287.462 49.5684Z" fill="white"/>
<path d="M313.527 64.6239C312.065 64.5681 310.843 64.2146 309.86 63.5634C308.879 62.8887 308.163 62.1652 307.714 61.3928L307.613 63.9378L302.508 63.7427L303.486 39L309.023 39.2116L308.691 47.5887C309.375 46.6944 310.205 46.03 311.183 45.5953C312.185 45.138 313.225 44.93 314.304 44.9712C316.988 45.0737 318.995 45.9292 320.323 47.5376C321.652 49.146 322.255 51.4936 322.133 54.5806L322.105 55.2875C322.022 57.4083 321.616 59.1746 320.888 60.5864C320.161 61.9746 319.172 63.0106 317.92 63.6944C316.669 64.3782 315.205 64.6881 313.527 64.6239ZM312.374 60.0841C313.477 60.1262 314.405 59.7251 315.158 58.8807C315.937 58.0136 316.359 56.7435 316.425 55.0705L316.453 54.3635C316.517 52.7376 316.205 51.522 315.517 50.7169C314.854 49.8892 313.947 49.4533 312.796 49.4094C312.029 49.3801 311.316 49.518 310.655 49.8232C310.02 50.1057 309.498 50.5578 309.09 51.1794C308.705 51.8019 308.494 52.5844 308.457 53.527L308.387 55.2943C308.349 56.2605 308.495 57.1039 308.827 57.8245C309.183 58.5226 309.666 59.072 310.274 59.4728C310.907 59.851 311.607 60.0548 312.374 60.0841Z" fill="white"/>
<path d="M335.22 65.8844L339.823 41.5401L349.904 43.3827C352.215 43.8051 354.05 44.4883 355.409 45.4322C356.771 46.3529 357.688 47.5039 358.159 48.8852C358.658 50.2476 358.743 51.7983 358.414 53.5372C358.089 55.2529 357.443 56.6699 356.476 57.7883C355.531 58.9109 354.253 59.6727 352.64 60.0735C351.032 60.4512 349.072 60.4288 346.761 60.0064L343.047 59.3275L341.587 67.0482L335.22 65.8844ZM344.02 54.1805L347.027 54.73C348.654 55.0274 349.848 54.9698 350.609 54.5573C351.37 54.1447 351.849 53.4167 352.047 52.3734C352.244 51.3301 352.063 50.4815 351.503 49.8275C350.944 49.1736 349.851 48.6979 348.223 48.4005L345.217 47.8509L344.02 54.1805Z" fill="white"/>
<path d="M360.083 70.827L365.247 52.7796L370.165 54.1398L369.464 56.5915C369.766 56.234 370.201 55.8889 370.769 55.5562C371.338 55.2235 371.976 54.9958 372.684 54.8731C373.398 54.7277 374.137 54.7604 374.899 54.9711C375.291 55.0797 375.596 55.1886 375.814 55.2979C376.032 55.4071 376.227 55.51 376.399 55.6065L375.103 60.1354C375.007 60.0354 374.764 59.8825 374.374 59.6767C373.985 59.471 373.524 59.2946 372.993 59.1478C372.162 58.9179 371.435 58.8884 370.813 59.0593C370.215 59.2366 369.71 59.5626 369.3 60.0372C368.913 60.5181 368.623 61.0991 368.428 61.7802L365.417 72.3021L360.083 70.827Z" fill="white"/>
<path d="M383.176 78.4295C381.513 77.8208 380.105 76.9411 378.954 75.7902C377.826 74.6475 377.101 73.2499 376.779 71.5974C376.489 69.931 376.728 68.0811 377.498 66.0478L377.749 65.3848C378.468 63.4841 379.475 62.0408 380.77 61.055C382.095 60.0554 383.569 59.4749 385.191 59.3136C386.836 59.1605 388.49 59.3883 390.154 59.997C391.84 60.6139 393.243 61.5047 394.363 62.6695C395.483 63.8343 396.201 65.2167 396.517 66.8168C396.863 68.403 396.677 70.1465 395.958 72.0472L395.707 72.7102C394.945 74.7215 393.894 76.249 392.551 77.2928C391.24 78.3228 389.769 78.9295 388.139 79.1129C386.516 79.2742 384.862 79.0464 383.176 78.4295ZM384.783 74.1861C385.592 74.4822 386.349 74.5452 387.053 74.3751C387.765 74.1829 388.406 73.7756 388.974 73.1532C389.543 72.5308 390.011 71.7333 390.379 70.7609L390.63 70.0978C390.964 69.2138 391.111 68.3867 391.07 67.6168C391.029 66.8468 390.798 66.1712 390.378 65.5898C389.967 64.9863 389.357 64.5366 388.547 64.2405C387.738 63.9443 386.977 63.8924 386.265 64.0846C385.56 64.2547 384.937 64.6178 384.393 65.1739C383.85 65.73 383.411 66.4501 383.077 67.3341L382.826 67.9972C382.441 69.0138 382.256 69.9403 382.273 70.7766C382.297 71.5908 382.519 72.2885 382.939 72.8699C383.359 73.4512 383.973 73.89 384.783 74.1861Z" fill="white"/>
<path d="M391.52 89.2596C391.28 89.1523 391.012 89.0196 390.716 88.8615C390.41 88.7249 390.147 88.5815 389.927 88.4312L391.832 84.3091C391.987 84.4301 392.174 84.5394 392.392 84.6369C392.579 84.7462 392.759 84.8399 392.934 84.9179C393.283 85.074 393.618 85.1199 393.938 85.0555C394.269 85.0222 394.609 84.7988 394.959 84.385C395.308 83.9712 395.686 83.3242 396.093 82.4439L403.759 65.8589L408.803 68.1126L400.914 85.1808C400.081 86.9842 399.25 88.2968 398.422 89.1185C397.616 89.95 396.666 90.354 395.57 90.3307C394.486 90.3386 393.136 89.9816 391.52 89.2596ZM407.026 65.3756C406.087 64.956 405.464 64.393 405.158 63.6865C404.884 62.9683 404.921 62.2335 405.268 61.4821C405.616 60.7307 406.15 60.231 406.87 59.9831C407.623 59.7234 408.468 59.8034 409.407 60.2229C410.346 60.6424 410.953 61.2113 411.227 61.9295C411.533 62.636 411.512 63.3649 411.164 64.1164C410.817 64.8678 410.267 65.3733 409.515 65.633C408.794 65.8809 407.965 65.7951 407.026 65.3756Z" fill="white"/>
<path d="M413.951 92.1725C412.309 91.2907 411.002 90.1992 410.031 88.898C409.071 87.5762 408.552 86.0749 408.475 84.3942C408.418 82.7248 408.919 80.9381 409.977 79.0341L410.322 78.4132C411.334 76.592 412.542 75.2791 413.945 74.4745C415.349 73.6698 416.849 73.3066 418.446 73.3848C420.075 73.4535 421.668 73.9062 423.226 74.7429C425.983 76.2239 427.676 78.0468 428.305 80.2116C428.945 82.3557 428.528 84.7523 427.057 87.4013L426.091 89.1397L414.345 82.8311C413.938 83.6608 413.754 84.4352 413.792 85.1542C413.851 85.8844 414.085 86.5207 414.494 87.063C414.915 87.5846 415.441 88.015 416.073 88.3542C416.999 88.8516 417.8 89.1072 418.476 89.1208C419.184 89.125 419.754 88.9343 420.187 88.5488L424.671 90.9569C423.334 92.5765 421.755 93.4751 419.934 93.6528C418.114 93.8304 416.119 93.337 413.951 92.1725ZM421.262 78.646C420.673 78.3294 420.063 78.123 419.433 78.0266C418.804 77.9302 418.2 78.0088 417.621 78.2626C417.075 78.5069 416.58 78.9799 416.136 79.6816L423.082 83.4125C423.508 82.6468 423.678 81.9722 423.592 81.3887C423.518 80.7845 423.263 80.2583 422.829 79.8101C422.416 79.3732 421.893 78.9852 421.262 78.646Z" fill="white"/>
<path d="M433.082 103.631C431.533 102.601 430.354 101.389 429.545 99.997C428.737 98.6049 428.395 97.0819 428.519 95.4279C428.644 93.774 429.318 92.0583 430.541 90.281L430.944 89.695C432.074 88.0544 433.392 86.8958 434.9 86.2193C436.429 85.5559 438 85.3343 439.615 85.5545C441.264 85.7685 442.823 86.3644 444.293 87.3423C445.882 88.3996 447.025 89.5585 447.721 90.819C448.431 92.06 448.765 93.3214 448.723 94.603C448.68 95.8847 448.323 97.0989 447.649 98.2455L442.911 95.0935C443.256 94.2979 443.338 93.5692 443.156 92.9073C443.008 92.2392 442.527 91.6342 441.712 91.0923C441.076 90.6694 440.399 90.4327 439.681 90.382C438.983 90.3446 438.283 90.5197 437.582 90.9074C436.914 91.2888 436.271 91.9287 435.653 92.8272L435.249 93.4131C434.591 94.3701 434.185 95.2537 434.033 96.0637C433.881 96.8737 433.946 97.6002 434.228 98.243C434.523 98.8664 435.008 99.4028 435.683 99.8521C436.379 100.315 437.086 100.529 437.804 100.494C438.556 100.454 439.251 100.118 439.887 99.4881L444.625 102.64C443.712 103.798 442.629 104.615 441.375 105.09C440.121 105.566 438.779 105.684 437.351 105.446C435.955 105.201 434.532 104.596 433.082 103.631Z" fill="white"/>
<path d="M449.993 115.685C448.757 114.713 447.873 113.761 447.341 112.829C446.824 111.878 446.679 110.888 446.903 109.857C447.143 108.807 447.788 107.638 448.837 106.349L453.872 100.162L452.046 98.7256L454.879 95.2456L456.705 96.6822L459.402 93.3679L463.728 96.7714L461.031 100.086L464.43 102.76L461.598 106.24L458.198 103.566L453.725 109.062C453.051 109.891 452.702 110.583 452.68 111.139C452.676 111.71 453.067 112.305 453.854 112.924C454.416 113.366 455 113.78 455.607 114.167L452.797 117.619C452.396 117.394 451.991 117.137 451.583 116.846C451.16 116.573 450.63 116.186 449.993 115.685Z" fill="white"/>
<path d="M470.833 134.961C469.238 133.328 468.129 131.596 467.505 129.766C466.915 127.936 466.963 126.027 467.649 124.039C468.335 122.052 469.803 119.996 472.052 117.873L472.545 117.408C474.137 115.905 475.712 114.828 477.269 114.175C478.826 113.522 480.334 113.227 481.791 113.29C483.266 113.369 484.666 113.748 485.992 114.425C487.318 115.102 488.546 116.019 489.676 117.176C490.689 118.213 491.523 119.306 492.178 120.453C492.832 121.6 493.233 122.759 493.378 123.93C493.54 125.117 493.413 126.315 492.998 127.525C492.583 128.734 491.82 129.944 490.709 131.156L486.049 126.385C486.851 125.333 487.186 124.331 487.053 123.378C486.92 122.424 486.497 121.582 485.782 120.85C485.118 120.17 484.347 119.721 483.469 119.503C482.626 119.286 481.682 119.375 480.639 119.771C479.596 120.168 478.443 120.962 477.18 122.154L476.635 122.668C475.631 123.616 474.875 124.509 474.365 125.35C473.856 126.19 473.552 126.968 473.452 127.683C473.369 128.415 473.44 129.084 473.665 129.689C473.907 130.277 474.261 130.81 474.726 131.286C475.573 132.154 476.453 132.647 477.367 132.765C478.315 132.884 479.305 132.554 480.339 131.774L484.999 136.546C483.721 137.621 482.451 138.346 481.188 138.721C479.959 139.097 478.744 139.181 477.544 138.973C476.377 138.766 475.225 138.318 474.085 137.628C472.963 136.922 471.879 136.033 470.833 134.961Z" fill="white"/>
<path d="M480.66 144.872L495.52 133.123L498.722 137.037L496.703 138.633C497.16 138.514 497.718 138.482 498.377 138.535C499.037 138.589 499.691 138.767 500.34 139.072C501.007 139.361 501.589 139.809 502.085 140.415C502.341 140.727 502.525 140.99 502.638 141.204C502.751 141.417 502.849 141.612 502.931 141.788L499.203 144.737C499.183 144.601 499.076 144.338 498.88 143.948C498.684 143.558 498.414 143.152 498.068 142.729C497.527 142.067 496.952 141.629 496.345 141.413C495.753 141.216 495.149 141.193 494.536 141.346C493.937 141.517 493.357 141.824 492.796 142.267L484.133 149.117L480.66 144.872Z" fill="white"/>
<path d="M495.714 165.295C494.669 163.77 494.02 162.21 493.766 160.615C493.532 159.007 493.774 157.439 494.492 155.912C495.223 154.404 496.504 153.045 498.334 151.833L498.931 151.437C500.682 150.278 502.369 149.659 503.992 149.579C505.614 149.5 507.116 149.856 508.497 150.648C509.911 151.446 511.114 152.568 512.106 154.016C513.861 156.578 514.511 158.962 514.056 161.169C513.621 163.362 512.13 165.301 509.583 166.988L507.912 168.094L500.435 157.18C499.686 157.733 499.16 158.337 498.857 158.992C498.568 159.667 498.478 160.338 498.588 161.005C498.717 161.658 498.983 162.278 499.385 162.865C499.974 163.726 500.566 164.315 501.16 164.633C501.787 164.957 502.382 165.046 502.947 164.899L505.801 169.065C503.856 169.898 502.033 169.982 500.334 169.316C498.634 168.65 497.094 167.31 495.714 165.295ZM508.536 156.593C508.16 156.045 507.716 155.586 507.202 155.216C506.688 154.845 506.115 154.642 505.482 154.605C504.884 154.576 504.223 154.772 503.499 155.193L507.921 161.648C508.657 161.161 509.124 160.639 509.321 160.082C509.537 159.512 509.558 158.93 509.382 158.335C509.22 157.76 508.937 157.18 508.536 156.593ZM512.004 151.524L518.989 151.59L522.205 156.284L514.416 155.045L512.004 151.524Z" fill="white"/>
<path d="M506.027 181.771C505.376 180.589 505.048 179.449 505.044 178.352C505.052 177.275 505.336 176.306 505.898 175.444C506.481 174.571 507.268 173.87 508.259 173.343C509.926 172.456 511.476 172.274 512.91 172.798C514.356 173.343 515.638 174.631 516.757 176.664L519.326 181.33L520.022 180.96C521.034 180.421 521.599 179.812 521.716 179.133C521.845 178.475 521.681 177.731 521.224 176.901C520.79 176.113 520.344 175.6 519.885 175.361C519.448 175.111 518.943 175.111 518.372 175.362L515.734 170.571C516.781 170.095 517.859 169.923 518.969 170.056C520.09 170.21 521.174 170.693 522.221 171.504C523.279 172.335 524.23 173.518 525.075 175.053C525.874 176.504 526.355 177.898 526.517 179.233C526.679 180.568 526.43 181.8 525.77 182.929C525.142 184.067 524.006 185.074 522.36 185.95L516.19 189.233C515.304 189.705 514.535 190.141 513.883 190.542C513.252 190.931 512.643 191.336 512.056 191.756L509.538 187.183C509.885 186.971 510.184 186.772 510.436 186.584C510.699 186.417 511.03 186.228 511.431 186.014C510.482 185.876 509.53 185.484 508.575 184.839C507.653 184.204 506.803 183.181 506.027 181.771ZM510.332 181.491C510.709 182.175 511.172 182.72 511.722 183.124C512.272 183.529 512.886 183.752 513.563 183.793C514.262 183.824 514.938 183.665 515.592 183.317L516.288 182.947L514.233 179.214C513.845 178.509 513.364 178.081 512.79 177.93C512.228 177.801 511.704 177.865 511.219 178.123C510.586 178.46 510.16 178.901 509.942 179.446C509.757 180 509.887 180.682 510.332 181.491Z" fill="white"/>
<path d="M516.515 202.144C515.873 200.721 515.535 199.475 515.499 198.407C515.485 197.33 515.82 196.384 516.502 195.571C517.207 194.748 518.327 194.002 519.862 193.333L527.229 190.121L526.281 188.019L530.426 186.212L531.373 188.314L535.32 186.594L537.566 191.574L533.619 193.294L535.384 197.207L531.24 199.014L529.475 195.101L522.93 197.954C521.943 198.384 521.309 198.841 521.029 199.325C520.758 199.829 520.827 200.535 521.235 201.44C521.527 202.087 521.852 202.719 522.209 203.337L518.098 205.13C517.847 204.749 517.609 204.337 517.383 203.894C517.135 203.46 516.845 202.877 516.515 202.144Z" fill="white"/>
<path d="M522.388 217.696C521.775 215.958 521.553 214.286 521.723 212.681C521.915 211.067 522.557 209.613 523.648 208.317C524.747 207.043 526.339 206.051 528.424 205.339L529.104 205.107C531.098 204.427 532.89 204.253 534.479 204.584C536.069 204.915 537.428 205.637 538.557 206.75C539.716 207.877 540.587 209.264 541.169 210.913C542.199 213.832 542.207 216.3 541.193 218.319C540.202 220.329 538.256 221.829 535.356 222.819L533.452 223.469L529.064 211.037C528.196 211.383 527.53 211.835 527.067 212.392C526.611 212.972 526.35 213.598 526.283 214.27C526.238 214.934 526.333 215.601 526.569 216.269C526.915 217.249 527.334 217.968 527.825 218.424C528.347 218.895 528.9 219.131 529.484 219.131L531.159 223.877C529.061 224.193 527.278 223.815 525.808 222.744C524.338 221.673 523.198 219.99 522.388 217.696ZM537.047 212.507C536.827 211.883 536.517 211.327 536.116 210.84C535.716 210.353 535.214 210.012 534.613 209.818C534.042 209.638 533.352 209.661 532.543 209.887L535.138 217.239C535.976 216.953 536.563 216.566 536.898 216.077C537.256 215.581 537.428 215.023 537.412 214.404C537.405 213.808 537.283 213.175 537.047 212.507Z" fill="white"/>
<path d="M528.254 236.946C527.746 234.859 527.965 233.122 528.911 231.736C529.856 230.35 531.565 229.366 534.038 228.785L545.691 226.046L546.979 231.344L536.166 233.886C534.953 234.171 534.09 234.628 533.577 235.258C533.07 235.911 532.95 236.788 533.218 237.889C533.408 238.668 533.727 239.272 534.177 239.7C534.631 240.151 535.169 240.437 535.791 240.557C536.412 240.678 537.072 240.656 537.772 240.491L548.585 237.95L549.874 243.248L531.327 247.607L530.139 242.722L532.659 242.13C531.702 241.846 530.812 241.279 529.989 240.43C529.195 239.598 528.616 238.437 528.254 236.946Z" fill="white"/>
<path d="M532.098 252.055L550.941 249.181L551.724 254.145L549.164 254.536C549.62 254.657 550.12 254.903 550.664 255.273C551.208 255.644 551.684 256.12 552.091 256.702C552.522 257.281 552.799 257.955 552.92 258.724C552.982 259.12 553.008 259.438 552.998 259.678C552.987 259.919 552.973 260.136 552.955 260.329L548.226 261.05C548.279 260.923 548.319 260.642 548.348 260.208C548.377 259.774 548.349 259.29 548.264 258.754C548.132 257.915 547.857 257.252 547.441 256.767C547.028 256.305 546.517 255.989 545.908 255.82C545.302 255.673 544.644 255.654 543.933 255.763L532.947 257.438L532.098 252.055Z" fill="white"/>
</svg>
