<svg width="500" height="500" viewBox="0 0 500 500" fill="none" xmlns="http://www.w3.org/2000/svg">
<mask id="path-1-inside-1_12_81" fill="white">
<path  d="M234.73 28.759C233.566 27.0579 233.701 26.4311 235.984 22.4917C237.103 20.5668 238.222 19 238.446 19C239.073 19 244.713 24.3719 248.474 28.4904L251.607 31.9373L254.069 31.9821C261.769 32.0716 268.932 34.7128 273.184 39.0103L275.557 41.4277L285.54 41.3829C296.239 41.3382 299.417 41.741 300.223 43.2631C301.029 44.7404 299.551 45.7252 293.508 47.6501C289.792 48.8588 287.375 49.8884 286.39 50.739C284.689 52.1715 284.555 52.0372 288.539 53.022C291.717 53.8278 296.149 56.6928 298.701 59.6474C300.939 62.199 301.208 62.3781 304.297 63.0496C307.027 63.6763 308.281 64.2583 311.638 66.6756C314.996 69.0482 316.115 70.2121 318.308 73.3457C320.86 77.106 321.173 78.2252 319.651 78.8072C318.577 79.2101 315.175 76.9718 312.892 74.2858L310.743 71.8237H307.967C303.177 71.8237 297.805 70.3017 291.27 67.1681C288.181 65.6908 287.196 65.5117 287.196 66.407C287.196 66.6309 288.673 67.7948 290.464 69.0482C292.255 70.3017 295.075 72.719 296.642 74.4201L299.596 77.5089L305.908 78.0014C311.817 78.4938 312.444 78.6281 315.488 80.1501C319.92 82.3884 324.352 86.3278 324.352 88.0289C324.352 89.1928 324.217 89.3271 323.367 89.0585C322.785 88.8795 321.308 88.0737 320.009 87.2679C315.801 84.4924 315.354 84.4029 307.027 84.6715C300.536 84.8953 299.283 84.8506 298.029 84.1791C297.268 83.7762 296.597 83.5523 296.597 83.6866C296.597 84.5372 298.343 86.2831 300.312 87.4022C304.699 89.8195 315.175 94.5648 316.965 94.8781C320.591 95.5048 320.994 97.3402 317.726 98.4146C315.13 99.3099 311.504 98.7727 308.146 97.0716C306.58 96.2658 305.281 95.9972 303.222 95.9972C300.805 95.9972 299.73 95.6839 295.925 93.938C293.463 92.8189 291.001 91.7893 290.464 91.655C288.494 91.2073 289.39 92.7293 292.792 95.6391C296.373 98.7279 300.894 104.727 302.282 108.129C302.775 109.382 304.297 111.307 306.49 113.456C308.997 115.873 310.071 117.306 310.429 118.559C310.877 120.26 313.742 123.752 314.727 123.752C314.951 123.752 315.443 123.931 315.801 124.155C316.294 124.468 316.249 124.737 315.622 125.722C315.175 126.348 314.593 126.886 314.324 126.886C313.16 126.886 307.475 123.752 306.221 122.409C304.297 120.35 300.447 117.485 296.597 115.247C294.761 114.172 291.762 112.113 289.927 110.68C288.091 109.248 286.48 108.174 286.345 108.353C285.898 108.8 291.314 113.366 295.478 115.963C301.073 119.499 303.625 121.738 304.028 123.483C304.386 125.095 306.266 127.96 308.102 129.616C308.997 130.467 310.25 130.915 312.668 131.362C315.175 131.765 316.249 132.213 317.368 133.198L318.756 134.496L317.726 135.346C316.473 136.421 312.489 136.958 310.788 136.331C310.071 136.063 308.818 135.839 307.967 135.839C305.819 135.839 303.222 134.406 301.566 132.347C300.268 130.691 299.865 130.467 293.597 128.721C288.315 127.244 286.883 126.975 286.435 127.423C285.719 128.139 286.122 128.676 288.136 129.93C289.031 130.467 290.956 132.302 292.344 134.048C294.538 136.645 295.433 137.361 297.895 138.391C301.745 140.002 305.953 143.852 309.131 148.552C310.967 151.238 311.907 152.223 312.713 152.357C313.742 152.492 314.458 153.074 314.503 153.79C314.503 153.969 313.832 154.417 312.981 154.82C311.459 155.536 311.414 155.536 308.684 153.924C306.803 152.76 305.684 151.731 305.102 150.612C304.297 149.045 304.073 148.91 301.745 148.597C300.402 148.463 298.387 147.791 297.268 147.209C296.015 146.493 294.761 146.135 293.821 146.225L292.344 146.359L294.224 148.149C295.701 149.537 296.06 150.164 295.881 150.925C295.657 151.731 295.388 151.865 294 151.641C293.06 151.507 291.852 151.014 291.225 150.567C289.971 149.716 285.137 148.329 284.779 148.687C284.644 148.821 284.913 149.492 285.361 150.119C286.256 151.373 289.166 152.492 293.016 153.074C295.478 153.477 297.985 154.685 300.491 156.7C302.819 158.625 305.46 159.565 308.325 159.565C309.534 159.565 311.101 159.878 311.862 160.236C313.115 160.908 313.16 160.997 312.533 162.161C311.638 163.907 310.071 164.489 306.49 164.489C303.312 164.489 302.327 164.176 296.642 161.49C292.881 159.654 288.181 159.028 286.301 160.012C285.271 160.55 285.271 160.594 286.077 160.908C286.569 161.087 288.36 161.4 290.106 161.579C293.821 161.982 297.626 163.728 300.715 166.503C302.954 168.473 305.371 169.861 306.714 169.861C307.43 169.861 307.43 169.906 306.669 170.756C305.281 172.278 299.775 171.786 297.492 169.95C296.686 169.279 295.925 169.234 291.538 169.503C288.763 169.637 284.421 169.816 281.824 169.816C277.75 169.861 277.258 169.95 277.795 170.488C278.78 171.472 282.943 172.994 287.106 173.89C291.359 174.83 292.478 175.546 297.492 180.649C300.536 183.738 301.118 184.096 302.864 184.275C306.58 184.634 314.951 182.395 314.951 181.097C314.951 180.829 315.578 180.605 316.294 180.605C318.711 180.605 317.905 182.306 314.414 184.678C311.101 186.961 309.131 187.767 305.998 188.215C303.088 188.618 297 187.812 294.985 186.738C291.762 185.036 284.51 182.485 281.6 181.992C279.899 181.679 277.392 181.052 276.139 180.515C273.901 179.62 272.647 179.665 273.587 180.605C273.856 180.873 276.139 181.903 278.735 182.977C286.524 186.156 290.374 188.394 293.418 191.572C294.94 193.139 296.149 194.572 296.149 194.795C296.149 195.019 295.881 195.556 295.567 196.004C294.761 197.078 293.911 196.765 289.569 193.945C285.405 191.214 283.033 190.364 280.392 190.543L278.467 190.677L281.824 191.751C285.853 193.094 288.942 195.736 292.031 200.525C294.448 204.286 295.03 204.778 296.91 204.465C298.567 204.196 298.611 204.241 297.85 205.897C297.358 207.017 297.179 207.061 295.075 206.793C293.239 206.524 292.12 205.987 289.434 203.928C282.093 198.421 276.452 195.601 273.363 195.959C271.662 196.138 270.812 195.915 268.17 194.616C266.469 193.721 264.455 192.647 263.783 192.154C261.903 190.811 261.366 191.304 261.008 194.84C260.739 197.437 260.918 198.645 261.948 202.585C263.067 206.748 263.739 208.091 268.126 215.298C270.856 219.864 275.02 225.818 277.616 229.041C281.466 233.831 283.57 235.935 290.643 241.844C295.254 245.739 301.566 250.618 304.655 252.678C315.846 260.154 328.425 271.121 333.439 277.791C334.824 279.664 337.023 282.575 338.555 284.601L338.99 285.178C342.034 289.162 345.168 295.026 345.66 297.667L345.974 299.368L350.316 299.1C354.613 298.831 354.792 298.786 359.09 296.324C361.597 294.937 365.089 292.475 367.103 290.594C372.117 286.118 377.399 279.403 378.563 276.09C381.204 268.435 381.831 259.169 380.354 249.096C378.608 237.233 377.31 231.056 374.937 223.58C371.221 211.717 369.565 204.241 369.565 199.317C369.565 189.961 370.863 184.813 375.161 177.247C378.876 170.711 381.025 168.16 387.248 162.698C393.381 157.326 398.036 154.372 399.513 154.864C400.991 155.312 400.051 156.789 396.335 159.923C389.755 165.429 384.786 172.95 381.876 181.948C380.757 185.26 380.622 186.469 380.578 191.572C380.533 196.541 380.622 197.392 381.249 197.392C381.607 197.392 383.308 195.78 385.009 193.811C389.441 188.618 393.112 184.857 396.246 182.351C399.155 180.068 401.259 176.979 403.095 172.457C403.632 171.07 404.483 169.592 404.975 169.145C405.781 168.428 405.825 168.473 406.273 169.637C406.542 170.353 406.631 172.099 406.452 173.845C406.049 177.74 403.408 183.022 397.051 192.691C391.232 201.555 390.381 204.017 390.695 211.359C390.918 216.596 391.635 218.208 393.649 218.208C394.724 218.208 395.082 217.76 396.738 214.492C397.947 212.165 399.827 209.523 401.931 207.24C406.631 202.092 408.511 199.317 408.511 197.616C408.511 196.362 408.646 196.228 409.541 196.497C410.75 196.855 412.54 198.735 412.54 199.675C412.54 201.107 410.66 205.494 408.735 208.628C404.751 215.03 403.274 219.103 402.02 227.43C401.707 229.623 402.737 238.039 404.303 245.918C406.721 258.229 407.213 265.525 406.228 275.329C405.781 279.895 405.602 280.567 403.14 285.67C400.185 291.848 396.022 297.891 392.664 300.846C390.157 303.039 383.935 306.441 380.757 307.337C379.637 307.65 378.518 308.053 378.205 308.277C377.847 308.545 378.474 310.157 380.354 313.783C382.771 318.439 382.995 319.2 382.995 321.707C382.995 323.273 382.771 325.736 382.547 327.213C381.786 331.6 381.876 339.837 382.726 342.612C383.398 344.94 383.174 346.686 382.144 346.686C381.204 346.686 379.817 344.851 378.563 341.896C376.862 338.001 376.101 334.689 375.206 327.75C374.668 323.452 374.266 321.975 373.057 319.737C371.401 316.603 369.117 314.007 368.043 314.007C366.879 314.007 367.193 315.395 368.894 317.812C372.117 322.289 372.923 328.242 371.58 336.837C370.416 344.224 369.565 347.134 367.819 350.178C363.969 356.937 361.597 360.787 359.359 364.01L356.986 367.368L357.523 369.785C358.016 371.979 357.971 372.292 357.255 373.098C356.717 373.68 355.956 373.993 355.285 373.904C353.718 373.725 352.599 370.725 352.599 366.562C352.554 362.667 353.718 358.997 357.523 351.163C361.373 343.284 362.403 336.703 360.791 330.346C359.582 325.467 358.418 326.81 357.478 334.152C357.21 336.256 356.673 338.941 356.27 340.105C355.777 341.627 355.643 343.508 355.732 346.373C355.912 350.267 355.867 350.491 354.971 350.625C354.479 350.715 353.763 350.446 353.449 350.043C352.017 348.342 351.256 337.867 352.062 330.794C352.42 327.526 351.748 320.632 350.853 318.349C350.271 317.006 348.57 316.693 347.675 317.767C347.361 318.125 346.914 320.498 346.69 323.05C346.108 328.869 344.944 332.809 342.258 338.18C337.781 347.089 335.185 350.715 327.038 359.399C323.635 363.025 314.235 370.949 311.146 372.829C307.923 374.754 306.848 376.366 305.326 381.603C304.341 385.05 304.162 386.572 304.297 389.437C304.43 393.224 304.475 393.287 309.065 399.642L309.131 399.733C310.967 402.24 312.265 405.866 312.578 409.313C312.713 410.925 313.026 412.581 313.205 413.029C313.876 414.327 311.549 417.774 309.042 419.117C300.85 423.549 289.703 433.084 287.465 437.516C286.614 439.127 285.719 439.978 283.122 441.59C280.078 443.47 279.81 443.783 279.541 445.395C279.138 448.081 278.064 450.319 275.199 454.124C272.468 457.84 269.424 460.212 267.902 459.809C267.096 459.585 267.051 459.72 267.275 461.466C267.454 462.54 267.365 465.002 267.051 466.927C266.425 471.045 265.44 472.433 262.44 473.373C261.411 473.731 260.247 474.313 259.889 474.716C259.531 475.119 257.427 476.417 255.188 477.626C251.249 479.73 251.07 479.775 246.325 479.999C241.535 480.222 241.49 480.222 240.192 478.969C238.491 477.357 238.133 475.119 239.073 471.538C241.042 463.838 242.609 461.107 249.503 453.632C252.279 450.632 255.099 447.275 255.77 446.156C258.009 442.53 260.202 440.381 262.933 439.306C266.514 437.919 267.499 437.068 273.901 430.085C279.81 423.638 286.793 414.685 288.808 411.014C290.374 408.105 290.061 406.762 286.704 402.643C282.719 397.674 280.392 393.914 276.721 386.572C272.02 377.216 268.932 370.322 268.215 367.368C266.962 362.578 266.469 355.46 267.007 350.983C268.036 343.015 269.334 339.121 273.14 332.674C279.138 322.602 279.496 321.707 279.944 315.753C280.302 311.097 280.481 310.247 281.958 307.247C282.854 305.412 283.615 303.755 283.615 303.576C283.615 302.905 281.824 303.308 280.66 304.293C279.586 305.233 279.451 305.77 278.87 310.873C278.064 318.349 277.974 318.752 276.139 321.841C275.243 323.363 274.438 325.377 274.303 326.497C274.124 328.198 273.677 328.914 271.528 331.107C268.663 334.062 267.409 334.331 264.007 332.809C258.949 330.525 257.158 328.242 256.487 323.229C256.218 321.393 255.547 320.185 252.861 316.559C251.025 314.007 248.205 310.873 246.37 309.306C240.46 304.293 228.284 296.101 220.137 291.758C212.034 287.371 202.902 280.88 197.217 275.374C192.874 271.211 183.115 260.556 181.683 258.497C179.534 255.319 178.46 252.946 178.863 252.23C179.042 251.872 179.355 251.111 179.489 250.529L179.803 249.544H173.401C167.761 249.544 166.597 249.41 163.642 248.425C161.807 247.798 158.987 246.545 157.375 245.605C154.734 244.083 154.465 243.769 154.42 242.471C154.42 241.307 154.107 240.815 152.854 240.054C150.257 238.442 138.17 232.533 135.126 231.414C132.217 230.295 126.755 226.982 125.636 225.684C124.83 224.654 122.637 224.744 121.115 225.818C118.384 227.743 118.339 234.637 121.025 240.054C121.741 241.486 123.174 246.142 124.248 250.618C126.397 259.751 127.874 263.421 130.471 266.242C132.217 268.122 132.306 268.39 132.306 270.987C132.306 273.225 132.44 273.807 133.112 274.031C135.932 275.016 140.319 277.12 141.215 277.926C142.781 279.358 144.751 282.357 145.064 283.835C145.243 284.551 145.646 285.894 146.005 286.834C146.766 288.804 146.81 293.817 146.139 296.906C145.915 298.16 144.975 300.443 144.124 302.099C142.781 304.606 142.334 305.054 141.036 305.322C138.484 305.77 136.111 304.561 131.769 300.622C128.859 297.981 126.084 293.862 124.427 289.833C122.816 285.849 120.264 282.313 116.951 279.403C113.773 276.583 113.415 275.822 112.43 269.689C112.072 267.585 111.401 264.183 110.908 262.079C108.401 251.469 106.7 243.993 105.894 240.143C105.447 237.815 104.507 234.279 103.88 232.309C102.447 227.833 101.418 222.326 101.418 219.059C101.418 213.866 105.447 206.524 110.237 202.988L113.281 200.749H119.1C123.622 200.749 126.442 201.018 132.082 202.092C140.856 203.704 145.333 204.331 145.781 204.062C146.497 203.614 145.557 202.45 143.766 201.555C139.648 199.451 133.515 193.587 130.068 188.439C127.248 184.186 123.98 181.5 121.652 181.5C120.443 181.5 119.369 183.335 119.055 185.842C118.966 187.051 118.518 189.513 118.071 191.348C117.399 194.348 117.041 194.975 114.668 197.526C111.982 200.391 110.192 201.645 108.715 201.645C107.774 201.645 104.059 205.718 102.805 208.18C102.313 209.165 101.373 211.941 100.746 214.403C99.2242 220.133 99.3585 221.968 102.358 233.921L104.641 243.053L103.88 245.381C102.358 250.35 95.5534 258.676 92.5989 259.214C90.7635 259.572 89.9129 258.945 88.8833 256.438C87.8984 254.2 87.7641 248.156 88.3461 234.324L88.7938 224.699L90.5844 220.849C91.8378 218.208 92.5541 215.88 92.8675 213.463C93.4942 209.165 94.8372 204.599 96.0906 202.54C96.6278 201.689 97.8365 198.198 98.8213 194.795C99.7614 191.393 100.836 187.991 101.194 187.32C101.597 186.559 101.865 184.813 101.865 183.156C101.865 180.291 102.761 177.023 104.417 173.666C104.909 172.681 105.536 170.846 105.85 169.637C106.118 168.384 107.103 165.519 107.954 163.236C109.162 160.147 109.923 158.848 110.953 158.043C116.325 154.014 121.339 152.492 126.084 153.521C130.65 154.461 132.62 155.581 138.932 160.639C144.662 165.205 147.661 167.041 154.644 170.174C156.435 171.025 158.763 172.233 159.792 172.95C160.777 173.621 162.702 174.606 163.956 175.143L166.328 176.128L169.014 174.785C170.491 174.024 171.7 173.263 171.7 173.084C171.7 172.905 172.73 171.562 173.983 170.129C175.505 168.428 177.296 167.085 179.266 166.056C184.369 163.459 192.337 157.55 193.635 155.402C194.128 154.641 194.755 153.029 195.068 151.865C195.56 149.895 196.232 149.09 201.962 143.673C208.14 137.809 214.81 129.751 219.331 122.633C221.211 119.723 227.21 103.428 228.15 98.728C229.179 93.4904 228.016 92.8636 217.809 93.2665C216.466 93.3113 214.765 93.1322 214.004 92.8636C213.288 92.5951 211.452 92.1474 209.975 91.9236C208.498 91.6549 206.886 91.2073 206.394 90.894C205.185 90.1329 198.336 89.6853 195.829 90.2224C194.755 90.4463 192.919 91.1625 191.8 91.7445C187.995 93.7589 179.758 94.2066 178.281 92.4607C177.833 91.9683 177.743 91.3416 178.012 90.3568C178.37 89.1033 178.773 88.8795 182.757 87.5365C187.637 85.8802 189.159 85.1191 189.159 84.1343C189.159 83.1494 187.279 83.2838 184.324 84.5372C182.936 85.1191 180.027 86.0592 177.878 86.5516C173.67 87.626 173.043 87.5365 170.894 85.5668C169.999 84.761 169.909 84.2238 169.909 80.5083V76.3003L172.909 71.7342C174.52 69.1825 176.356 65.9146 176.938 64.4373C177.52 63.0048 178.146 61.6171 178.37 61.3932C178.594 61.1694 180.967 60.9008 183.653 60.7665C189.472 60.5427 193.501 59.4236 197.261 56.9614C198.739 56.0214 201.29 54.6336 202.902 53.9174C204.558 53.1563 206.528 52.0819 207.289 51.5C209.303 49.9332 216.735 45.5461 219.018 44.5165C220.092 44.0689 220.943 43.4869 220.943 43.2183C220.943 42.5916 216.466 40.6667 212.482 39.5923C208.945 38.6074 206.617 38.5627 200.708 39.4132C198.739 39.6818 198.56 39.5923 198.067 38.5179C197.709 37.8017 197.664 37.175 197.933 36.9511C198.649 36.3244 206.438 34.668 208.811 34.668C210.557 34.668 211.094 34.489 211.094 33.9966C211.094 33.5041 210.557 33.3251 208.901 33.3251C206.886 33.3251 206.662 33.2355 206.259 32.0269C205.812 30.6839 205.812 30.6839 208.095 30.1914C213.87 28.8932 217.63 29.2514 226.986 31.9821C228.687 32.4745 231.239 32.8774 232.626 32.8774C236.297 32.8774 236.834 31.803 234.73 28.759Z"/>
</mask>
<path id="horse" d="M234.73 28.759C233.566 27.0579 233.701 26.4311 235.984 22.4917C237.103 20.5668 238.222 19 238.446 19C239.073 19 244.713 24.3719 248.474 28.4904L251.607 31.9373L254.069 31.9821C261.769 32.0716 268.932 34.7128 273.184 39.0103L275.557 41.4277L285.54 41.3829C296.239 41.3382 299.417 41.741 300.223 43.2631C301.029 44.7404 299.551 45.7252 293.508 47.6501C289.792 48.8588 287.375 49.8884 286.39 50.739C284.689 52.1715 284.555 52.0372 288.539 53.022C291.717 53.8278 296.149 56.6928 298.701 59.6474C300.939 62.199 301.208 62.3781 304.297 63.0496C307.027 63.6763 308.281 64.2583 311.638 66.6756C314.996 69.0482 316.115 70.2121 318.308 73.3457C320.86 77.106 321.173 78.2252 319.651 78.8072C318.577 79.2101 315.175 76.9718 312.892 74.2858L310.743 71.8237H307.967C303.177 71.8237 297.805 70.3017 291.27 67.1681C288.181 65.6908 287.196 65.5117 287.196 66.407C287.196 66.6309 288.673 67.7948 290.464 69.0482C292.255 70.3017 295.075 72.719 296.642 74.4201L299.596 77.5089L305.908 78.0014C311.817 78.4938 312.444 78.6281 315.488 80.1501C319.92 82.3884 324.352 86.3278 324.352 88.0289C324.352 89.1928 324.217 89.3271 323.367 89.0585C322.785 88.8795 321.308 88.0737 320.009 87.2679C315.801 84.4924 315.354 84.4029 307.027 84.6715C300.536 84.8953 299.283 84.8506 298.029 84.1791C297.268 83.7762 296.597 83.5523 296.597 83.6866C296.597 84.5372 298.343 86.2831 300.312 87.4022C304.699 89.8195 315.175 94.5648 316.965 94.8781C320.591 95.5048 320.994 97.3402 317.726 98.4146C315.13 99.3099 311.504 98.7727 308.146 97.0716C306.58 96.2658 305.281 95.9972 303.222 95.9972C300.805 95.9972 299.73 95.6839 295.925 93.938C293.463 92.8189 291.001 91.7893 290.464 91.655C288.494 91.2073 289.39 92.7293 292.792 95.6391C296.373 98.7279 300.894 104.727 302.282 108.129C302.775 109.382 304.297 111.307 306.49 113.456C308.997 115.873 310.071 117.306 310.429 118.559C310.877 120.26 313.742 123.752 314.727 123.752C314.951 123.752 315.443 123.931 315.801 124.155C316.294 124.468 316.249 124.737 315.622 125.722C315.175 126.348 314.593 126.886 314.324 126.886C313.16 126.886 307.475 123.752 306.221 122.409C304.297 120.35 300.447 117.485 296.597 115.247C294.761 114.172 291.762 112.113 289.927 110.68C288.091 109.248 286.48 108.174 286.345 108.353C285.898 108.8 291.314 113.366 295.478 115.963C301.073 119.499 303.625 121.738 304.028 123.483C304.386 125.095 306.266 127.96 308.102 129.616C308.997 130.467 310.25 130.915 312.668 131.362C315.175 131.765 316.249 132.213 317.368 133.198L318.756 134.496L317.726 135.346C316.473 136.421 312.489 136.958 310.788 136.331C310.071 136.063 308.818 135.839 307.967 135.839C305.819 135.839 303.222 134.406 301.566 132.347C300.268 130.691 299.865 130.467 293.597 128.721C288.315 127.244 286.883 126.975 286.435 127.423C285.719 128.139 286.122 128.676 288.136 129.93C289.031 130.467 290.956 132.302 292.344 134.048C294.538 136.645 295.433 137.361 297.895 138.391C301.745 140.002 305.953 143.852 309.131 148.552C310.967 151.238 311.907 152.223 312.713 152.357C313.742 152.492 314.458 153.074 314.503 153.79C314.503 153.969 313.832 154.417 312.981 154.82C311.459 155.536 311.414 155.536 308.684 153.924C306.803 152.76 305.684 151.731 305.102 150.612C304.297 149.045 304.073 148.91 301.745 148.597C300.402 148.463 298.387 147.791 297.268 147.209C296.015 146.493 294.761 146.135 293.821 146.225L292.344 146.359L294.224 148.149C295.701 149.537 296.06 150.164 295.881 150.925C295.657 151.731 295.388 151.865 294 151.641C293.06 151.507 291.852 151.014 291.225 150.567C289.971 149.716 285.137 148.329 284.779 148.687C284.644 148.821 284.913 149.492 285.361 150.119C286.256 151.373 289.166 152.492 293.016 153.074C295.478 153.477 297.985 154.685 300.491 156.7C302.819 158.625 305.46 159.565 308.325 159.565C309.534 159.565 311.101 159.878 311.862 160.236C313.115 160.908 313.16 160.997 312.533 162.161C311.638 163.907 310.071 164.489 306.49 164.489C303.312 164.489 302.327 164.176 296.642 161.49C292.881 159.654 288.181 159.028 286.301 160.012C285.271 160.55 285.271 160.594 286.077 160.908C286.569 161.087 288.36 161.4 290.106 161.579C293.821 161.982 297.626 163.728 300.715 166.503C302.954 168.473 305.371 169.861 306.714 169.861C307.43 169.861 307.43 169.906 306.669 170.756C305.281 172.278 299.775 171.786 297.492 169.95C296.686 169.279 295.925 169.234 291.538 169.503C288.763 169.637 284.421 169.816 281.824 169.816C277.75 169.861 277.258 169.95 277.795 170.488C278.78 171.472 282.943 172.994 287.106 173.89C291.359 174.83 292.478 175.546 297.492 180.649C300.536 183.738 301.118 184.096 302.864 184.275C306.58 184.634 314.951 182.395 314.951 181.097C314.951 180.829 315.578 180.605 316.294 180.605C318.711 180.605 317.905 182.306 314.414 184.678C311.101 186.961 309.131 187.767 305.998 188.215C303.088 188.618 297 187.812 294.985 186.738C291.762 185.036 284.51 182.485 281.6 181.992C279.899 181.679 277.392 181.052 276.139 180.515C273.901 179.62 272.647 179.665 273.587 180.605C273.856 180.873 276.139 181.903 278.735 182.977C286.524 186.156 290.374 188.394 293.418 191.572C294.94 193.139 296.149 194.572 296.149 194.795C296.149 195.019 295.881 195.556 295.567 196.004C294.761 197.078 293.911 196.765 289.569 193.945C285.405 191.214 283.033 190.364 280.392 190.543L278.467 190.677L281.824 191.751C285.853 193.094 288.942 195.736 292.031 200.525C294.448 204.286 295.03 204.778 296.91 204.465C298.567 204.196 298.611 204.241 297.85 205.897C297.358 207.017 297.179 207.061 295.075 206.793C293.239 206.524 292.12 205.987 289.434 203.928C282.093 198.421 276.452 195.601 273.363 195.959C271.662 196.138 270.812 195.915 268.17 194.616C266.469 193.721 264.455 192.647 263.783 192.154C261.903 190.811 261.366 191.304 261.008 194.84C260.739 197.437 260.918 198.645 261.948 202.585C263.067 206.748 263.739 208.091 268.126 215.298C270.856 219.864 275.02 225.818 277.616 229.041C281.466 233.831 283.57 235.935 290.643 241.844C295.254 245.739 301.566 250.618 304.655 252.678C315.846 260.154 328.425 271.121 333.439 277.791C334.824 279.664 337.023 282.575 338.555 284.601L338.99 285.178C342.034 289.162 345.168 295.026 345.66 297.667L345.974 299.368L350.316 299.1C354.613 298.831 354.792 298.786 359.09 296.324C361.597 294.937 365.089 292.475 367.103 290.594C372.117 286.118 377.399 279.403 378.563 276.09C381.204 268.435 381.831 259.169 380.354 249.096C378.608 237.233 377.31 231.056 374.937 223.58C371.221 211.717 369.565 204.241 369.565 199.317C369.565 189.961 370.863 184.813 375.161 177.247C378.876 170.711 381.025 168.16 387.248 162.698C393.381 157.326 398.036 154.372 399.513 154.864C400.991 155.312 400.051 156.789 396.335 159.923C389.755 165.429 384.786 172.95 381.876 181.948C380.757 185.26 380.622 186.469 380.578 191.572C380.533 196.541 380.622 197.392 381.249 197.392C381.607 197.392 383.308 195.78 385.009 193.811C389.441 188.618 393.112 184.857 396.246 182.351C399.155 180.068 401.259 176.979 403.095 172.457C403.632 171.07 404.483 169.592 404.975 169.145C405.781 168.428 405.825 168.473 406.273 169.637C406.542 170.353 406.631 172.099 406.452 173.845C406.049 177.74 403.408 183.022 397.051 192.691C391.232 201.555 390.381 204.017 390.695 211.359C390.918 216.596 391.635 218.208 393.649 218.208C394.724 218.208 395.082 217.76 396.738 214.492C397.947 212.165 399.827 209.523 401.931 207.24C406.631 202.092 408.511 199.317 408.511 197.616C408.511 196.362 408.646 196.228 409.541 196.497C410.75 196.855 412.54 198.735 412.54 199.675C412.54 201.107 410.66 205.494 408.735 208.628C404.751 215.03 403.274 219.103 402.02 227.43C401.707 229.623 402.737 238.039 404.303 245.918C406.721 258.229 407.213 265.525 406.228 275.329C405.781 279.895 405.602 280.567 403.14 285.67C400.185 291.848 396.022 297.891 392.664 300.846C390.157 303.039 383.935 306.441 380.757 307.337C379.637 307.65 378.518 308.053 378.205 308.277C377.847 308.545 378.474 310.157 380.354 313.783C382.771 318.439 382.995 319.2 382.995 321.707C382.995 323.273 382.771 325.736 382.547 327.213C381.786 331.6 381.876 339.837 382.726 342.612C383.398 344.94 383.174 346.686 382.144 346.686C381.204 346.686 379.817 344.851 378.563 341.896C376.862 338.001 376.101 334.689 375.206 327.75C374.668 323.452 374.266 321.975 373.057 319.737C371.401 316.603 369.117 314.007 368.043 314.007C366.879 314.007 367.193 315.395 368.894 317.812C372.117 322.289 372.923 328.242 371.58 336.837C370.416 344.224 369.565 347.134 367.819 350.178C363.969 356.937 361.597 360.787 359.359 364.01L356.986 367.368L357.523 369.785C358.016 371.979 357.971 372.292 357.255 373.098C356.717 373.68 355.956 373.993 355.285 373.904C353.718 373.725 352.599 370.725 352.599 366.562C352.554 362.667 353.718 358.997 357.523 351.163C361.373 343.284 362.403 336.703 360.791 330.346C359.582 325.467 358.418 326.81 357.478 334.152C357.21 336.256 356.673 338.941 356.27 340.105C355.777 341.627 355.643 343.508 355.732 346.373C355.912 350.267 355.867 350.491 354.971 350.625C354.479 350.715 353.763 350.446 353.449 350.043C352.017 348.342 351.256 337.867 352.062 330.794C352.42 327.526 351.748 320.632 350.853 318.349C350.271 317.006 348.57 316.693 347.675 317.767C347.361 318.125 346.914 320.498 346.69 323.05C346.108 328.869 344.944 332.809 342.258 338.18C337.781 347.089 335.185 350.715 327.038 359.399C323.635 363.025 314.235 370.949 311.146 372.829C307.923 374.754 306.848 376.366 305.326 381.603C304.341 385.05 304.162 386.572 304.297 389.437C304.43 393.224 304.475 393.287 309.065 399.642L309.131 399.733C310.967 402.24 312.265 405.866 312.578 409.313C312.713 410.925 313.026 412.581 313.205 413.029C313.876 414.327 311.549 417.774 309.042 419.117C300.85 423.549 289.703 433.084 287.465 437.516C286.614 439.127 285.719 439.978 283.122 441.59C280.078 443.47 279.81 443.783 279.541 445.395C279.138 448.081 278.064 450.319 275.199 454.124C272.468 457.84 269.424 460.212 267.902 459.809C267.096 459.585 267.051 459.72 267.275 461.466C267.454 462.54 267.365 465.002 267.051 466.927C266.425 471.045 265.44 472.433 262.44 473.373C261.411 473.731 260.247 474.313 259.889 474.716C259.531 475.119 257.427 476.417 255.188 477.626C251.249 479.73 251.07 479.775 246.325 479.999C241.535 480.222 241.49 480.222 240.192 478.969C238.491 477.357 238.133 475.119 239.073 471.538C241.042 463.838 242.609 461.107 249.503 453.632C252.279 450.632 255.099 447.275 255.77 446.156C258.009 442.53 260.202 440.381 262.933 439.306C266.514 437.919 267.499 437.068 273.901 430.085C279.81 423.638 286.793 414.685 288.808 411.014C290.374 408.105 290.061 406.762 286.704 402.643C282.719 397.674 280.392 393.914 276.721 386.572C272.02 377.216 268.932 370.322 268.215 367.368C266.962 362.578 266.469 355.46 267.007 350.983C268.036 343.015 269.334 339.121 273.14 332.674C279.138 322.602 279.496 321.707 279.944 315.753C280.302 311.097 280.481 310.247 281.958 307.247C282.854 305.412 283.615 303.755 283.615 303.576C283.615 302.905 281.824 303.308 280.66 304.293C279.586 305.233 279.451 305.77 278.87 310.873C278.064 318.349 277.974 318.752 276.139 321.841C275.243 323.363 274.438 325.377 274.303 326.497C274.124 328.198 273.677 328.914 271.528 331.107C268.663 334.062 267.409 334.331 264.007 332.809C258.949 330.525 257.158 328.242 256.487 323.229C256.218 321.393 255.547 320.185 252.861 316.559C251.025 314.007 248.205 310.873 246.37 309.306C240.46 304.293 228.284 296.101 220.137 291.758C212.034 287.371 202.902 280.88 197.217 275.374C192.874 271.211 183.115 260.556 181.683 258.497C179.534 255.319 178.46 252.946 178.863 252.23C179.042 251.872 179.355 251.111 179.489 250.529L179.803 249.544H173.401C167.761 249.544 166.597 249.41 163.642 248.425C161.807 247.798 158.987 246.545 157.375 245.605C154.734 244.083 154.465 243.769 154.42 242.471C154.42 241.307 154.107 240.815 152.854 240.054C150.257 238.442 138.17 232.533 135.126 231.414C132.217 230.295 126.755 226.982 125.636 225.684C124.83 224.654 122.637 224.744 121.115 225.818C118.384 227.743 118.339 234.637 121.025 240.054C121.741 241.486 123.174 246.142 124.248 250.618C126.397 259.751 127.874 263.421 130.471 266.242C132.217 268.122 132.306 268.39 132.306 270.987C132.306 273.225 132.44 273.807 133.112 274.031C135.932 275.016 140.319 277.12 141.215 277.926C142.781 279.358 144.751 282.357 145.064 283.835C145.243 284.551 145.646 285.894 146.005 286.834C146.766 288.804 146.81 293.817 146.139 296.906C145.915 298.16 144.975 300.443 144.124 302.099C142.781 304.606 142.334 305.054 141.036 305.322C138.484 305.77 136.111 304.561 131.769 300.622C128.859 297.981 126.084 293.862 124.427 289.833C122.816 285.849 120.264 282.313 116.951 279.403C113.773 276.583 113.415 275.822 112.43 269.689C112.072 267.585 111.401 264.183 110.908 262.079C108.401 251.469 106.7 243.993 105.894 240.143C105.447 237.815 104.507 234.279 103.88 232.309C102.447 227.833 101.418 222.326 101.418 219.059C101.418 213.866 105.447 206.524 110.237 202.988L113.281 200.749H119.1C123.622 200.749 126.442 201.018 132.082 202.092C140.856 203.704 145.333 204.331 145.781 204.062C146.497 203.614 145.557 202.45 143.766 201.555C139.648 199.451 133.515 193.587 130.068 188.439C127.248 184.186 123.98 181.5 121.652 181.5C120.443 181.5 119.369 183.335 119.055 185.842C118.966 187.051 118.518 189.513 118.071 191.348C117.399 194.348 117.041 194.975 114.668 197.526C111.982 200.391 110.192 201.645 108.715 201.645C107.774 201.645 104.059 205.718 102.805 208.18C102.313 209.165 101.373 211.941 100.746 214.403C99.2242 220.133 99.3585 221.968 102.358 233.921L104.641 243.053L103.88 245.381C102.358 250.35 95.5534 258.676 92.5989 259.214C90.7635 259.572 89.9129 258.945 88.8833 256.438C87.8984 254.2 87.7641 248.156 88.3461 234.324L88.7938 224.699L90.5844 220.849C91.8378 218.208 92.5541 215.88 92.8675 213.463C93.4942 209.165 94.8372 204.599 96.0906 202.54C96.6278 201.689 97.8365 198.198 98.8213 194.795C99.7614 191.393 100.836 187.991 101.194 187.32C101.597 186.559 101.865 184.813 101.865 183.156C101.865 180.291 102.761 177.023 104.417 173.666C104.909 172.681 105.536 170.846 105.85 169.637C106.118 168.384 107.103 165.519 107.954 163.236C109.162 160.147 109.923 158.848 110.953 158.043C116.325 154.014 121.339 152.492 126.084 153.521C130.65 154.461 132.62 155.581 138.932 160.639C144.662 165.205 147.661 167.041 154.644 170.174C156.435 171.025 158.763 172.233 159.792 172.95C160.777 173.621 162.702 174.606 163.956 175.143L166.328 176.128L169.014 174.785C170.491 174.024 171.7 173.263 171.7 173.084C171.7 172.905 172.73 171.562 173.983 170.129C175.505 168.428 177.296 167.085 179.266 166.056C184.369 163.459 192.337 157.55 193.635 155.402C194.128 154.641 194.755 153.029 195.068 151.865C195.56 149.895 196.232 149.09 201.962 143.673C208.14 137.809 214.81 129.751 219.331 122.633C221.211 119.723 227.21 103.428 228.15 98.728C229.179 93.4904 228.016 92.8636 217.809 93.2665C216.466 93.3113 214.765 93.1322 214.004 92.8636C213.288 92.5951 211.452 92.1474 209.975 91.9236C208.498 91.6549 206.886 91.2073 206.394 90.894C205.185 90.1329 198.336 89.6853 195.829 90.2224C194.755 90.4463 192.919 91.1625 191.8 91.7445C187.995 93.7589 179.758 94.2066 178.281 92.4607C177.833 91.9683 177.743 91.3416 178.012 90.3568C178.37 89.1033 178.773 88.8795 182.757 87.5365C187.637 85.8802 189.159 85.1191 189.159 84.1343C189.159 83.1494 187.279 83.2838 184.324 84.5372C182.936 85.1191 180.027 86.0592 177.878 86.5516C173.67 87.626 173.043 87.5365 170.894 85.5668C169.999 84.761 169.909 84.2238 169.909 80.5083V76.3003L172.909 71.7342C174.52 69.1825 176.356 65.9146 176.938 64.4373C177.52 63.0048 178.146 61.6171 178.37 61.3932C178.594 61.1694 180.967 60.9008 183.653 60.7665C189.472 60.5427 193.501 59.4236 197.261 56.9614C198.739 56.0214 201.29 54.6336 202.902 53.9174C204.558 53.1563 206.528 52.0819 207.289 51.5C209.303 49.9332 216.735 45.5461 219.018 44.5165C220.092 44.0689 220.943 43.4869 220.943 43.2183C220.943 42.5916 216.466 40.6667 212.482 39.5923C208.945 38.6074 206.617 38.5627 200.708 39.4132C198.739 39.6818 198.56 39.5923 198.067 38.5179C197.709 37.8017 197.664 37.175 197.933 36.9511C198.649 36.3244 206.438 34.668 208.811 34.668C210.557 34.668 211.094 34.489 211.094 33.9966C211.094 33.5041 210.557 33.3251 208.901 33.3251C206.886 33.3251 206.662 33.2355 206.259 32.0269C205.812 30.6839 205.812 30.6839 208.095 30.1914C213.87 28.8932 217.63 29.2514 226.986 31.9821C228.687 32.4745 231.239 32.8774 232.626 32.8774C236.297 32.8774 236.834 31.803 234.73 28.759Z" stroke="#F91536" stroke-width="20" mask="url(#path-1-inside-1_12_81)"/>
<mask id="path-2-inside-2_12_81" fill="white">
<path d="M226.091 308.456C225.732 306.307 226.404 304.606 228.015 303.576C230.88 301.83 234.014 302.905 241.087 308.187C246.504 312.216 250.085 315.797 252.502 319.558C254.248 322.288 255.86 326.452 255.86 328.153C255.86 329.943 256.352 330.525 260.068 333.211C262.038 334.644 264.007 336.211 264.41 336.658C265.619 338.046 266.156 340.24 265.708 341.806C265.484 342.612 265.037 345.835 264.768 349.014C263.783 360.339 266.066 370.725 272.244 382.991C275.87 390.243 275.915 390.735 273.542 395.794C271.707 399.689 271.528 399.912 269.782 400.405C266.559 401.255 262.44 400.539 258.277 398.301C254.024 396.063 244.31 392.75 237.282 391.183C229.627 389.437 217.54 387.87 216.063 388.363C215.257 388.631 214.407 388.631 213.601 388.318C212.929 388.094 210.557 387.87 208.363 387.87C204.424 387.87 204.29 387.826 203.036 386.483C202.051 385.364 201.514 385.14 200.708 385.364C192.203 387.826 183.832 388.542 179.713 387.199C176.714 386.214 173.088 384.155 167.805 380.484C166.328 379.454 161.852 372.471 161.852 371.218C161.852 369.785 162.299 369.472 165.791 368.173C168.522 367.189 168.835 367.144 179.221 367.457C188.129 367.726 190.323 367.95 192.964 368.755C196.097 369.695 196.769 369.74 207.289 369.472C210.02 369.382 210.915 369.561 214.138 370.994C222.599 374.754 233.343 376.858 246.638 377.395C254.875 377.753 255.86 377.485 255.86 374.978C255.86 373.59 255.323 372.516 252.592 368.8C244.086 357.251 233.969 337.375 230.075 324.527C228.597 319.647 226.762 312.127 226.091 308.456Z"/>
</mask>
<path id="leg" d="M226.091 308.456C225.732 306.307 226.404 304.606 228.015 303.576C230.88 301.83 234.014 302.905 241.087 308.187C246.504 312.216 250.085 315.797 252.502 319.558C254.248 322.288 255.86 326.452 255.86 328.153C255.86 329.943 256.352 330.525 260.068 333.211C262.038 334.644 264.007 336.211 264.41 336.658C265.619 338.046 266.156 340.24 265.708 341.806C265.484 342.612 265.037 345.835 264.768 349.014C263.783 360.339 266.066 370.725 272.244 382.991C275.87 390.243 275.915 390.735 273.542 395.794C271.707 399.689 271.528 399.912 269.782 400.405C266.559 401.255 262.44 400.539 258.277 398.301C254.024 396.063 244.31 392.75 237.282 391.183C229.627 389.437 217.54 387.87 216.063 388.363C215.257 388.631 214.407 388.631 213.601 388.318C212.929 388.094 210.557 387.87 208.363 387.87C204.424 387.87 204.29 387.826 203.036 386.483C202.051 385.364 201.514 385.14 200.708 385.364C192.203 387.826 183.832 388.542 179.713 387.199C176.714 386.214 173.088 384.155 167.805 380.484C166.328 379.454 161.852 372.471 161.852 371.218C161.852 369.785 162.299 369.472 165.791 368.173C168.522 367.189 168.835 367.144 179.221 367.457C188.129 367.726 190.323 367.95 192.964 368.755C196.097 369.695 196.769 369.74 207.289 369.472C210.02 369.382 210.915 369.561 214.138 370.994C222.599 374.754 233.343 376.858 246.638 377.395C254.875 377.753 255.86 377.485 255.86 374.978C255.86 373.59 255.323 372.516 252.592 368.8C244.086 357.251 233.969 337.375 230.075 324.527C228.597 319.647 226.762 312.127 226.091 308.456Z" stroke="#F91536" stroke-width="20" mask="url(#path-2-inside-2_12_81)"/>

<style>
#horse{
    stroke-dasharray: 3500;
  stroke-dashoffset: 3500;
  animation: dash 2s ease-in-out 1.5s forwards;

}
#leg{
    stroke-dasharray: 500;
  stroke-dashoffset: 500;
  animation: dash 1s ease-in-out 3.5s forwards;
}

@keyframes dash {
  to {
    stroke-dashoffset: 0;
  }
}

</style>


</svg>
