<svg width="500" height="500" viewBox="0 0 500 500" fill="none" xmlns="http://www.w3.org/2000/svg">
<mask id="path-1-inside-1_12_81" fill="white">
<path d="M235.129 15.2091C221.17 16.5643 216.291 17.1742 208.363 18.5971C115.057 35.605 40.6565 108.854 21.6836 202.295C15.1786 234.482 15.4496 269.92 22.4967 301.429C39.6401 378.405 93.0352 441.151 165.539 469.813C209.38 487.092 258.777 490.345 304.922 478.961C339.141 470.559 371.53 453.957 399.109 430.716C407.579 423.601 423.773 406.932 430.888 397.987C455.282 367.36 471.544 331.514 478.727 292.146C483.47 266.397 483.335 233.804 478.388 206.971C469.715 160.148 447.354 117.256 414.016 83.7148C376.951 46.3111 329.993 23.2048 277.479 16.4966C269.551 15.4124 241.295 14.5993 235.129 15.2091ZM245.97 45.4302C245.767 46.3111 239.059 89.4745 231.063 141.447C223.135 193.351 216.495 235.905 216.359 236.04C216.02 236.243 147.989 291.536 122.985 311.932C109.772 322.706 93.0352 336.325 85.7849 342.221L72.6394 352.927L70.6066 349.403C59.5616 329.549 51.2949 304.342 47.3648 278.39C45.6708 267.142 45.332 239.631 46.6872 227.57C57.8676 129.995 133.488 54.5779 230.047 44.6849C233.231 44.4138 238.178 44.075 241.092 44.0073C246.174 43.9395 246.309 44.0073 245.97 45.4302ZM277.14 45.7013C320.303 51.6642 359.537 70.9081 390.91 101.536C419.166 129.114 437.732 161.165 447.219 198.704C452.097 218.016 453.249 228.044 453.317 250.27C453.317 262.534 452.978 271.546 452.436 275.68C449.997 293.094 445.525 310.712 439.968 325.145C436.038 335.444 427.229 352.994 426.348 352.452C425.942 352.181 409.273 338.697 389.283 322.434C353.777 293.501 283.442 236.311 283.035 236.04C282.9 235.905 276.327 193.487 268.331 141.785C260.336 90.0165 253.695 46.7854 253.424 45.7013L253.085 43.7362L261.352 44.2105C265.96 44.4816 273.074 45.1592 277.14 45.7013ZM335.685 327.245C382.507 345.541 421.063 360.719 421.334 360.99C422.012 361.668 413 374.474 405.749 383.216C399.176 391.143 384.472 405.644 376.409 412.081C351.338 432.206 320.1 446.775 289.066 452.805C223.813 465.544 156.798 445.826 109.501 400.02C99.0659 389.924 90.2571 379.76 83.0067 369.392C78.8056 363.294 77.7214 361.261 78.399 360.855C80.2285 359.703 248.071 294.111 249.291 294.043C250.036 293.975 288.93 308.95 335.685 327.245Z"/>
</mask>
<path id="lines"  d="M235.129 15.2091C221.17 16.5643 216.291 17.1742 208.363 18.5971C115.057 35.605 40.6565 108.854 21.6836 202.295C15.1786 234.482 15.4496 269.92 22.4967 301.429C39.6401 378.405 93.0352 441.151 165.539 469.813C209.38 487.092 258.777 490.345 304.922 478.961C339.141 470.559 371.53 453.957 399.109 430.716C407.579 423.601 423.773 406.932 430.888 397.987C455.282 367.36 471.544 331.514 478.727 292.146C483.47 266.397 483.335 233.804 478.388 206.971C469.715 160.148 447.354 117.256 414.016 83.7148C376.951 46.3111 329.993 23.2048 277.479 16.4966C269.551 15.4124 241.295 14.5993 235.129 15.2091ZM245.97 45.4302C245.767 46.3111 239.059 89.4745 231.063 141.447C223.135 193.351 216.495 235.905 216.359 236.04C216.02 236.243 147.989 291.536 122.985 311.932C109.772 322.706 93.0352 336.325 85.7849 342.221L72.6394 352.927L70.6066 349.403C59.5616 329.549 51.2949 304.342 47.3648 278.39C45.6708 267.142 45.332 239.631 46.6872 227.57C57.8676 129.995 133.488 54.5779 230.047 44.6849C233.231 44.4138 238.178 44.075 241.092 44.0073C246.174 43.9395 246.309 44.0073 245.97 45.4302ZM277.14 45.7013C320.303 51.6642 359.537 70.9081 390.91 101.536C419.166 129.114 437.732 161.165 447.219 198.704C452.097 218.016 453.249 228.044 453.317 250.27C453.317 262.534 452.978 271.546 452.436 275.68C449.997 293.094 445.525 310.712 439.968 325.145C436.038 335.444 427.229 352.994 426.348 352.452C425.942 352.181 409.273 338.697 389.283 322.434C353.777 293.501 283.442 236.311 283.035 236.04C282.9 235.905 276.327 193.487 268.331 141.785C260.336 90.0165 253.695 46.7854 253.424 45.7013L253.085 43.7362L261.352 44.2105C265.96 44.4816 273.074 45.1592 277.14 45.7013ZM335.685 327.245C382.507 345.541 421.063 360.719 421.334 360.99C422.012 361.668 413 374.474 405.749 383.216C399.176 391.143 384.472 405.644 376.409 412.081C351.338 432.206 320.1 446.775 289.066 452.805C223.813 465.544 156.798 445.826 109.501 400.02C99.0659 389.924 90.2571 379.76 83.0067 369.392C78.8056 363.294 77.7214 361.261 78.399 360.855C80.2285 359.703 248.071 294.111 249.291 294.043C250.036 293.975 288.93 308.95 335.685 327.245Z"  stroke-width="20" mask="url(#path-1-inside-1_12_81)"/>

<style>
#lines{
    stroke-dasharray: 1490;
  stroke-dashoffset: 1490;
  animation: dash 3.5s ease-in-out 1s forwards;
  stroke:#6CD3BF;

}

@keyframes dash {
  to {
    stroke-dashoffset: 0;
  }
}
</style>
</svg>
