<svg width="999" height="982" viewBox="0 0 999 982" fill="none" xmlns="http://www.w3.org/2000/svg">
<path d="M946.222 491.751C946.222 249.761 746.838 52.251 499.222 52.251C251.605 52.251 52.222 249.761 52.222 491.751C52.222 710.032 203.477 937.126 415.617 976.383C429.954 978.765 444.498 980.544 459.222 981.695C444.43 980.814 429.886 979.023 415.617 976.383C179.83 937.206 0.221983 735.138 0.221983 491.751C0.221983 220.303 223.632 0.250977 499.222 0.250977C774.812 0.250977 998.222 220.303 998.222 491.751C998.222 663.936 908.33 815.441 772.249 903.221L747.629 857.216C867.532 778.244 946.222 643.775 946.222 491.751Z" fill="#68FE9A"/>
<path d="M599.5 491.5C599.5 547.281 554.281 592.5 498.5 592.5C442.719 592.5 397.5 547.281 397.5 491.5C397.5 435.719 442.719 390.5 498.5 390.5C554.281 390.5 599.5 435.719 599.5 491.5Z" stroke="#68FE9A" stroke-width="43"/>
</svg>
