<svg width="284" height="193" viewBox="0 0 284 193" fill="none" xmlns="http://www.w3.org/2000/svg">
<g id="Pass 3">
<path id="borders" d="M25.0007 77.5168C92.8793 74.4756 89.0573 75.0399 92.5562 75.0399C110.75 75.0399 91.6296 152.909 184 148.999L271.5 146.999" stroke="white" stroke-width="16"/>
<path id="tarmac" d="M25.0007 78.0169C92.8793 74.9757 89.0573 75.04 92.5562 75.04C110.75 75.04 90.6296 152.909 183 148.999L271.5 146.999" stroke="#1E1E1E" stroke-width="13"/>
<circle id="gaslyp"  r="4.5" fill="#2293D1"/>
<circle id="oconp"  r="4.5" fill="#2293D1"/>
<g id="V1">
<path d="M134.22 67.9998L129 53.9998L133.02 53.9998L136.18 63.3998L139.22 53.9998L142.82 53.9998L137.82 67.9998L134.22 67.9998Z" fill="white"/>
<path d="M143.819 67.9998L143.819 65.0398L146.899 65.0398L146.899 57.6198L143.819 59.8198L143.819 56.2198L146.919 53.9998L150.519 53.9998L150.519 65.0398L153.019 65.0398L153.019 67.9998L143.819 67.9998Z" fill="white"/>
</g>
<g id="V2">
<path d="M105.22 165.26L100 151.26L104.02 151.26L107.18 160.66L110.22 151.26L113.82 151.26L108.82 165.26L105.22 165.26Z" fill="white"/>
<path d="M114.519 165.26L114.519 162.7L119.159 158.86C119.759 158.367 120.246 157.933 120.619 157.56C121.006 157.173 121.279 156.82 121.439 156.5C121.613 156.167 121.699 155.82 121.699 155.46C121.699 154.993 121.573 154.633 121.319 154.38C121.066 154.127 120.699 154 120.219 154C119.593 154 119.119 154.2 118.799 154.6C118.479 155 118.319 155.587 118.319 156.36L114.719 156.36C114.719 155.213 114.919 154.247 115.319 153.46C115.733 152.66 116.346 152.053 117.159 151.64C117.973 151.213 118.993 151 120.219 151C121.366 151 122.313 151.193 123.059 151.58C123.819 151.953 124.386 152.473 124.759 153.14C125.133 153.807 125.319 154.58 125.319 155.46C125.319 156.1 125.173 156.707 124.879 157.28C124.586 157.853 124.186 158.4 123.679 158.92C123.186 159.44 122.613 159.953 121.959 160.46L119.539 162.3L125.519 162.3L125.519 165.26L114.519 165.26Z" fill="white"/>
</g>
<g id="Tour 57">
<path d="M120.403 24.5878L120.403 21.5452L134.738 21.5452L134.738 24.5878L129.395 24.5878L129.395 38.9998L125.747 38.9998L125.747 24.5878L120.403 24.5878Z" fill="#68FE9A"/>
<path d="M141.047 39.2555C139.723 39.2555 138.579 38.9742 137.613 38.4117C136.652 37.8435 135.911 37.0538 135.388 36.0424C134.865 35.0253 134.604 33.8464 134.604 32.5055C134.604 31.1532 134.865 29.9714 135.388 28.96C135.911 27.943 136.652 27.1532 137.613 26.5907C138.579 26.0225 139.723 25.7384 141.047 25.7384C142.371 25.7384 143.513 26.0225 144.473 26.5907C145.439 27.1532 146.184 27.943 146.706 28.96C147.229 29.9714 147.49 31.1532 147.49 32.5055C147.49 33.8464 147.229 35.0253 146.706 36.0424C146.184 37.0538 145.439 37.8435 144.473 38.4117C143.513 38.9742 142.371 39.2555 141.047 39.2555ZM141.064 36.443C141.667 36.443 142.169 36.2725 142.573 35.9316C142.976 35.585 143.28 35.1134 143.485 34.5168C143.695 33.9202 143.8 33.2413 143.8 32.4799C143.8 31.7185 143.695 31.0395 143.485 30.443C143.28 29.8464 142.976 29.3748 142.573 29.0282C142.169 28.6816 141.667 28.5083 141.064 28.5083C140.456 28.5083 139.945 28.6816 139.53 29.0282C139.121 29.3748 138.811 29.8464 138.601 30.443C138.397 31.0395 138.294 31.7185 138.294 32.4799C138.294 33.2413 138.397 33.9202 138.601 34.5168C138.811 35.1134 139.121 35.585 139.53 35.9316C139.945 36.2725 140.456 36.443 141.064 36.443Z" fill="#68FE9A"/>
<path d="M158.246 33.4259L158.246 25.9089L161.877 25.9089L161.877 38.9998L158.391 38.9998L158.391 36.6219L158.255 36.6219C157.959 37.389 157.468 38.0055 156.78 38.4714C156.098 38.9373 155.266 39.1702 154.283 39.1702C153.408 39.1702 152.638 38.9714 151.973 38.5736C151.309 38.1759 150.789 37.6106 150.414 36.8776C150.044 36.1447 149.857 35.2668 149.851 34.2441L149.851 25.9089L153.482 25.9089L153.482 33.5964C153.488 34.3691 153.695 34.9799 154.104 35.4288C154.513 35.8776 155.061 36.102 155.749 36.102C156.186 36.102 156.596 36.0026 156.976 35.8038C157.357 35.5992 157.664 35.2981 157.897 34.9003C158.135 34.5026 158.252 34.0111 158.246 33.4259Z" fill="#68FE9A"/>
<path d="M164.781 38.9998L164.781 25.9089L168.301 25.9089L168.301 28.193L168.437 28.193C168.676 27.3805 169.076 26.7668 169.639 26.352C170.201 25.9316 170.849 25.7214 171.582 25.7214C171.764 25.7214 171.96 25.7327 172.17 25.7555C172.38 25.7782 172.565 25.8094 172.724 25.8492L172.724 29.0708C172.554 29.0197 172.318 28.9742 172.017 28.9344C171.716 28.8947 171.44 28.8748 171.19 28.8748C170.656 28.8748 170.179 28.9913 169.758 29.2242C169.343 29.4515 169.014 29.7697 168.77 30.1788C168.531 30.5878 168.412 31.0594 168.412 31.5935L168.412 38.9998L164.781 38.9998Z" fill="#68FE9A"/>
<path d="M186.497 39.2384C185.292 39.2384 184.218 39.0168 183.275 38.5736C182.338 38.1305 181.593 37.5197 181.042 36.7413C180.491 35.9628 180.204 35.0708 180.181 34.0651L183.761 34.0651C183.801 34.7412 184.085 35.2895 184.613 35.71C185.142 36.1305 185.77 36.3407 186.497 36.3407C187.076 36.3407 187.588 36.2128 188.031 35.9572C188.48 35.6958 188.829 35.335 189.079 34.8748C189.335 34.4089 189.463 33.8748 189.463 33.2725C189.463 32.6589 189.332 32.1191 189.071 31.6532C188.815 31.1873 188.46 30.8236 188.005 30.5623C187.551 30.3009 187.031 30.1674 186.446 30.1617C185.934 30.1617 185.437 30.2668 184.954 30.477C184.477 30.6873 184.105 30.9742 183.838 31.3378L180.556 30.7498L181.383 21.5452L192.054 21.5452L192.054 24.5623L184.426 24.5623L183.974 28.9344L184.076 28.9344C184.383 28.5026 184.846 28.1447 185.466 27.8606C186.085 27.5765 186.778 27.4344 187.545 27.4344C188.596 27.4344 189.534 27.6816 190.358 28.1759C191.181 28.6702 191.832 29.3492 192.309 30.2128C192.787 31.0708 193.022 32.0594 193.017 33.1787C193.022 34.3549 192.75 35.4003 192.199 36.3151C191.653 37.2242 190.889 37.9401 189.906 38.4628C188.929 38.9799 187.792 39.2384 186.497 39.2384Z" fill="#68FE9A"/>
<path d="M196.281 38.9998L203.517 24.6816L203.517 24.5623L195.088 24.5623L195.088 21.5452L207.335 21.5452L207.335 24.6049L200.091 38.9998L196.281 38.9998Z" fill="#68FE9A"/>
</g>
</g>

<style>
#gaslyp{
    offset-distance: 0%;
    aspect-ratio:1/1;
    width: 25px;
    z-index: 1;
    offset-path: path("M26.5 73.9999C99.5 73.9999 120.522 85.3033 124.5 91.4988C138.5 113.303 127.5 143.967 166.5 148.999C172.116 149.723 181.418 150.032 192.5 151.999C202.5 162.5 228.925 159.496 241.5 157.999");
    animation: followpathgasly 5s  linear  infinite forwards;
}
#oconp{
    offset-distance: 0%;
    aspect-ratio:1/1;
    width: 25px;
    z-index: 1;
    offset-path: path("M18.5 81.9998C43.8444 80.0024 99.7347 72.1672 101 78.9998C106 106 133.5 135.578 146 143C162 152.5 169.5 152.5 192 152.5C196 161.5 205.6 161 224 159");
    animation: followpathocon 5s  linear  infinite forwards;


}

@keyframes followpathgasly {
    0%,{
        offset-distance: 0%;
    }


    60%{
        motion-offset: 100%;
        offset-distance: 80%;
    }

    85%,100%{
        offset-distance: 100%;
    }
 }

 @keyframes followpathocon {
    0%, 10%{
        offset-distance: 0%;
    }


    60%{
        motion-offset: 100%;
        offset-distance: 85%;
    }

    85%,100%{
        offset-distance: 100%;
    }
 }

</style>
</svg>
