<svg width="139" height="106" viewBox="0 0 139 106" fill="none" xmlns="http://www.w3.org/2000/svg">
<g id="Logo 2">
<g id="Group 2">
<rect id="Rectangle 13" x="0.5" y="9.5" width="138" height="96" rx="2" stroke="#68FE9A"/>
<path id="F1 Web Project" d="M17.0385 50V27.6H31.9185V30.928H20.8785V37.296H30.9585V40.624H20.8785V50H17.0385ZM34.7898 50V46.672H40.0698V31.664L34.7898 35.408V31.44L40.1978 27.6H43.9098V46.672H48.2298V50H34.7898ZM63.7535 50L57.8335 27.6H61.8015L66.0575 44.24L70.9535 27.6H74.1535L79.3375 44.24L83.5615 27.6H87.2735L81.3535 50H77.5135L72.4255 33.36L67.5935 50H63.7535ZM96.3835 50.352C94.8902 50.352 93.5142 50.0427 92.2555 49.424C90.9969 48.784 89.9835 47.824 89.2155 46.544C88.4475 45.264 88.0635 43.6427 88.0635 41.68V41.04C88.0635 39.1627 88.4262 37.6053 89.1515 36.368C89.8982 35.1307 90.8795 34.2133 92.0955 33.616C93.3115 32.9973 94.6342 32.688 96.0635 32.688C98.6449 32.688 100.618 33.3813 101.984 34.768C103.37 36.1547 104.064 38.1387 104.064 40.72V42.512H91.6475C91.6902 43.664 91.9355 44.592 92.3835 45.296C92.8315 46 93.4075 46.512 94.1115 46.832C94.8155 47.1307 95.5729 47.28 96.3835 47.28C97.5995 47.28 98.4849 47.088 99.0395 46.704C99.6155 46.32 100.01 45.8187 100.224 45.2H103.744C103.402 46.8853 102.56 48.1653 101.216 49.04C99.8929 49.9147 98.2822 50.352 96.3835 50.352ZM96.2235 35.76C95.4342 35.76 94.6982 35.8987 94.0155 36.176C93.3329 36.4533 92.7782 36.8907 92.3515 37.488C91.9249 38.0853 91.6902 38.8853 91.6475 39.888H100.544C100.522 38.8213 100.32 37.9893 99.9355 37.392C99.5515 36.7947 99.0395 36.3787 98.3995 36.144C97.7595 35.888 97.0342 35.76 96.2235 35.76ZM116.61 50.352C115.202 50.352 113.986 50.032 112.962 49.392C111.959 48.752 111.255 48.0053 110.85 47.152V50H107.586V27.6H111.106V35.728C111.639 34.8533 112.365 34.128 113.282 33.552C114.221 32.976 115.33 32.688 116.61 32.688C118.807 32.688 120.546 33.3813 121.826 34.768C123.106 36.1547 123.746 38.2453 123.746 41.04V41.68C123.746 43.6 123.447 45.2107 122.85 46.512C122.253 47.792 121.421 48.752 120.354 49.392C119.287 50.032 118.039 50.352 116.61 50.352ZM115.778 47.28C117.079 47.28 118.135 46.8213 118.946 45.904C119.757 44.9867 120.162 43.5787 120.162 41.68V41.04C120.162 39.248 119.767 37.9253 118.978 37.072C118.189 36.1973 117.122 35.76 115.778 35.76C114.967 35.76 114.199 35.9307 113.474 36.272C112.77 36.6133 112.194 37.1147 111.746 37.776C111.319 38.4373 111.106 39.2587 111.106 40.24V42.48C111.106 43.5467 111.319 44.4427 111.746 45.168C112.194 45.872 112.77 46.4053 113.474 46.768C114.199 47.1093 114.967 47.28 115.778 47.28ZM17.3667 88V65.6H25.5267C27.532 65.6 29.1853 65.8987 30.4867 66.496C31.788 67.072 32.748 67.8933 33.3667 68.96C34.0067 70.0267 34.3267 71.2853 34.3267 72.736C34.3267 74.1867 34.0067 75.4453 33.3667 76.512C32.748 77.5787 31.788 78.4107 30.4867 79.008C29.1853 79.584 27.532 79.872 25.5267 79.872H21.2067V88H17.3667ZM21.2067 76.544H25.2067C27.2333 76.544 28.62 76.2347 29.3667 75.616C30.1133 74.976 30.4867 74.016 30.4867 72.736C30.4867 71.4773 30.1133 70.528 29.3667 69.888C28.62 69.248 27.2333 68.928 25.2067 68.928H21.2067V76.544ZM37.8517 88V71.04H41.1157V73.92C41.3503 73.3227 41.6703 72.7893 42.0757 72.32C42.5023 71.8293 43.0143 71.4347 43.6117 71.136C44.2303 70.8373 44.9237 70.688 45.6917 70.688C46.225 70.688 46.6197 70.7093 46.8757 70.752C47.153 70.7947 47.345 70.8373 47.4517 70.88V74.08C47.089 73.9733 46.7583 73.8987 46.4597 73.856C46.161 73.792 45.7983 73.76 45.3717 73.76C44.4543 73.76 43.697 73.9733 43.0997 74.4C42.5023 74.8053 42.065 75.3387 41.7877 76C41.5103 76.64 41.3717 77.3333 41.3717 78.08V88H37.8517ZM57.3679 88.352C55.8106 88.352 54.4026 88.032 53.1439 87.392C51.8852 86.7307 50.8826 85.76 50.1359 84.48C49.4106 83.1787 49.0479 81.5787 49.0479 79.68V79.04C49.0479 77.248 49.4106 75.7333 50.1359 74.496C50.8826 73.2373 51.8852 72.288 53.1439 71.648C54.4026 71.008 55.8106 70.688 57.3679 70.688C58.9466 70.688 60.3546 71.008 61.5919 71.648C62.8506 72.288 63.8426 73.2373 64.5679 74.496C65.3146 75.7333 65.6879 77.248 65.6879 79.04V79.68C65.6879 81.5787 65.3146 83.1787 64.5679 84.48C63.8426 85.76 62.8506 86.7307 61.5919 87.392C60.3546 88.032 58.9466 88.352 57.3679 88.352ZM57.3679 85.28C58.1786 85.28 58.9466 85.088 59.6719 84.704C60.3972 84.32 60.9839 83.7227 61.4319 82.912C61.8799 82.08 62.1039 81.0027 62.1039 79.68V79.04C62.1039 77.824 61.8799 76.832 61.4319 76.064C60.9839 75.2747 60.3972 74.6987 59.6719 74.336C58.9466 73.952 58.1786 73.76 57.3679 73.76C56.5572 73.76 55.7892 73.952 55.0639 74.336C54.3386 74.6987 53.7519 75.2747 53.3039 76.064C52.8559 76.832 52.6319 77.824 52.6319 79.04V79.68C52.6319 81.0027 52.8559 82.08 53.3039 82.912C53.7519 83.7227 54.3386 84.32 55.0639 84.704C55.7892 85.088 56.5572 85.28 57.3679 85.28ZM67.5954 94.752C67.3607 94.752 67.0941 94.7413 66.7954 94.72C66.4967 94.72 66.2301 94.6987 65.9954 94.656V91.584C66.1661 91.6267 66.3581 91.648 66.5714 91.648C66.7634 91.6693 66.9447 91.68 67.1154 91.68C67.6701 91.68 68.1181 91.5733 68.4594 91.36C68.8221 91.1467 69.0887 90.752 69.2594 90.176C69.4301 89.6213 69.5154 88.8427 69.5154 87.84V71.04H73.0354V88C73.0354 89.7707 72.8647 91.1467 72.5234 92.128C72.1821 93.1093 71.6167 93.792 70.8274 94.176C70.0381 94.56 68.9607 94.752 67.5954 94.752ZM71.2754 69.12C70.6141 69.12 70.0701 68.9173 69.6434 68.512C69.2381 68.0853 69.0354 67.5413 69.0354 66.88C69.0354 66.2187 69.2381 65.6853 69.6434 65.28C70.0701 64.8533 70.6141 64.64 71.2754 64.64C71.9367 64.64 72.4701 64.8533 72.8754 65.28C73.3021 65.6853 73.5154 66.2187 73.5154 66.88C73.5154 67.5413 73.3021 68.0853 72.8754 68.512C72.4701 68.9173 71.9367 69.12 71.2754 69.12ZM85.1804 88.352C83.6871 88.352 82.3111 88.0427 81.0524 87.424C79.7937 86.784 78.7804 85.824 78.0124 84.544C77.2444 83.264 76.8604 81.6427 76.8604 79.68V79.04C76.8604 77.1627 77.2231 75.6053 77.9484 74.368C78.6951 73.1307 79.6764 72.2133 80.8924 71.616C82.1084 70.9973 83.4311 70.688 84.8604 70.688C87.4417 70.688 89.4151 71.3813 90.7804 72.768C92.1671 74.1547 92.8604 76.1387 92.8604 78.72V80.512H80.4444C80.4871 81.664 80.7324 82.592 81.1804 83.296C81.6284 84 82.2044 84.512 82.9084 84.832C83.6124 85.1307 84.3697 85.28 85.1804 85.28C86.3964 85.28 87.2817 85.088 87.8364 84.704C88.4124 84.32 88.8071 83.8187 89.0204 83.2H92.5404C92.1991 84.8853 91.3564 86.1653 90.0124 87.04C88.6897 87.9147 87.0791 88.352 85.1804 88.352ZM85.0204 73.76C84.2311 73.76 83.4951 73.8987 82.8124 74.176C82.1297 74.4533 81.5751 74.8907 81.1484 75.488C80.7217 76.0853 80.4871 76.8853 80.4444 77.888H89.3404C89.3191 76.8213 89.1164 75.9893 88.7324 75.392C88.3484 74.7947 87.8364 74.3787 87.1964 74.144C86.5564 73.888 85.8311 73.76 85.0204 73.76ZM103.423 88.352C101.908 88.352 100.543 88.032 99.3269 87.392C98.1109 86.752 97.1509 85.792 96.4469 84.512C95.7642 83.232 95.4229 81.6213 95.4229 79.68V79.04C95.4229 77.2053 95.7856 75.6693 96.5109 74.432C97.2576 73.1947 98.2389 72.2667 99.4549 71.648C100.671 71.008 101.994 70.688 103.423 70.688C104.916 70.688 106.175 70.944 107.199 71.456C108.244 71.968 109.055 72.6613 109.631 73.536C110.228 74.4107 110.612 75.392 110.783 76.48H107.199C106.986 75.6907 106.602 75.04 106.047 74.528C105.492 74.016 104.618 73.76 103.423 73.76C102.634 73.76 101.898 73.9413 101.215 74.304C100.554 74.6667 100.02 75.2427 99.6149 76.032C99.2096 76.8 99.0069 77.8027 99.0069 79.04V79.68C99.0069 81.024 99.2096 82.112 99.6149 82.944C100.02 83.7547 100.554 84.352 101.215 84.736C101.898 85.0987 102.634 85.28 103.423 85.28C104.426 85.28 105.236 85.056 105.855 84.608C106.474 84.16 106.922 83.4773 107.199 82.56H110.783C110.57 83.7547 110.122 84.7893 109.439 85.664C108.778 86.5173 107.935 87.1787 106.911 87.648C105.887 88.1173 104.724 88.352 103.423 88.352ZM120.693 88.16C119.413 88.16 118.368 87.9787 117.557 87.616C116.768 87.2533 116.181 86.688 115.797 85.92C115.434 85.1307 115.253 84.1173 115.253 82.88V74.048H112.853V71.04H115.253V67.2H118.773V71.04H123.093V74.048H118.773V82.4C118.773 83.4027 118.954 84.1067 119.317 84.512C119.701 84.896 120.426 85.088 121.493 85.088C122.133 85.088 122.773 85.056 123.413 84.992V88C123.008 88.0427 122.592 88.0747 122.165 88.096C121.738 88.1387 121.248 88.16 120.693 88.16Z" fill="white"/>
</g>
<g id="Text upper">
<rect id="Rectangle 14" x="8" width="36" height="19" fill="#242124"/>
<path id="The" d="M14.1414 15V6.656H10.8514V5.2H19.1114V6.656H15.8214V15H14.1414ZM20.3698 15V5.2H21.9098V8.756C22.0218 8.52267 22.1758 8.308 22.3718 8.112C22.5771 7.90667 22.8291 7.74333 23.1278 7.622C23.4358 7.49133 23.7998 7.426 24.2198 7.426C25.1251 7.426 25.8064 7.67333 26.2638 8.168C26.7211 8.65333 26.9498 9.36733 26.9498 10.31V15H25.4098V10.66C25.4098 10.0347 25.2791 9.56333 25.0178 9.246C24.7564 8.92867 24.3271 8.77 23.7298 8.77C23.3004 8.77 22.9504 8.86333 22.6798 9.05C22.4184 9.22733 22.2224 9.46067 22.0918 9.75C21.9704 10.03 21.9098 10.3333 21.9098 10.66V15H20.3698ZM32.0663 15.154C31.413 15.154 30.811 15.0187 30.2603 14.748C29.7097 14.468 29.2663 14.048 28.9303 13.488C28.5943 12.928 28.4263 12.2187 28.4263 11.36V11.08C28.4263 10.2587 28.585 9.57733 28.9023 9.036C29.229 8.49467 29.6583 8.09333 30.1903 7.832C30.7223 7.56133 31.301 7.426 31.9263 7.426C33.0557 7.426 33.919 7.72933 34.5163 8.336C35.123 8.94267 35.4263 9.81067 35.4263 10.94V11.724H29.9943C30.013 12.228 30.1203 12.634 30.3163 12.942C30.5123 13.25 30.7643 13.474 31.0723 13.614C31.3803 13.7447 31.7117 13.81 32.0663 13.81C32.5983 13.81 32.9857 13.726 33.2283 13.558C33.4803 13.39 33.653 13.1707 33.7463 12.9H35.2863C35.137 13.6373 34.7683 14.1973 34.1803 14.58C33.6017 14.9627 32.897 15.154 32.0663 15.154ZM31.9963 8.77C31.651 8.77 31.329 8.83067 31.0303 8.952C30.7317 9.07333 30.489 9.26467 30.3023 9.526C30.1157 9.78733 30.013 10.1373 29.9943 10.576H33.8863C33.877 10.1093 33.7883 9.74533 33.6203 9.484C33.4523 9.22267 33.2283 9.04067 32.9483 8.938C32.6683 8.826 32.351 8.77 31.9963 8.77Z" fill="white"/>
</g>
</g>
</svg>
