<svg width="500" height="500" viewBox="0 0 500 500" fill="none" xmlns="http://www.w3.org/2000/svg">
<mask id="path-1-inside-1_12_81" fill="white">
<path d="M239.141 23.1341C238.145 23.2246 234.297 23.4962 230.54 23.8131C204.826 25.7145 176.306 33.5916 152.222 45.4071C97.2181 72.4789 56.022 119.696 36.6463 177.914C23.0651 218.612 21.3448 262.253 31.576 304.399C35.6503 321.104 41.1733 336.179 48.824 351.526C60.3227 374.569 74.0849 393.673 92.1478 411.645C108.174 427.58 124.335 439.532 145.114 450.849C166.618 462.574 193.327 471.311 217.683 474.616C230.449 476.336 242.4 477.378 250.006 477.378C260.463 477.378 282.238 475.069 293.42 472.805C340.23 463.299 381.607 440.256 413.477 405.941C438.421 379.141 455.896 348.583 465.991 314.087C472.103 293.172 475 272.62 475 250.12C474.955 236.177 474.547 230.246 472.691 217.118C465.357 165.464 440.096 117.342 401.934 82.4384C365.4 48.9835 320.039 28.5213 272.415 23.9942C265.398 23.3152 243.17 22.7267 239.141 23.1341ZM273.546 33.0031C308.043 37.3037 337.242 47.6254 365.717 65.6883C370.38 68.6309 383.101 77.685 383.78 78.4998C383.916 78.6357 385.862 80.3107 388.081 82.1667C432.536 118.926 461.057 174.383 465.493 232.691C468.526 272.348 461.283 310.737 444.08 346.093C433.442 368.004 419.544 387.38 401.934 404.945C393.242 413.592 387.673 418.481 378.755 425.136C348.107 448.133 311.166 462.801 273.909 466.739C247.425 469.501 221.576 467.735 197.039 461.488C117.318 441.071 55.9315 376.832 38.6834 295.843C36.601 286.155 36.2841 284.163 35.424 276.83C33.251 257.273 33.251 242.243 35.424 223.184C36.2841 215.669 36.7368 212.863 38.4118 205.076C46.0172 169.267 61.1376 137.94 84.6329 109.329C89.8843 102.946 103.511 89.1384 109.667 83.9323C137.282 60.7086 167.116 45.4977 200.887 37.3943C210.168 35.176 226.375 32.7314 235.293 32.1882C242.174 31.7807 268.295 32.324 273.546 33.0031Z"/>
</mask>
<path d="M239.141 23.1341C238.145 23.2246 234.297 23.4962 230.54 23.8131C204.826 25.7145 176.306 33.5916 152.222 45.4071C97.2181 72.4789 56.022 119.696 36.6463 177.914C23.0651 218.612 21.3448 262.253 31.576 304.399C35.6503 321.104 41.1733 336.179 48.824 351.526C60.3227 374.569 74.0849 393.673 92.1478 411.645C108.174 427.58 124.335 439.532 145.114 450.849C166.618 462.574 193.327 471.311 217.683 474.616C230.449 476.336 242.4 477.378 250.006 477.378C260.463 477.378 282.238 475.069 293.42 472.805C340.23 463.299 381.607 440.256 413.477 405.941C438.421 379.141 455.896 348.583 465.991 314.087C472.103 293.172 475 272.62 475 250.12C474.955 236.177 474.547 230.246 472.691 217.118C465.357 165.464 440.096 117.342 401.934 82.4384C365.4 48.9835 320.039 28.5213 272.415 23.9942C265.398 23.3152 243.17 22.7267 239.141 23.1341ZM273.546 33.0031C308.043 37.3037 337.242 47.6254 365.717 65.6883C370.38 68.6309 383.101 77.685 383.78 78.4998C383.916 78.6357 385.862 80.3107 388.081 82.1667C432.536 118.926 461.057 174.383 465.493 232.691C468.526 272.348 461.283 310.737 444.08 346.093C433.442 368.004 419.544 387.38 401.934 404.945C393.242 413.592 387.673 418.481 378.755 425.136C348.107 448.133 311.166 462.801 273.909 466.739C247.425 469.501 221.576 467.735 197.039 461.488C117.318 441.071 55.9315 376.832 38.6834 295.843C36.601 286.155 36.2841 284.163 35.424 276.83C33.251 257.273 33.251 242.243 35.424 223.184C36.2841 215.669 36.7368 212.863 38.4118 205.076C46.0172 169.267 61.1376 137.94 84.6329 109.329C89.8843 102.946 103.511 89.1384 109.667 83.9323C137.282 60.7086 167.116 45.4977 200.887 37.3943C210.168 35.176 226.375 32.7314 235.293 32.1882C242.174 31.7807 268.295 32.324 273.546 33.0031Z" stroke="black" stroke-width="20" mask="url(#path-1-inside-1_12_81)"/>
<mask id="path-2-inside-2_12_81" fill="white">
<path d="M230.902 48.1233C229.589 48.2139 228.502 48.3497 228.502 48.395C228.502 48.4855 228.819 49.3004 229.181 50.1605C229.725 51.5186 229.861 54.597 229.861 67.9065V83.9775H234.886H239.956L239.684 79.1789C239.548 75.8289 239.594 74.3349 240.001 74.2444C240.273 74.1086 243.894 73.9728 248.014 73.9275L255.574 73.7917L259.105 78.862L262.682 83.9775H268.024H273.365L272.369 82.4836C271.781 81.714 270.061 79.3147 268.476 77.2322C266.892 75.1498 265.624 73.2937 265.624 73.1126C265.624 72.9316 266.213 72.5241 266.937 72.2072C270.332 70.8038 272.505 66.639 272.46 61.4329C272.46 59.5315 272.234 57.268 272.007 56.4078C271.011 53.1936 268.159 50.1605 264.492 48.5761C263.451 48.1233 259.513 47.9875 248.195 47.9875C240.001 47.9875 232.169 48.0328 230.902 48.1233ZM260.69 56.1815C262.093 56.9058 263.361 59.1693 263.361 60.9349C263.361 61.4329 262.999 62.6099 262.591 63.47C261.369 66.0957 260.192 66.3221 249.1 66.3221H239.367V60.8896V55.4572H249.327C257.521 55.4572 259.558 55.593 260.69 56.1815Z"/>
</mask>
<path d="M230.902 48.1233C229.589 48.2139 228.502 48.3497 228.502 48.395C228.502 48.4855 228.819 49.3004 229.181 50.1605C229.725 51.5186 229.861 54.597 229.861 67.9065V83.9775H234.886H239.956L239.684 79.1789C239.548 75.8289 239.594 74.3349 240.001 74.2444C240.273 74.1086 243.894 73.9728 248.014 73.9275L255.574 73.7917L259.105 78.862L262.682 83.9775H268.024H273.365L272.369 82.4836C271.781 81.714 270.061 79.3147 268.476 77.2322C266.892 75.1498 265.624 73.2937 265.624 73.1126C265.624 72.9316 266.213 72.5241 266.937 72.2072C270.332 70.8038 272.505 66.639 272.46 61.4329C272.46 59.5315 272.234 57.268 272.007 56.4078C271.011 53.1936 268.159 50.1605 264.492 48.5761C263.451 48.1233 259.513 47.9875 248.195 47.9875C240.001 47.9875 232.169 48.0328 230.902 48.1233ZM260.69 56.1815C262.093 56.9058 263.361 59.1693 263.361 60.9349C263.361 61.4329 262.999 62.6099 262.591 63.47C261.369 66.0957 260.192 66.3221 249.1 66.3221H239.367V60.8896V55.4572H249.327C257.521 55.4572 259.558 55.593 260.69 56.1815Z" stroke="black" stroke-width="20" mask="url(#path-2-inside-2_12_81)"/>
<mask id="path-3-inside-3_12_81" fill="white">
<path d="M303.199 58.4451C297.585 59.939 293.647 63.0174 291.519 67.5897C290.478 69.8532 290.297 70.7586 290.297 74.9235C290.297 79.4505 290.387 79.8127 291.881 82.8458C296.182 91.4472 307.047 97.5587 318.138 97.5587C326.604 97.5587 332.308 94.4351 335.477 88.0519C338.781 81.4877 337.785 74.4708 332.715 68.1782C326.468 60.4822 312.615 55.9099 303.199 58.4451ZM314.471 66.5485C320.085 67.8613 325.064 71.3924 326.785 75.1046C328.55 78.9978 327.373 84.5661 324.249 86.9202C320.945 89.4553 317.233 89.9533 311.891 88.5499C307.997 87.5539 305.145 85.9242 302.882 83.4796C300.392 80.8087 299.622 79.0884 299.577 76.3721C299.532 70.3965 303.923 66.0958 310.216 65.9147C310.985 65.9147 312.887 66.1863 314.471 66.5485Z"/>
</mask>
<path d="M303.199 58.4451C297.585 59.939 293.647 63.0174 291.519 67.5897C290.478 69.8532 290.297 70.7586 290.297 74.9235C290.297 79.4505 290.387 79.8127 291.881 82.8458C296.182 91.4472 307.047 97.5587 318.138 97.5587C326.604 97.5587 332.308 94.4351 335.477 88.0519C338.781 81.4877 337.785 74.4708 332.715 68.1782C326.468 60.4822 312.615 55.9099 303.199 58.4451ZM314.471 66.5485C320.085 67.8613 325.064 71.3924 326.785 75.1046C328.55 78.9978 327.373 84.5661 324.249 86.9202C320.945 89.4553 317.233 89.9533 311.891 88.5499C307.997 87.5539 305.145 85.9242 302.882 83.4796C300.392 80.8087 299.622 79.0884 299.577 76.3721C299.532 70.3965 303.923 66.0958 310.216 65.9147C310.985 65.9147 312.887 66.1863 314.471 66.5485Z" stroke="black" stroke-width="20" mask="url(#path-3-inside-3_12_81)"/>
<mask id="path-4-inside-4_12_81" fill="white">
<path d="M148.6 75.3762C145.612 77.0964 142.987 78.5904 142.715 78.6809C142.489 78.7714 142.805 79.4505 143.439 80.2201L144.616 81.6235L144.933 100.139C145.114 110.28 145.341 118.655 145.431 118.745C145.476 118.836 147.332 117.795 149.551 116.482L153.58 114.082V110.506C153.58 107.292 153.67 106.93 154.712 106.205C156.749 104.711 173.227 95.2952 173.725 95.2952C173.997 95.2952 175.445 96.11 176.939 97.1512L179.701 99.0073L183.368 96.8796C185.405 95.7026 187.261 94.5708 187.487 94.3445C187.714 94.1634 184.228 91.583 179.565 88.5499C174.993 85.562 167.659 80.7633 163.268 77.9113C158.876 75.014 155.028 72.5694 154.666 72.4789C154.304 72.343 151.588 73.6559 148.6 75.3762ZM159.556 85.8336C162.996 88.0972 165.803 90.1343 165.803 90.3607C165.803 90.587 163.041 92.3978 159.646 94.3445L153.489 97.8756L153.218 92.1715C152.855 85.3809 152.81 81.714 153.127 81.714C153.218 81.714 156.16 83.5701 159.556 85.8336Z"/>
</mask>
<path d="M148.6 75.3762C145.612 77.0964 142.987 78.5904 142.715 78.6809C142.489 78.7714 142.805 79.4505 143.439 80.2201L144.616 81.6235L144.933 100.139C145.114 110.28 145.341 118.655 145.431 118.745C145.476 118.836 147.332 117.795 149.551 116.482L153.58 114.082V110.506C153.58 107.292 153.67 106.93 154.712 106.205C156.749 104.711 173.227 95.2952 173.725 95.2952C173.997 95.2952 175.445 96.11 176.939 97.1512L179.701 99.0073L183.368 96.8796C185.405 95.7026 187.261 94.5708 187.487 94.3445C187.714 94.1634 184.228 91.583 179.565 88.5499C174.993 85.562 167.659 80.7633 163.268 77.9113C158.876 75.014 155.028 72.5694 154.666 72.4789C154.304 72.343 151.588 73.6559 148.6 75.3762ZM159.556 85.8336C162.996 88.0972 165.803 90.1343 165.803 90.3607C165.803 90.587 163.041 92.3978 159.646 94.3445L153.489 97.8756L153.218 92.1715C152.855 85.3809 152.81 81.714 153.127 81.714C153.218 81.714 156.16 83.5701 159.556 85.8336Z" stroke="black" stroke-width="20" mask="url(#path-4-inside-4_12_81)"/>
<mask id="path-5-inside-5_12_81" fill="white">
<path d="M365.536 82.9363C365.446 83.1174 365.219 83.7965 365.083 84.4303C364.902 85.1546 360.149 90.1796 352.951 97.3323L341.09 109.057L344.576 112.362L348.107 115.667L356.527 107.518C363.227 101.09 365.038 99.5959 365.129 100.32C365.219 100.773 364.767 105.3 364.087 110.37C362.277 124.676 362.096 126.26 362.322 126.487C362.503 126.713 370.788 124.857 381.698 122.186C385.138 121.326 388.081 120.692 388.171 120.782C388.262 120.873 385.184 125.309 381.29 130.606L374.273 140.249L377.623 143.372C379.479 145.093 381.109 146.541 381.245 146.587C381.381 146.632 385.681 141.064 390.842 134.228C395.958 127.392 400.892 120.873 401.752 119.832C403.337 117.885 403.337 117.84 402.522 117.07C402.024 116.618 400.213 114.943 398.448 113.268L395.234 110.234L388.036 111.819C384.097 112.679 379.027 113.811 376.808 114.309C374.545 114.807 372.644 115.214 372.553 115.214C372.417 115.214 372.463 114.037 372.644 112.588C372.779 111.185 373.006 108.786 373.187 107.292C373.323 105.798 373.775 101.633 374.228 98.0114L375.043 91.4924L372.508 89.0026C367.483 84.0681 365.762 82.5742 365.536 82.9363Z"/>
</mask>
<path d="M365.536 82.9363C365.446 83.1174 365.219 83.7965 365.083 84.4303C364.902 85.1546 360.149 90.1796 352.951 97.3323L341.09 109.057L344.576 112.362L348.107 115.667L356.527 107.518C363.227 101.09 365.038 99.5959 365.129 100.32C365.219 100.773 364.767 105.3 364.087 110.37C362.277 124.676 362.096 126.26 362.322 126.487C362.503 126.713 370.788 124.857 381.698 122.186C385.138 121.326 388.081 120.692 388.171 120.782C388.262 120.873 385.184 125.309 381.29 130.606L374.273 140.249L377.623 143.372C379.479 145.093 381.109 146.541 381.245 146.587C381.381 146.632 385.681 141.064 390.842 134.228C395.958 127.392 400.892 120.873 401.752 119.832C403.337 117.885 403.337 117.84 402.522 117.07C402.024 116.618 400.213 114.943 398.448 113.268L395.234 110.234L388.036 111.819C384.097 112.679 379.027 113.811 376.808 114.309C374.545 114.807 372.644 115.214 372.553 115.214C372.417 115.214 372.463 114.037 372.644 112.588C372.779 111.185 373.006 108.786 373.187 107.292C373.323 105.798 373.775 101.633 374.228 98.0114L375.043 91.4924L372.508 89.0026C367.483 84.0681 365.762 82.5742 365.536 82.9363Z" stroke="black" stroke-width="20" mask="url(#path-5-inside-5_12_81)"/>
<mask id="path-6-inside-6_12_81" fill="white">
<path d="M111.026 104.666C106.816 109.284 100.613 116.029 97.354 119.651C94.0492 123.227 91.333 126.351 91.333 126.532C91.333 126.713 91.9668 126.984 92.6911 127.166C93.6871 127.347 97.3087 130.516 105.91 138.845L117.771 150.253L121.076 146.632L124.38 143.055L120.261 138.936L116.186 134.816L119.265 131.466C120.94 129.61 124.064 126.215 126.146 123.906L129.949 119.696L127.278 116.98L124.607 114.263L122.162 116.889C120.849 118.338 117.68 121.824 115.191 124.63L110.663 129.746L107.54 126.668C105.865 124.993 104.461 123.499 104.461 123.363C104.461 123.227 108.853 118.338 114.195 112.498C119.536 106.658 123.928 101.724 123.928 101.497C123.928 101.09 119.31 96.2006 118.948 96.2006C118.812 96.2006 115.281 100.003 111.026 104.666Z"/>
</mask>
<path d="M111.026 104.666C106.816 109.284 100.613 116.029 97.354 119.651C94.0492 123.227 91.333 126.351 91.333 126.532C91.333 126.713 91.9668 126.984 92.6911 127.166C93.6871 127.347 97.3087 130.516 105.91 138.845L117.771 150.253L121.076 146.632L124.38 143.055L120.261 138.936L116.186 134.816L119.265 131.466C120.94 129.61 124.064 126.215 126.146 123.906L129.949 119.696L127.278 116.98L124.607 114.263L122.162 116.889C120.849 118.338 117.68 121.824 115.191 124.63L110.663 129.746L107.54 126.668C105.865 124.993 104.461 123.499 104.461 123.363C104.461 123.227 108.853 118.338 114.195 112.498C119.536 106.658 123.928 101.724 123.928 101.497C123.928 101.09 119.31 96.2006 118.948 96.2006C118.812 96.2006 115.281 100.003 111.026 104.666Z" stroke="black" stroke-width="20" mask="url(#path-6-inside-6_12_81)"/>
<mask id="path-7-inside-7_12_81" fill="white">
<path d="M235.519 98.0114C201.159 101.769 172.548 114.807 147.151 138.212C121.619 161.752 104.235 196.067 100.07 231.107C98.9836 240.206 98.9836 260.17 100.07 268.817C102.379 287.197 107.178 302.724 115.779 319.837C132.031 351.979 159.284 377.194 193.01 391.273C213.473 399.829 238.507 403.904 260.192 402.274C289.98 400.011 316.644 390.096 340.547 372.396C346.07 368.276 355.984 359.358 360.647 354.242C376.084 337.447 388.081 316.668 394.645 295.436C396.229 290.275 398.719 279.32 399.76 272.755C401.073 264.742 401.617 250.799 401.028 240.568C400.394 230.02 400.168 227.983 398.221 218.657C392.11 189.322 378.846 164.423 357.749 142.92C344.802 129.701 333.258 121.235 316.961 113.041C303.018 105.979 288.984 101.543 273.003 99.0979C266.394 98.0567 263.677 97.8756 252.269 97.785C245.071 97.6945 237.511 97.785 235.519 98.0114ZM263.406 105.707C281.378 107.518 297.857 112.272 313.837 120.284C316.825 121.733 319.949 123.634 320.809 124.404C323.978 127.392 324.974 132.236 323.208 136.129C322.122 138.574 319.179 141.29 316.916 141.878C315.965 142.15 309.899 142.422 303.425 142.467C291.79 142.603 291.609 142.603 289.119 143.78C286.584 145.002 285.679 145.908 282.51 150.48C279.477 154.871 279.703 154.826 261.007 154.962C252.088 155.052 244.8 155.233 244.8 155.369C244.8 155.55 245.615 156.999 246.565 158.629C248.738 162.295 252.496 166.46 256.298 169.493L259.196 171.802H277.078H295.005L296.227 172.843C297.721 174.156 297.811 175.967 296.408 177.506L295.367 178.593H277.032H258.698L256.479 179.996C252.994 182.26 248.24 187.692 246.158 191.812C245.162 193.804 244.347 195.75 244.347 196.067C244.347 196.61 249.417 196.701 276.489 196.701C312.615 196.701 311.166 196.565 313.656 200.006C315.241 202.179 315.693 204.261 314.969 206.389C314.245 208.652 312.796 210.282 310.713 211.233C308.993 212.002 307.363 212.093 290.523 212.093C280.428 212.093 270.83 212.319 269.155 212.546C265.126 213.134 259.105 215.262 255.574 217.299C246.294 222.731 240.046 230.744 236.787 241.383C235.7 244.959 235.565 246.091 235.565 252.384C235.519 257.726 235.7 260.08 236.289 262.253C237.647 267.051 239.367 270.99 241.857 274.792C247.471 283.394 255.484 289.279 265.036 291.905C268.34 292.765 270.015 292.855 292.605 293.082C315.467 293.353 316.734 293.399 317.64 294.214C318.953 295.391 318.907 297.835 317.595 298.741C316.689 299.374 313.701 299.465 293.873 299.465C272.958 299.465 270.921 299.51 267.797 300.325C257.475 302.951 249.961 309.832 246.565 319.701C241.042 335.817 250.73 353.744 267.299 358.045C269.427 358.588 272.415 358.769 280.156 358.769C291.609 358.769 294.19 359.177 297.721 361.44C302.022 364.202 304.964 370.268 304.421 375.067C304.013 378.281 301.84 382.265 298.988 384.845C296.861 386.792 295.91 387.29 291.836 388.557C286.539 390.187 277.349 392.224 269.925 393.492C265.85 394.171 262.365 394.306 251.138 394.306C234.071 394.306 228.819 393.763 215.6 390.504C207.678 388.557 193.644 383.532 190.611 381.585L189.57 380.952V324.137V267.323H209.941C221.169 267.323 230.313 267.187 230.313 266.961C230.313 266.78 229.996 265.512 229.634 264.154C228.412 259.536 227.959 253.244 228.502 248.264C229.046 243.375 230.675 237.127 232.124 234.275C232.622 233.279 233.029 232.284 233.029 232.012C233.029 231.74 225.877 231.514 211.435 231.469L189.796 231.333V174.971V118.609L194.55 116.527C206.365 111.321 221.35 107.428 236.198 105.753C241.178 105.209 257.973 105.164 263.406 105.707ZM154.621 186.832L154.485 231.333L131.126 231.469L107.766 231.559L108.355 227.711C110.799 212.455 115.236 198.602 122.072 184.931C127.187 174.7 132.936 165.827 140.134 157.135C143.937 152.608 153.716 142.376 154.349 142.376C154.53 142.376 154.666 162.386 154.621 186.832ZM363.589 161.39C379.479 181.988 388.85 204.714 392.698 231.786C393.83 239.934 393.83 260.125 392.653 268.002C389.529 289.551 383.508 306.98 373.323 324.183C362.231 342.879 346.613 359.267 328.55 371.128C323.57 374.387 313.747 380.046 313.068 380.046C312.886 380.046 313.882 379.005 315.195 377.737C320.266 372.939 322.665 367.189 322.665 359.81C322.62 350.892 318.545 343.513 311.121 339.077C305.779 335.908 304.285 335.681 287.399 335.681H272.369L271.283 334.549C269.925 333.191 269.88 332.105 271.102 330.52L272.007 329.343H295.503C314.878 329.343 319.587 329.208 322.665 328.619C330.949 327.08 336.699 323.911 342.674 317.664C347.564 312.503 350.551 306.935 352.136 299.918C352.86 296.658 352.724 287.287 351.864 283.847C348.514 270.582 339.234 260.804 326.196 256.82C322.982 255.869 322.076 255.824 298.128 255.553C270.694 255.281 271.826 255.417 271.826 252.384C271.826 249.396 271.192 249.486 293.601 249.169C310.397 248.988 314.471 248.807 317.64 248.128C336.699 244.19 352 232.465 360.647 215.352C362.367 211.957 364.947 204.397 365.808 200.277C367.12 193.939 367.075 181.49 365.672 175.198C364.449 169.493 361.462 161.933 358.655 157.27C357.795 155.867 357.07 154.418 357.07 154.101C357.116 153.332 359.108 155.595 363.589 161.39ZM154.712 312.367C154.712 337.13 154.53 357.411 154.349 357.411C153.625 357.411 142.172 345.369 138.505 340.797C124.652 323.322 114.692 302.407 110.165 281.357C109.305 277.237 108.445 272.982 108.309 271.85C108.174 270.718 107.947 269.27 107.811 268.545L107.54 267.323H131.126H154.712V312.367Z"/>
</mask>
<path d="M235.519 98.0114C201.159 101.769 172.548 114.807 147.151 138.212C121.619 161.752 104.235 196.067 100.07 231.107C98.9836 240.206 98.9836 260.17 100.07 268.817C102.379 287.197 107.178 302.724 115.779 319.837C132.031 351.979 159.284 377.194 193.01 391.273C213.473 399.829 238.507 403.904 260.192 402.274C289.98 400.011 316.644 390.096 340.547 372.396C346.07 368.276 355.984 359.358 360.647 354.242C376.084 337.447 388.081 316.668 394.645 295.436C396.229 290.275 398.719 279.32 399.76 272.755C401.073 264.742 401.617 250.799 401.028 240.568C400.394 230.02 400.168 227.983 398.221 218.657C392.11 189.322 378.846 164.423 357.749 142.92C344.802 129.701 333.258 121.235 316.961 113.041C303.018 105.979 288.984 101.543 273.003 99.0979C266.394 98.0567 263.677 97.8756 252.269 97.785C245.071 97.6945 237.511 97.785 235.519 98.0114ZM263.406 105.707C281.378 107.518 297.857 112.272 313.837 120.284C316.825 121.733 319.949 123.634 320.809 124.404C323.978 127.392 324.974 132.236 323.208 136.129C322.122 138.574 319.179 141.29 316.916 141.878C315.965 142.15 309.899 142.422 303.425 142.467C291.79 142.603 291.609 142.603 289.119 143.78C286.584 145.002 285.679 145.908 282.51 150.48C279.477 154.871 279.703 154.826 261.007 154.962C252.088 155.052 244.8 155.233 244.8 155.369C244.8 155.55 245.615 156.999 246.565 158.629C248.738 162.295 252.496 166.46 256.298 169.493L259.196 171.802H277.078H295.005L296.227 172.843C297.721 174.156 297.811 175.967 296.408 177.506L295.367 178.593H277.032H258.698L256.479 179.996C252.994 182.26 248.24 187.692 246.158 191.812C245.162 193.804 244.347 195.75 244.347 196.067C244.347 196.61 249.417 196.701 276.489 196.701C312.615 196.701 311.166 196.565 313.656 200.006C315.241 202.179 315.693 204.261 314.969 206.389C314.245 208.652 312.796 210.282 310.713 211.233C308.993 212.002 307.363 212.093 290.523 212.093C280.428 212.093 270.83 212.319 269.155 212.546C265.126 213.134 259.105 215.262 255.574 217.299C246.294 222.731 240.046 230.744 236.787 241.383C235.7 244.959 235.565 246.091 235.565 252.384C235.519 257.726 235.7 260.08 236.289 262.253C237.647 267.051 239.367 270.99 241.857 274.792C247.471 283.394 255.484 289.279 265.036 291.905C268.34 292.765 270.015 292.855 292.605 293.082C315.467 293.353 316.734 293.399 317.64 294.214C318.953 295.391 318.907 297.835 317.595 298.741C316.689 299.374 313.701 299.465 293.873 299.465C272.958 299.465 270.921 299.51 267.797 300.325C257.475 302.951 249.961 309.832 246.565 319.701C241.042 335.817 250.73 353.744 267.299 358.045C269.427 358.588 272.415 358.769 280.156 358.769C291.609 358.769 294.19 359.177 297.721 361.44C302.022 364.202 304.964 370.268 304.421 375.067C304.013 378.281 301.84 382.265 298.988 384.845C296.861 386.792 295.91 387.29 291.836 388.557C286.539 390.187 277.349 392.224 269.925 393.492C265.85 394.171 262.365 394.306 251.138 394.306C234.071 394.306 228.819 393.763 215.6 390.504C207.678 388.557 193.644 383.532 190.611 381.585L189.57 380.952V324.137V267.323H209.941C221.169 267.323 230.313 267.187 230.313 266.961C230.313 266.78 229.996 265.512 229.634 264.154C228.412 259.536 227.959 253.244 228.502 248.264C229.046 243.375 230.675 237.127 232.124 234.275C232.622 233.279 233.029 232.284 233.029 232.012C233.029 231.74 225.877 231.514 211.435 231.469L189.796 231.333V174.971V118.609L194.55 116.527C206.365 111.321 221.35 107.428 236.198 105.753C241.178 105.209 257.973 105.164 263.406 105.707ZM154.621 186.832L154.485 231.333L131.126 231.469L107.766 231.559L108.355 227.711C110.799 212.455 115.236 198.602 122.072 184.931C127.187 174.7 132.936 165.827 140.134 157.135C143.937 152.608 153.716 142.376 154.349 142.376C154.53 142.376 154.666 162.386 154.621 186.832ZM363.589 161.39C379.479 181.988 388.85 204.714 392.698 231.786C393.83 239.934 393.83 260.125 392.653 268.002C389.529 289.551 383.508 306.98 373.323 324.183C362.231 342.879 346.613 359.267 328.55 371.128C323.57 374.387 313.747 380.046 313.068 380.046C312.886 380.046 313.882 379.005 315.195 377.737C320.266 372.939 322.665 367.189 322.665 359.81C322.62 350.892 318.545 343.513 311.121 339.077C305.779 335.908 304.285 335.681 287.399 335.681H272.369L271.283 334.549C269.925 333.191 269.88 332.105 271.102 330.52L272.007 329.343H295.503C314.878 329.343 319.587 329.208 322.665 328.619C330.949 327.08 336.699 323.911 342.674 317.664C347.564 312.503 350.551 306.935 352.136 299.918C352.86 296.658 352.724 287.287 351.864 283.847C348.514 270.582 339.234 260.804 326.196 256.82C322.982 255.869 322.076 255.824 298.128 255.553C270.694 255.281 271.826 255.417 271.826 252.384C271.826 249.396 271.192 249.486 293.601 249.169C310.397 248.988 314.471 248.807 317.64 248.128C336.699 244.19 352 232.465 360.647 215.352C362.367 211.957 364.947 204.397 365.808 200.277C367.12 193.939 367.075 181.49 365.672 175.198C364.449 169.493 361.462 161.933 358.655 157.27C357.795 155.867 357.07 154.418 357.07 154.101C357.116 153.332 359.108 155.595 363.589 161.39ZM154.712 312.367C154.712 337.13 154.53 357.411 154.349 357.411C153.625 357.411 142.172 345.369 138.505 340.797C124.652 323.322 114.692 302.407 110.165 281.357C109.305 277.237 108.445 272.982 108.309 271.85C108.174 270.718 107.947 269.27 107.811 268.545L107.54 267.323H131.126H154.712V312.367Z" stroke="black" stroke-width="20" mask="url(#path-7-inside-7_12_81)"/>
<mask id="path-8-inside-8_12_81" fill="white">
<path d="M243.125 118.021C241.767 119.515 241.495 120.828 242.265 122.593C243.034 124.449 245.298 125.491 247.109 124.766C251.455 123.136 250.413 117.025 245.796 117.025C244.573 117.025 243.759 117.342 243.125 118.021Z"/>
</mask>
<path d="M243.125 118.021C241.767 119.515 241.495 120.828 242.265 122.593C243.034 124.449 245.298 125.491 247.109 124.766C251.455 123.136 250.413 117.025 245.796 117.025C244.573 117.025 243.759 117.342 243.125 118.021Z" stroke="black" stroke-width="20" mask="url(#path-8-inside-8_12_81)"/>
<mask id="path-9-inside-9_12_81" fill="white">
<path d="M259.83 118.021C257.702 120.33 258.2 123.408 260.916 124.54C262.727 125.309 263.995 125.038 265.534 123.68C266.937 122.367 266.892 119.605 265.398 118.157C263.949 116.663 261.188 116.618 259.83 118.021Z"/>
</mask>
<path d="M259.83 118.021C257.702 120.33 258.2 123.408 260.916 124.54C262.727 125.309 263.995 125.038 265.534 123.68C266.937 122.367 266.892 119.605 265.398 118.157C263.949 116.663 261.188 116.618 259.83 118.021Z" stroke="black" stroke-width="20" mask="url(#path-9-inside-9_12_81)"/>
<mask id="path-10-inside-10_12_81" fill="white">
<path d="M276.172 118.021C274.859 119.515 274.588 120.601 275.176 122.322C275.765 124.087 278.119 125.445 279.794 124.902C282.872 123.997 283.913 120.33 281.695 118.157C280.247 116.663 277.485 116.618 276.172 118.021Z"/>
</mask>
<path d="M276.172 118.021C274.859 119.515 274.588 120.601 275.176 122.322C275.765 124.087 278.119 125.445 279.794 124.902C282.872 123.997 283.913 120.33 281.695 118.157C280.247 116.663 277.485 116.618 276.172 118.021Z" stroke="black" stroke-width="20" mask="url(#path-10-inside-10_12_81)"/>
<mask id="path-11-inside-11_12_81" fill="white">
<path d="M242.717 130.832C241.405 132.145 241.54 133.458 243.08 134.771C243.94 135.541 245.524 135.586 262.184 135.586C282.465 135.586 282.51 135.586 282.736 132.779C283.008 129.655 283.234 129.701 262.319 129.701H243.849L242.717 130.832Z"/>
</mask>
<path d="M242.717 130.832C241.405 132.145 241.54 133.458 243.08 134.771C243.94 135.541 245.524 135.586 262.184 135.586C282.465 135.586 282.51 135.586 282.736 132.779C283.008 129.655 283.234 129.701 262.319 129.701H243.849L242.717 130.832Z" stroke="black" stroke-width="20" mask="url(#path-11-inside-11_12_81)"/>
<mask id="path-12-inside-12_12_81" fill="white">
<path d="M221.485 143.146C219.358 143.599 219.312 143.644 220.354 145.41C221.848 147.99 223.794 149.62 225.288 149.62C227.688 149.62 229 152.2 230.087 158.991C230.494 161.481 230.766 165.102 230.675 167.094C230.54 171.214 230.087 171.621 227.552 169.81C224.202 167.366 223.387 167.094 220.127 167.049C217.456 167.049 216.642 167.275 215.102 168.271C212.794 169.765 211.752 171.893 211.752 175.062C211.752 178.14 212.839 179.951 215.6 181.581C217.275 182.531 218.271 182.803 220.354 182.803C223.16 182.758 224.247 182.35 226.692 180.313C227.552 179.589 228.819 179.046 229.498 179.046H230.766V182.531C230.766 187.556 229.589 194.619 228.321 197.471C227.371 199.508 227.008 199.87 226.013 199.87C225.333 199.87 224.247 200.187 223.568 200.594C222.165 201.409 219.131 205.619 219.584 206.072C219.765 206.208 221.485 206.434 223.432 206.57C227.688 206.796 229.453 206.072 232.622 202.722C235.293 199.915 235.7 199.191 238.236 193.215C240.952 186.651 244.03 182.079 248.331 178.095L251.862 174.835L247.697 170.716C243.079 166.143 240.771 162.567 238.054 155.867C235.972 150.751 234.297 148.171 231.4 145.591C228.593 143.146 225.243 142.286 221.485 143.146Z"/>
</mask>
<path d="M221.485 143.146C219.358 143.599 219.312 143.644 220.354 145.41C221.848 147.99 223.794 149.62 225.288 149.62C227.688 149.62 229 152.2 230.087 158.991C230.494 161.481 230.766 165.102 230.675 167.094C230.54 171.214 230.087 171.621 227.552 169.81C224.202 167.366 223.387 167.094 220.127 167.049C217.456 167.049 216.642 167.275 215.102 168.271C212.794 169.765 211.752 171.893 211.752 175.062C211.752 178.14 212.839 179.951 215.6 181.581C217.275 182.531 218.271 182.803 220.354 182.803C223.16 182.758 224.247 182.35 226.692 180.313C227.552 179.589 228.819 179.046 229.498 179.046H230.766V182.531C230.766 187.556 229.589 194.619 228.321 197.471C227.371 199.508 227.008 199.87 226.013 199.87C225.333 199.87 224.247 200.187 223.568 200.594C222.165 201.409 219.131 205.619 219.584 206.072C219.765 206.208 221.485 206.434 223.432 206.57C227.688 206.796 229.453 206.072 232.622 202.722C235.293 199.915 235.7 199.191 238.236 193.215C240.952 186.651 244.03 182.079 248.331 178.095L251.862 174.835L247.697 170.716C243.079 166.143 240.771 162.567 238.054 155.867C235.972 150.751 234.297 148.171 231.4 145.591C228.593 143.146 225.243 142.286 221.485 143.146Z" stroke="black" stroke-width="20" mask="url(#path-12-inside-12_12_81)"/>
<mask id="path-13-inside-13_12_81" fill="white">
<path d="M417.959 140.611C417.552 141.833 415.288 143.237 400.621 151.204C393.83 154.871 388.352 157.995 388.397 158.176C389.077 159.579 395.098 171.304 396.818 174.609C398.04 176.918 400.847 182.26 403.02 186.515C405.193 190.725 407.049 194.302 407.139 194.392C407.23 194.483 412.889 191.54 413.568 191.042C413.704 190.906 407.321 178.321 402.069 168.316C400.711 165.781 399.625 163.518 399.625 163.291C399.625 162.884 405.012 159.806 405.238 160.122C405.329 160.168 407.366 164.106 409.81 168.86C412.21 173.568 414.383 177.642 414.564 177.868C414.79 178.05 416.375 177.461 418.14 176.556L421.309 174.881L416.556 165.6C413.885 160.53 411.802 156.32 411.893 156.229C411.983 156.139 413.251 155.46 414.654 154.735L417.28 153.332L420.132 158.855C421.762 161.843 424.84 167.864 427.058 172.119L431.042 179.951L434.256 178.14C435.977 177.189 437.38 176.193 437.335 175.922C437.244 175.695 433.261 167.818 428.371 158.402C423.527 149.031 419.453 140.973 419.317 140.475C418.955 139.389 418.321 139.434 417.959 140.611Z"/>
</mask>
<path d="M417.959 140.611C417.552 141.833 415.288 143.237 400.621 151.204C393.83 154.871 388.352 157.995 388.397 158.176C389.077 159.579 395.098 171.304 396.818 174.609C398.04 176.918 400.847 182.26 403.02 186.515C405.193 190.725 407.049 194.302 407.139 194.392C407.23 194.483 412.889 191.54 413.568 191.042C413.704 190.906 407.321 178.321 402.069 168.316C400.711 165.781 399.625 163.518 399.625 163.291C399.625 162.884 405.012 159.806 405.238 160.122C405.329 160.168 407.366 164.106 409.81 168.86C412.21 173.568 414.383 177.642 414.564 177.868C414.79 178.05 416.375 177.461 418.14 176.556L421.309 174.881L416.556 165.6C413.885 160.53 411.802 156.32 411.893 156.229C411.983 156.139 413.251 155.46 414.654 154.735L417.28 153.332L420.132 158.855C421.762 161.843 424.84 167.864 427.058 172.119L431.042 179.951L434.256 178.14C435.977 177.189 437.38 176.193 437.335 175.922C437.244 175.695 433.261 167.818 428.371 158.402C423.527 149.031 419.453 140.973 419.317 140.475C418.955 139.389 418.321 139.434 417.959 140.611Z" stroke="black" stroke-width="20" mask="url(#path-13-inside-13_12_81)"/>
<mask id="path-14-inside-14_12_81" fill="white">
<path d="M98.1236 167.275C94.7736 174.02 91.9215 179.453 91.7857 179.362C91.6499 179.317 89.5222 178.231 87.0323 176.963C84.5424 175.65 79.0647 172.753 74.8998 170.489C70.6897 168.226 67.1586 166.37 67.0681 166.37C66.9775 166.37 65.7552 168.588 64.3971 171.35L61.9072 176.329H63.3106C64.714 176.329 72.3194 180.087 87.8472 188.416C91.2877 190.273 94.2303 191.721 94.3209 191.585C94.4567 191.45 98.2141 183.98 102.696 174.926C108.943 162.341 110.709 158.447 110.256 158.131C109.577 157.678 104.552 155.052 104.371 155.052C104.28 155.052 101.474 160.575 98.1236 167.275Z"/>
</mask>
<path d="M98.1236 167.275C94.7736 174.02 91.9215 179.453 91.7857 179.362C91.6499 179.317 89.5222 178.231 87.0323 176.963C84.5424 175.65 79.0647 172.753 74.8998 170.489C70.6897 168.226 67.1586 166.37 67.0681 166.37C66.9775 166.37 65.7552 168.588 64.3971 171.35L61.9072 176.329H63.3106C64.714 176.329 72.3194 180.087 87.8472 188.416C91.2877 190.273 94.2303 191.721 94.3209 191.585C94.4567 191.45 98.2141 183.98 102.696 174.926C108.943 162.341 110.709 158.447 110.256 158.131C109.577 157.678 104.552 155.052 104.371 155.052C104.28 155.052 101.474 160.575 98.1236 167.275Z" stroke="black" stroke-width="20" mask="url(#path-14-inside-14_12_81)"/>
<mask id="path-15-inside-15_12_81" fill="white">
<path d="M89.7485 201.047C89.5221 201.183 81.0565 204.08 70.9612 207.521L52.6267 213.723L51.6307 219.563C50.3632 227.123 50.3632 227.621 51.4497 227.258C53.1247 226.761 53.351 226.851 69.6484 239.482C72.2288 241.519 76.2126 244.597 78.4761 246.408C80.7396 248.219 82.8221 249.667 83.0484 249.667C83.3201 249.667 83.5464 248.898 83.5464 247.947C83.5464 247.042 83.7728 245.367 84.0444 244.235C84.8593 240.704 84.7687 240.387 81.8261 238.259C79.789 236.765 79.1552 236.041 79.1099 235.181C79.1099 234.094 80.1059 227.304 81.6451 217.48L82.3694 212.681L85.8552 211.595L89.2958 210.463L89.6127 208.426C90.0201 205.574 90.5181 200.775 90.337 200.821C90.2464 200.821 90.0201 200.956 89.7485 201.047ZM73.9943 217.39C73.8585 218.34 73.3606 221.6 72.9079 224.633C72.5004 227.711 71.9572 230.201 71.7308 230.201C71.5497 230.201 69.0146 228.39 66.1626 226.172C63.2653 223.954 60.5038 221.826 59.9605 221.464C59.4173 221.102 59.0551 220.694 59.1909 220.558C59.5078 220.287 72.9079 215.805 73.6322 215.76C74.0849 215.715 74.1754 216.122 73.9943 217.39Z"/>
</mask>
<path d="M89.7485 201.047C89.5221 201.183 81.0565 204.08 70.9612 207.521L52.6267 213.723L51.6307 219.563C50.3632 227.123 50.3632 227.621 51.4497 227.258C53.1247 226.761 53.351 226.851 69.6484 239.482C72.2288 241.519 76.2126 244.597 78.4761 246.408C80.7396 248.219 82.8221 249.667 83.0484 249.667C83.3201 249.667 83.5464 248.898 83.5464 247.947C83.5464 247.042 83.7728 245.367 84.0444 244.235C84.8593 240.704 84.7687 240.387 81.8261 238.259C79.789 236.765 79.1552 236.041 79.1099 235.181C79.1099 234.094 80.1059 227.304 81.6451 217.48L82.3694 212.681L85.8552 211.595L89.2958 210.463L89.6127 208.426C90.0201 205.574 90.5181 200.775 90.337 200.821C90.2464 200.821 90.0201 200.956 89.7485 201.047ZM73.9943 217.39C73.8585 218.34 73.3606 221.6 72.9079 224.633C72.5004 227.711 71.9572 230.201 71.7308 230.201C71.5497 230.201 69.0146 228.39 66.1626 226.172C63.2653 223.954 60.5038 221.826 59.9605 221.464C59.4173 221.102 59.0551 220.694 59.1909 220.558C59.5078 220.287 72.9079 215.805 73.6322 215.76C74.0849 215.715 74.1754 216.122 73.9943 217.39Z" stroke="black" stroke-width="20" mask="url(#path-15-inside-15_12_81)"/>
<mask id="path-16-inside-16_12_81" fill="white">
<path d="M424.207 202.043C416.465 204.804 411.802 213.858 412.436 224.859C412.934 233.913 416.013 241.247 421.309 246.182C424.84 249.396 427.783 250.573 432.627 250.573C435.796 250.573 436.52 250.392 439.372 248.988C446.208 245.548 449.83 238.486 449.875 228.526C449.875 217.073 444.533 206.525 436.882 202.812C433.396 201.137 427.738 200.775 424.207 202.043ZM433.759 211.821C436.249 212.863 438.331 215.081 439.825 218.295C443.265 225.765 442.632 233.868 438.331 237.807C435.117 240.794 431.405 241.383 427.692 239.482C424.026 237.625 421.807 234.004 420.63 227.938C419.136 220.468 421.581 214.13 426.787 211.912C428.779 211.052 431.812 211.006 433.759 211.821Z"/>
</mask>
<path d="M424.207 202.043C416.465 204.804 411.802 213.858 412.436 224.859C412.934 233.913 416.013 241.247 421.309 246.182C424.84 249.396 427.783 250.573 432.627 250.573C435.796 250.573 436.52 250.392 439.372 248.988C446.208 245.548 449.83 238.486 449.875 228.526C449.875 217.073 444.533 206.525 436.882 202.812C433.396 201.137 427.738 200.775 424.207 202.043ZM433.759 211.821C436.249 212.863 438.331 215.081 439.825 218.295C443.265 225.765 442.632 233.868 438.331 237.807C435.117 240.794 431.405 241.383 427.692 239.482C424.026 237.625 421.807 234.004 420.63 227.938C419.136 220.468 421.581 214.13 426.787 211.912C428.779 211.052 431.812 211.006 433.759 211.821Z" stroke="black" stroke-width="20" mask="url(#path-16-inside-16_12_81)"/>
</svg>
