<svg width="500" height="500" viewBox="0 0 500 500" fill="none" xmlns="http://www.w3.org/2000/svg">
<g clip-path="url(#clip0_12_81)">
<path d="M47.1446 172.295L47.1415 172.298C32.8693 187.112 23.6462 204.066 18.3664 225.549L18.3641 225.559L18.3616 225.569C17.4046 229.397 17 235.179 17 250.136C17 268.106 17.1979 270.027 19.2005 277.777C30.5083 321.193 64.6554 352.954 109.648 361.758C115.311 362.837 123.953 363.246 132.859 362.945C141.771 362.643 150.436 361.648 156.146 360.134L156.154 360.132L156.163 360.13C197.805 349.243 229.066 318.284 239.462 277.606L239.463 277.6C241.152 271.023 241.785 266.632 242.624 255.35C243.139 247.949 243.556 243.242 244.301 239.503C245.087 235.56 246.219 232.782 247.906 229.209L247.914 229.193L247.921 229.177C254.553 215.387 267.683 205.284 282.589 202.535L282.602 202.533C283.974 202.283 285.445 201.926 286.687 201.554C287.306 201.368 287.827 201.191 288.225 201.037C288.321 200.999 288.402 200.966 288.469 200.938L288.034 168.14L288.034 168.131L288.034 168.122C287.908 155.049 287.738 143.355 287.64 137.037C286.31 137.122 284.774 137.243 283.136 137.392C277.873 137.873 272.01 138.607 268.958 139.251C246.937 143.963 228.244 153.988 212.116 169.845L212.107 169.853C191.217 190.291 180.471 214.234 178.47 244.703L178.47 244.713C178.002 251.642 177.135 259.706 176.454 262.541L176.452 262.549L176.45 262.558C173.313 275.432 162.273 288.177 149.377 294.313L149.353 294.325L149.329 294.336C146.646 295.578 144.336 296.503 141.748 297.143C139.174 297.779 136.517 298.087 133.168 298.284L133.152 298.285L133.136 298.285C117.406 299.108 105.502 294.899 94.871 284.268C84.2682 273.665 79.9136 261.466 80.9532 246.393L80.9546 246.373L80.9561 246.353C81.681 236.93 83.7451 230.842 88.8216 222.969L88.8287 222.958L88.8358 222.947C93.6751 215.526 99.7333 210.538 108.972 206.071C112.305 204.45 114.724 203.305 117.715 202.713C120.542 202.153 123.746 202.12 128.578 202.075L128.602 202.075H128.625C136.732 202.075 140.927 202.432 145.529 204.202L145.553 204.211L145.576 204.22C148.451 205.359 152.146 207.338 155.301 209.265C156.623 210.072 157.903 210.904 159.04 211.702C159.11 211.478 159.179 211.249 159.25 211.018C165.207 191.098 176.331 171.224 189.675 157.276C190.277 156.629 190.847 155.999 191.361 155.412C189.396 154.117 186.686 152.54 183.622 150.91C177.049 147.414 169.518 144.028 165.037 142.76L165.025 142.757C156.722 140.385 152.261 139.197 147.992 138.52C143.749 137.847 139.578 137.66 131.813 137.471C127.567 137.378 123.464 137.354 120.269 137.378C118.669 137.389 117.314 137.412 116.292 137.443C115.78 137.459 115.37 137.476 115.065 137.493C114.891 137.503 114.783 137.511 114.726 137.515C85.306 143.024 65.2767 153.441 47.1446 172.295Z" stroke="black" stroke-width="10"/>
<path d="M388.585 280.702C390.637 285.364 391.99 287.324 394.696 290.977C398.431 296.015 400.689 297.973 404.347 300.12C405.317 300.686 406.227 301.283 406.987 301.905C407.269 302.136 407.699 302.502 408.136 302.999C410.826 297.813 413.135 292.373 415.018 286.713C419.48 273.236 420.618 263.784 420.618 234.649V208.491V203.545L425.565 203.491L443.102 203.303L443.129 203.302L457.204 203.075L458.4 199.727L458.402 199.719C459.725 196.036 463.222 186.301 466.247 177.98C467.573 174.335 469.183 169.876 470.778 165.456C472.792 159.88 474.783 154.365 476.152 150.623C477.967 145.398 479.861 140.165 480.93 137.418C479.501 137.349 477.614 137.286 475.128 137.235C463.757 137 441.286 137 396.816 137H311.632V166.94V198.692L312.802 199.236L312.826 199.247L312.85 199.259C315.176 200.371 318.409 202.137 319.943 203L319.986 203.024L320.027 203.048C321.54 203.938 327.414 207.203 333.063 210.216C342.366 215.153 345.298 216.693 348.127 218.403C349.518 219.245 350.885 220.129 352.974 221.478L352.982 221.483L352.989 221.488C359.366 225.64 364.376 229.825 368.444 234.897C372.516 239.974 375.467 245.718 378.004 252.779C383.555 268.008 386.414 275.768 388.585 280.702ZM402.513 312.636C402.012 312.617 401.523 312.572 401.043 312.501L402.006 313.408C402.176 313.151 402.345 312.894 402.513 312.636ZM484.801 137.78C484.803 137.778 484.771 137.768 484.698 137.752C484.763 137.773 484.8 137.781 484.801 137.78ZM374.94 312.168C374.805 312.291 374.655 312.427 374.486 312.58C372.817 314.093 371.154 315.392 368.976 316.251C366.898 317.072 364.709 317.345 362.304 317.538C359.669 317.782 356.084 318.781 354.68 319.478C354.132 319.757 353.608 320.023 353.105 320.279C350.871 321.414 349.077 322.326 347.646 323.026C345.942 323.859 344.469 324.534 343.204 324.936C341.855 325.364 340.203 325.663 338.38 325.149C337.021 324.766 335.893 323.963 335.442 323.643C335.428 323.633 335.415 323.624 335.403 323.615C334.303 322.911 333.322 321.988 332.572 321.016C331.958 320.219 330.9 318.625 330.817 316.589C330.731 315.429 330.654 314.537 330.572 313.837C329.939 313.668 329.276 313.385 328.634 312.935C328.411 312.778 328.206 312.611 328.016 312.437C328.027 313.332 327.998 314.239 327.967 315.178L327.966 315.19C327.822 319.23 327.37 322.929 325.931 325.77C325.15 327.312 324.035 328.696 322.479 329.714C320.953 330.712 319.299 331.163 317.717 331.318C317.583 331.333 317.459 331.36 317.353 331.391C317.347 331.393 317.341 331.395 317.335 331.397C316.659 332.414 315.738 333.319 314.973 333.979C314.08 334.749 312.96 335.56 311.768 336.165L311.632 336.238V350.802V363.094L317.029 362.808C317.031 362.808 317.032 362.808 317.034 362.807C348.643 361.071 377.664 345.122 396.937 320.441L396.211 320.353L392.339 319.881L392.318 319.878L392.298 319.875C390.583 319.652 388.586 318.994 386.815 318.276C384.967 317.526 382.994 316.556 381.266 315.498L381.205 315.46L381.145 315.421C380.831 315.216 380.53 315.019 380.243 314.832C378.356 313.598 377.027 312.729 375.983 312.108C375.753 311.971 375.555 311.857 375.386 311.764C375.251 311.885 375.106 312.017 374.94 312.168ZM331.858 291.722C331.902 291.638 331.946 291.555 331.989 291.473C331.959 291.488 331.929 291.504 331.899 291.519C329.087 292.963 326.282 293.697 323.077 294.172L319.392 294.774C320.477 296.097 321.662 297.709 322.786 299.395C324.202 301.52 325.386 303.31 326.254 305.016C326.319 304.714 326.389 304.431 326.457 304.172C327.262 301.131 329.152 296.944 331.845 291.747L331.852 291.735L331.858 291.722ZM317.141 331.476C317.141 331.476 317.142 331.475 317.144 331.474C317.142 331.475 317.141 331.475 317.141 331.476Z" stroke="black" stroke-width="10"/>
<path d="M309.156 225.712C309.156 225.712 309.163 225.715 309.177 225.718C309.162 225.714 309.155 225.712 309.156 225.712Z" stroke="black" stroke-width="10"/>
<path d="M348.034 270.931C348.034 270.931 348.037 270.929 348.042 270.925C348.036 270.929 348.034 270.931 348.034 270.931Z" stroke="black" stroke-width="10"/>
<path d="M264.295 310.832L264.284 310.833L264.272 310.834L253.488 311.739L251.472 315.541C249.347 319.631 245.361 325.566 241.341 331.013C237.327 336.451 232.942 341.862 229.93 344.768L229.92 344.777L229.916 344.781C230.456 345.125 231.037 345.488 231.652 345.864C235.198 348.033 239.524 350.443 242.678 351.954C256.331 358.415 270.048 362.091 283.572 362.807L283.592 362.808L283.613 362.81L287.453 363.045L287.279 354.398C287.171 349.053 287.101 346.03 286.982 344.275C285.715 343.706 284.688 342.87 283.904 342.098C282.654 340.865 281.518 339.29 280.47 337.566C280.011 336.837 279.628 336.28 279.304 335.857C279.097 335.586 278.932 335.393 278.808 335.26C277.812 335.137 276.972 334.814 276.377 334.535C275.572 334.158 274.836 333.68 274.205 333.21C272.943 332.27 271.735 331.085 270.739 329.913C269.774 328.777 268.776 327.382 268.146 325.957C267.847 325.283 267.453 324.209 267.431 322.949C267.407 321.546 267.893 319.405 269.957 318.029L270.089 317.941L270.225 317.862C271.285 317.248 272.597 316.847 273.563 316.589C274.662 316.296 275.89 316.042 277.073 315.849C278.25 315.658 279.482 315.51 280.584 315.455C281.132 315.428 281.724 315.42 282.303 315.458C282.77 315.488 283.643 315.569 284.549 315.922C284.645 315.959 284.739 315.998 284.83 316.039C285.322 314.321 286.585 313.397 286.879 313.187C287.5 312.743 288.115 312.493 288.462 312.365C289.221 312.083 290.049 311.9 290.745 311.777C291.024 311.727 291.317 311.681 291.619 311.64C288.821 310.281 286.441 308.837 284.357 306.942C284.16 306.762 283.967 306.581 283.779 306.396C283.08 307.419 282.049 308.329 280.546 308.862C280.002 309.056 279.438 309.157 279.219 309.197L279.198 309.2C278.836 309.265 278.409 309.331 277.949 309.396C277.024 309.526 275.818 309.673 274.435 309.829C271.659 310.141 268.054 310.499 264.295 310.832ZM226.815 348.025C226.815 348.025 226.817 348.022 226.821 348.017C226.817 348.022 226.815 348.025 226.815 348.025ZM226.441 342.357C226.433 342.349 226.428 342.344 226.428 342.344C226.428 342.344 226.432 342.348 226.441 342.357ZM286.779 342.593C286.778 342.595 286.785 342.628 286.803 342.684C286.79 342.619 286.78 342.591 286.779 342.593ZM289.489 344.954C289.494 344.952 289.45 344.941 289.345 344.925C289.433 344.947 289.485 344.955 289.489 344.954Z" stroke="black" stroke-width="10"/>
<path d="M357.204 304.28C357.299 304.308 357.39 304.329 357.476 304.346C357.396 304.218 357.301 304.084 357.189 303.948C356.549 303.17 355.782 302.837 355.331 302.712L355.328 302.712C355.359 302.792 355.416 302.912 355.511 303.059C355.816 303.525 356.392 304.045 357.204 304.28ZM354.973 302.641C354.973 302.641 354.975 302.641 354.979 302.641C354.975 302.641 354.974 302.641 354.973 302.641ZM355.293 302.607C355.293 302.607 355.294 302.612 355.296 302.621C355.294 302.611 355.293 302.607 355.293 302.607Z" stroke="black" stroke-width="10"/>
</g>
<defs>
<clipPath id="clip0_12_81">
<rect width="475" height="236.083" fill="white" transform="translate(12 132)"/>
</clipPath>
</defs>
</svg>
