<svg width="500" height="500" viewBox="0 0 500 500" fill="none" xmlns="http://www.w3.org/2000/svg">
<mask id="path-1-inside-1_12_81" fill="white">
<path d="M113.988 132.666C83.5805 138.332 62.5219 149.191 43.5408 168.928C28.6203 184.415 18.9881 202.169 13.5109 224.455C12.3777 228.988 12 235.409 12 250.235C12 268.272 12.1889 270.727 14.3608 279.132C26.165 324.46 61.8608 357.606 108.7 366.766C121.071 369.127 144.962 368.371 157.427 365.066C200.772 353.734 233.446 321.438 244.306 278.943C246.1 271.955 246.761 267.233 247.611 255.807C248.65 240.886 249.217 238.242 252.427 231.443C258.377 219.072 270.181 210.007 283.496 207.551C286.612 206.985 290.106 205.946 291.334 205.19L293.506 203.774L293.034 168.173C292.845 148.625 292.562 132.382 292.562 132.193C292.373 131.438 274.619 133.043 267.915 134.46C244.967 139.37 225.419 149.852 208.61 166.378C186.796 187.72 175.559 212.84 173.481 244.475C173.009 251.463 172.159 259.112 171.592 261.473C168.854 272.71 158.938 284.326 147.229 289.897C142.129 292.258 139.296 293.013 132.875 293.391C118.426 294.147 107.944 290.369 98.4066 280.832C88.8688 271.294 84.997 260.528 85.9414 246.836C86.6024 238.242 88.3966 232.954 93.0239 225.777C97.2734 219.261 102.562 214.823 111.155 210.668C117.954 207.362 118.615 207.268 128.625 207.174C136.652 207.174 140.052 207.551 143.735 208.968C148.74 210.951 157.427 216.239 159.316 218.506C159.977 219.261 160.827 219.922 161.205 219.922C161.583 219.922 162.81 216.617 164.038 212.556C169.798 193.292 180.564 174.122 193.312 160.807C195.862 158.068 198.034 155.424 198.034 154.857C198.034 152.402 176.409 140.881 166.399 138.048C149.873 133.327 147.417 132.949 131.93 132.571C123.337 132.382 115.31 132.477 113.988 132.666Z"/>
</mask>
<path d="M113.988 132.666C83.5805 138.332 62.5219 149.191 43.5408 168.928C28.6203 184.415 18.9881 202.169 13.5109 224.455C12.3777 228.988 12 235.409 12 250.235C12 268.272 12.1889 270.727 14.3608 279.132C26.165 324.46 61.8608 357.606 108.7 366.766C121.071 369.127 144.962 368.371 157.427 365.066C200.772 353.734 233.446 321.438 244.306 278.943C246.1 271.955 246.761 267.233 247.611 255.807C248.65 240.886 249.217 238.242 252.427 231.443C258.377 219.072 270.181 210.007 283.496 207.551C286.612 206.985 290.106 205.946 291.334 205.19L293.506 203.774L293.034 168.173C292.845 148.625 292.562 132.382 292.562 132.193C292.373 131.438 274.619 133.043 267.915 134.46C244.967 139.37 225.419 149.852 208.61 166.378C186.796 187.72 175.559 212.84 173.481 244.475C173.009 251.463 172.159 259.112 171.592 261.473C168.854 272.71 158.938 284.326 147.229 289.897C142.129 292.258 139.296 293.013 132.875 293.391C118.426 294.147 107.944 290.369 98.4066 280.832C88.8688 271.294 84.997 260.528 85.9414 246.836C86.6024 238.242 88.3966 232.954 93.0239 225.777C97.2734 219.261 102.562 214.823 111.155 210.668C117.954 207.362 118.615 207.268 128.625 207.174C136.652 207.174 140.052 207.551 143.735 208.968C148.74 210.951 157.427 216.239 159.316 218.506C159.977 219.261 160.827 219.922 161.205 219.922C161.583 219.922 162.81 216.617 164.038 212.556C169.798 193.292 180.564 174.122 193.312 160.807C195.862 158.068 198.034 155.424 198.034 154.857C198.034 152.402 176.409 140.881 166.399 138.048C149.873 133.327 147.417 132.949 131.93 132.571C123.337 132.382 115.31 132.477 113.988 132.666Z" stroke="black" stroke-width="20" mask="url(#path-1-inside-1_12_81)"/>
<mask id="path-2-inside-2_12_81" fill="white">
<path d="M306.632 167.039V201.98L310.693 203.868C312.865 204.907 315.981 206.607 317.492 207.457C319.098 208.401 325.047 211.706 330.713 214.728C344.595 222.094 344.122 221.811 350.261 225.777C362.442 233.709 368.486 241.17 373.302 254.579C384.351 284.892 385.012 286.403 390.678 294.052C394.739 299.529 397.477 301.985 401.821 304.534C405.221 306.517 405.693 307.745 403.049 307.745C399.555 307.745 396.816 305.951 389.734 299.341C382.84 292.825 379.346 291.03 379.346 294.241C379.346 296.319 386.145 305.384 392 310.956L396.816 315.489L392.944 315.016C390.772 314.733 386.806 313.128 383.879 311.334C374.624 305.29 375.097 305.384 371.13 308.973C368.108 311.711 366.598 312.278 361.876 312.656C358.76 312.939 354.51 314.072 352.433 315.111C340.345 321.249 340.628 321.249 338.173 319.549C336.945 318.794 335.812 317.377 335.812 316.433C335.34 310.011 334.962 309.162 332.318 309.162C329.674 309.162 330.902 304.534 336.284 294.147C342.139 283.004 342.8 281.304 341.573 279.509C340.912 278.376 339.967 278.848 336.568 281.965C331.279 286.875 328.069 288.481 322.308 289.331L317.681 290.086L318.342 287.347C320.986 277.243 321.647 270.727 320.703 266.194C319.57 261.001 317.87 258.829 316.359 260.717C315.792 261.378 315.131 265.722 314.754 270.255C313.998 280.359 312.582 284.042 307.104 289.897C304.744 292.447 302.855 295.091 302.855 295.846C302.855 297.074 304.177 299.246 311.637 310.011C313.148 312.183 314.187 314.922 314.187 316.811C314.187 318.51 314.659 320.21 315.32 320.588C317.02 321.721 318.909 318.038 318.909 313.506C318.909 310.011 318.153 308.028 315.131 303.496C311.071 297.452 310.504 295.469 312.77 295.469C313.526 295.469 316.17 298.585 318.625 302.268C322.969 308.784 323.158 309.445 322.969 315.111C322.686 323.043 321.175 326.065 317.209 326.443C315.415 326.632 313.809 327.482 313.243 328.615C312.676 329.559 310.976 331.07 309.465 331.826L306.632 333.337V350.901V368.466L317.303 367.899C363.765 365.349 404.749 333.525 419.764 288.386C424.485 274.127 425.618 264.022 425.618 234.748V208.59L443.183 208.401L460.748 208.118L463.108 201.508C464.431 197.825 467.925 188.098 470.946 179.788C473.968 171.478 478.407 159.107 480.862 152.402C483.223 145.603 485.584 139.181 486.15 137.954C486.622 136.726 487 134.932 487 133.988C487 132.099 485.678 132.099 396.816 132.099H306.632V167.039Z"/>
</mask>
<path d="M306.632 167.039V201.98L310.693 203.868C312.865 204.907 315.981 206.607 317.492 207.457C319.098 208.401 325.047 211.706 330.713 214.728C344.595 222.094 344.122 221.811 350.261 225.777C362.442 233.709 368.486 241.17 373.302 254.579C384.351 284.892 385.012 286.403 390.678 294.052C394.739 299.529 397.477 301.985 401.821 304.534C405.221 306.517 405.693 307.745 403.049 307.745C399.555 307.745 396.816 305.951 389.734 299.341C382.84 292.825 379.346 291.03 379.346 294.241C379.346 296.319 386.145 305.384 392 310.956L396.816 315.489L392.944 315.016C390.772 314.733 386.806 313.128 383.879 311.334C374.624 305.29 375.097 305.384 371.13 308.973C368.108 311.711 366.598 312.278 361.876 312.656C358.76 312.939 354.51 314.072 352.433 315.111C340.345 321.249 340.628 321.249 338.173 319.549C336.945 318.794 335.812 317.377 335.812 316.433C335.34 310.011 334.962 309.162 332.318 309.162C329.674 309.162 330.902 304.534 336.284 294.147C342.139 283.004 342.8 281.304 341.573 279.509C340.912 278.376 339.967 278.848 336.568 281.965C331.279 286.875 328.069 288.481 322.308 289.331L317.681 290.086L318.342 287.347C320.986 277.243 321.647 270.727 320.703 266.194C319.57 261.001 317.87 258.829 316.359 260.717C315.792 261.378 315.131 265.722 314.754 270.255C313.998 280.359 312.582 284.042 307.104 289.897C304.744 292.447 302.855 295.091 302.855 295.846C302.855 297.074 304.177 299.246 311.637 310.011C313.148 312.183 314.187 314.922 314.187 316.811C314.187 318.51 314.659 320.21 315.32 320.588C317.02 321.721 318.909 318.038 318.909 313.506C318.909 310.011 318.153 308.028 315.131 303.496C311.071 297.452 310.504 295.469 312.77 295.469C313.526 295.469 316.17 298.585 318.625 302.268C322.969 308.784 323.158 309.445 322.969 315.111C322.686 323.043 321.175 326.065 317.209 326.443C315.415 326.632 313.809 327.482 313.243 328.615C312.676 329.559 310.976 331.07 309.465 331.826L306.632 333.337V350.901V368.466L317.303 367.899C363.765 365.349 404.749 333.525 419.764 288.386C424.485 274.127 425.618 264.022 425.618 234.748V208.59L443.183 208.401L460.748 208.118L463.108 201.508C464.431 197.825 467.925 188.098 470.946 179.788C473.968 171.478 478.407 159.107 480.862 152.402C483.223 145.603 485.584 139.181 486.15 137.954C486.622 136.726 487 134.932 487 133.988C487 132.099 485.678 132.099 396.816 132.099H306.632V167.039Z" stroke="black" stroke-width="20" mask="url(#path-2-inside-2_12_81)"/>
<mask id="path-3-inside-3_12_81" fill="white">
<path d="M307.671 222.188C306.16 224.077 307.199 226.06 311.354 228.893C313.431 230.31 317.02 233.615 319.475 236.165C324.197 241.264 326.18 241.17 325.047 236.07C324.008 231.16 313.526 220.866 309.654 220.866C309.182 220.866 308.237 221.433 307.671 222.188Z"/>
</mask>
<path d="M307.671 222.188C306.16 224.077 307.199 226.06 311.354 228.893C313.431 230.31 317.02 233.615 319.475 236.165C324.197 241.264 326.18 241.17 325.047 236.07C324.008 231.16 313.526 220.866 309.654 220.866C309.182 220.866 308.237 221.433 307.671 222.188Z" stroke="black" stroke-width="20" mask="url(#path-3-inside-3_12_81)"/>
<mask id="path-4-inside-4_12_81" fill="white">
<path d="M350.732 264.967C349.505 266.95 348.277 269.594 347.899 270.727C346.766 275.449 349.694 277.338 352.338 273.655C354.604 270.349 360.365 273.56 364.897 280.548C366.975 284.042 367.353 284.231 368.675 282.909C371.413 280.265 368.014 273.843 360.554 267.139C356.965 264.022 353.849 261.473 353.471 261.473C353.188 261.473 351.96 263.078 350.732 264.967Z"/>
</mask>
<path d="M350.732 264.967C349.505 266.95 348.277 269.594 347.899 270.727C346.766 275.449 349.694 277.338 352.338 273.655C354.604 270.349 360.365 273.56 364.897 280.548C366.975 284.042 367.353 284.231 368.675 282.909C371.413 280.265 368.014 273.843 360.554 267.139C356.965 264.022 353.849 261.473 353.471 261.473C353.188 261.473 351.96 263.078 350.732 264.967Z" stroke="black" stroke-width="20" mask="url(#path-4-inside-4_12_81)"/>
<mask id="path-5-inside-5_12_81" fill="white">
<path d="M278.68 294.808C278.397 295.658 278.585 297.074 279.152 298.207C280.569 300.851 280.474 303.684 278.869 304.251C278.113 304.534 271.314 305.29 263.854 305.951L250.35 307.084L247.045 313.317C243.173 320.777 231.841 336.075 226.458 341.269C224.381 343.252 222.586 345.235 222.586 345.518C222.586 346.557 233.824 353.356 240.529 356.567C254.694 363.272 269.048 367.144 283.307 367.899L292.562 368.466L292.278 354.395C291.995 340.419 291.995 340.325 289.823 340.041C288.312 339.852 286.612 338.153 284.724 335.036C282.646 331.731 281.23 330.409 279.624 330.409C276.98 330.409 271.031 323.421 272.731 322.288C274.525 321.249 281.324 320.116 282.741 320.682C283.496 320.966 284.912 322.854 285.857 324.838C286.896 326.821 288.69 328.898 289.729 329.559C294.545 332.109 306.632 324.932 306.632 319.549C306.632 316.339 300.588 310.484 294.261 307.462C288.69 304.818 286.046 302.457 283.307 297.452C281.23 293.769 279.53 292.73 278.68 294.808ZM297.661 320.021C297.661 323.043 297.378 323.327 294.734 323.61C292.089 323.893 291.617 323.515 290.673 320.871C290.106 319.172 289.634 317.755 289.634 317.566C289.634 317 293.034 316.433 295.3 316.527C297.378 316.716 297.661 317.188 297.661 320.021Z"/>
</mask>
<path d="M278.68 294.808C278.397 295.658 278.585 297.074 279.152 298.207C280.569 300.851 280.474 303.684 278.869 304.251C278.113 304.534 271.314 305.29 263.854 305.951L250.35 307.084L247.045 313.317C243.173 320.777 231.841 336.075 226.458 341.269C224.381 343.252 222.586 345.235 222.586 345.518C222.586 346.557 233.824 353.356 240.529 356.567C254.694 363.272 269.048 367.144 283.307 367.899L292.562 368.466L292.278 354.395C291.995 340.419 291.995 340.325 289.823 340.041C288.312 339.852 286.612 338.153 284.724 335.036C282.646 331.731 281.23 330.409 279.624 330.409C276.98 330.409 271.031 323.421 272.731 322.288C274.525 321.249 281.324 320.116 282.741 320.682C283.496 320.966 284.912 322.854 285.857 324.838C286.896 326.821 288.69 328.898 289.729 329.559C294.545 332.109 306.632 324.932 306.632 319.549C306.632 316.339 300.588 310.484 294.261 307.462C288.69 304.818 286.046 302.457 283.307 297.452C281.23 293.769 279.53 292.73 278.68 294.808ZM297.661 320.021C297.661 323.043 297.378 323.327 294.734 323.61C292.089 323.893 291.617 323.515 290.673 320.871C290.106 319.172 289.634 317.755 289.634 317.566C289.634 317 293.034 316.433 295.3 316.527C297.378 316.716 297.661 317.188 297.661 320.021Z" stroke="black" stroke-width="20" mask="url(#path-5-inside-5_12_81)"/>
<mask id="path-6-inside-6_12_81" fill="white">
<path d="M355.077 300.663C353.66 301.701 352.905 303.118 352.905 305.007C352.905 307.273 353.282 307.745 355.171 307.745C358.287 307.745 360.648 305.195 360.27 302.174C359.893 299.246 357.91 298.679 355.077 300.663Z"/>
</mask>
<path d="M355.077 300.663C353.66 301.701 352.905 303.118 352.905 305.007C352.905 307.273 353.282 307.745 355.171 307.745C358.287 307.745 360.648 305.195 360.27 302.174C359.893 299.246 357.91 298.679 355.077 300.663Z" stroke="black" stroke-width="20" mask="url(#path-6-inside-6_12_81)"/>
</svg>
