<svg width="500" height="500" viewBox="0 0 500 500" fill="none" xmlns="http://www.w3.org/2000/svg">
<g clip-path="url(#clip0_12_81)">
<mask id="path-1-inside-1_12_81" fill="white">
<path d="M238.043 10.2864C236.992 10.3819 232.935 10.6683 228.972 11.0025C201.857 13.0075 171.781 21.3141 146.384 33.7739C88.3819 62.3216 44.9397 112.113 24.5076 173.505C10.1859 216.422 8.37187 262.442 19.1608 306.887C23.4573 324.503 29.2814 340.399 37.3493 356.583C49.4749 380.882 63.9875 401.028 83.0352 419.98C99.9347 436.784 116.977 449.387 138.889 461.322C161.565 473.686 189.731 482.899 215.415 486.384C228.877 488.198 241.48 489.296 249.5 489.296C260.528 489.296 283.49 486.862 295.281 484.475C344.643 474.45 388.276 450.151 421.884 413.965C448.189 385.704 466.616 353.48 477.261 317.103C483.706 295.048 486.761 273.374 486.761 249.648C486.714 234.945 486.284 228.691 484.327 214.847C476.593 160.377 449.955 109.631 409.711 72.8241C371.186 37.5452 323.352 15.9673 273.131 11.1935C265.731 10.4774 242.291 9.85678 238.043 10.2864ZM274.324 20.6935C310.701 25.2286 341.492 36.1131 371.52 55.1608C376.437 58.2638 389.852 67.8116 390.568 68.6708C390.711 68.8141 392.764 70.5804 395.103 72.5377C441.982 111.302 472.058 169.781 476.736 231.269C479.935 273.088 472.297 313.57 454.156 350.854C442.937 373.96 428.281 394.392 409.711 412.915C400.545 422.033 394.673 427.188 385.269 434.206C352.95 458.457 313.995 473.925 274.706 478.078C246.779 480.99 219.52 479.128 193.646 472.54C109.578 451.01 44.8442 383.269 26.6558 297.864C24.4598 287.648 24.1256 285.548 23.2186 277.814C20.9271 257.191 20.9271 241.342 23.2186 221.244C24.1256 213.319 24.603 210.359 26.3694 202.148C34.3895 164.387 50.3342 131.352 75.1106 101.181C80.6483 94.4497 95.0176 79.8894 101.51 74.3995C130.631 49.9095 162.09 33.8693 197.704 25.3241C207.49 22.9849 224.58 20.407 233.985 19.8342C241.241 19.4045 268.786 19.9774 274.324 20.6935Z"/>
</mask>
<path d="M238.043 10.2864L239.049 20.2357L238.998 20.2408L238.948 20.2454L238.043 10.2864ZM228.972 11.0025L229.813 20.9671L229.761 20.9715L229.71 20.9753L228.972 11.0025ZM146.384 33.7739L141.969 24.8017L141.98 24.7961L146.384 33.7739ZM24.5076 173.505L33.9959 176.663L33.9933 176.67L24.5076 173.505ZM19.1608 306.887L9.44561 309.256L9.44304 309.246L19.1608 306.887ZM37.3493 356.583L28.4015 361.048L28.3997 361.044L37.3493 356.583ZM83.0352 419.98L75.9842 427.071L75.9819 427.069L83.0352 419.98ZM138.889 461.322L143.673 452.54L143.677 452.542L138.889 461.322ZM215.415 486.384L214.079 496.295L214.07 496.294L215.415 486.384ZM295.281 484.475L297.272 494.275L297.265 494.276L295.281 484.475ZM421.884 413.965L414.557 407.16L414.564 407.152L421.884 413.965ZM477.261 317.103L486.86 319.908L486.859 319.912L477.261 317.103ZM486.761 249.648L496.761 249.616L496.761 249.632V249.648H486.761ZM484.327 214.847L494.227 213.441L494.228 213.447L484.327 214.847ZM409.711 72.8241L402.962 80.2033L402.958 80.1991L409.711 72.8241ZM273.131 11.1935L272.184 21.1486L272.176 21.1478L272.167 21.147L273.131 11.1935ZM274.324 20.6935L273.087 30.6166L273.064 30.6138L273.042 30.6109L274.324 20.6935ZM371.52 55.1608L366.183 63.6176L366.173 63.6114L366.164 63.6051L371.52 55.1608ZM390.568 68.6708L383.497 75.7419L383.176 75.4212L382.886 75.0727L390.568 68.6708ZM395.103 72.5377L388.731 80.2443L388.708 80.2257L388.686 80.2071L395.103 72.5377ZM476.736 231.269L466.765 232.031L466.765 232.028L476.736 231.269ZM454.156 350.854L445.16 346.487L445.164 346.479L454.156 350.854ZM409.711 412.915L416.773 419.995L416.764 420.004L409.711 412.915ZM385.269 434.206L379.267 426.207L379.278 426.199L379.288 426.191L385.269 434.206ZM274.706 478.078L275.757 488.022L275.75 488.023L275.743 488.024L274.706 478.078ZM193.646 472.54L191.178 482.231L191.165 482.228L193.646 472.54ZM26.6558 297.864L36.4325 295.763L36.4345 295.772L36.4364 295.781L26.6558 297.864ZM23.2186 277.814L13.2867 278.979L13.2831 278.949L13.2798 278.918L23.2186 277.814ZM23.2186 221.244L13.283 220.111L13.2835 220.107L23.2186 221.244ZM26.3694 202.148L36.1512 204.226L36.1485 204.239L36.1457 204.251L26.3694 202.148ZM75.1106 101.181L67.3824 94.8345L67.3881 94.8277L75.1106 101.181ZM101.51 74.3995L95.0532 66.7635L95.0634 66.7548L95.0737 66.7462L101.51 74.3995ZM197.704 25.3241L195.37 15.6001L195.379 15.5981L197.704 25.3241ZM233.985 19.8342L233.377 9.85267L233.385 9.85215L233.394 9.85165L233.985 19.8342ZM238.948 20.2454C237.982 20.3332 233.393 20.6652 229.813 20.9671L228.132 1.03788C232.476 0.671519 236.003 0.430653 237.137 0.327494L238.948 20.2454ZM229.71 20.9753C203.925 22.8819 175.09 30.8294 150.789 42.7516L141.98 24.7961C168.473 11.7987 199.788 3.13318 228.235 1.02973L229.71 20.9753ZM150.8 42.746C95.1992 70.1119 53.5834 117.809 33.9959 176.663L15.0192 170.347C36.296 106.417 81.5647 54.5313 141.969 24.8017L150.8 42.746ZM33.9933 176.67C20.2758 217.777 18.5263 261.882 28.8786 304.528L9.44304 309.246C-1.78251 263.003 0.0960585 215.067 15.0218 170.34L33.9933 176.67ZM28.876 304.517C32.9957 321.408 38.5628 336.604 46.2988 352.121L28.3997 361.044C20 344.195 13.9189 327.597 9.44561 309.256L28.876 304.517ZM46.297 352.118C57.9438 375.457 71.8199 394.714 90.0885 412.891L75.9819 427.069C56.155 407.341 41.006 386.307 28.4015 361.048L46.297 352.118ZM90.0862 412.889C106.28 428.991 122.55 441.035 143.673 452.54L134.106 470.103C111.405 457.739 93.5894 444.577 75.9842 427.071L90.0862 412.889ZM143.677 452.542C165.276 464.319 192.274 473.153 216.759 476.475L214.07 496.294C187.188 492.646 157.855 483.053 134.102 470.101L143.677 452.542ZM216.75 476.474C230.052 478.266 242.142 479.296 249.5 479.296V499.296C240.818 499.296 227.702 498.131 214.079 496.295L216.75 476.474ZM249.5 479.296C259.792 479.296 282.088 476.943 293.297 474.674L297.265 494.276C284.892 496.781 261.263 499.296 249.5 499.296V479.296ZM293.291 474.675C340.649 465.057 382.402 441.781 414.557 407.16L429.212 420.77C394.151 458.52 348.638 483.843 297.272 494.275L293.291 474.675ZM414.564 407.152C439.829 380.007 457.464 349.148 467.664 314.294L486.859 319.912C475.767 357.812 456.548 391.4 429.204 420.778L414.564 407.152ZM467.663 314.298C473.833 293.182 476.761 272.455 476.761 249.648H496.761C496.761 274.294 493.579 296.913 486.86 319.908L467.663 314.298ZM476.761 249.681C476.715 235.405 476.314 229.609 474.425 216.247L494.228 213.447C496.254 227.773 496.712 234.485 496.761 249.616L476.761 249.681ZM474.426 216.252C467.015 164.053 441.475 115.427 402.962 80.2033L416.46 65.4449C458.435 103.835 486.171 156.701 494.227 213.441L474.426 216.252ZM402.958 80.1991C365.976 46.3337 320.161 25.7091 272.184 21.1486L274.077 1.23834C326.543 6.22557 376.396 28.7567 416.465 65.4492L402.958 80.1991ZM272.167 21.147C268.86 20.8269 261.473 20.4982 254.144 20.3069C250.538 20.2128 247.058 20.1548 244.246 20.1461C242.838 20.1418 241.633 20.15 240.681 20.1704C240.206 20.1806 239.819 20.1933 239.519 20.2072C239.37 20.2141 239.255 20.2208 239.169 20.2266C239.08 20.2325 239.043 20.2362 239.049 20.2357L237.037 0.337167C239.948 0.0427459 247.639 0.130274 254.666 0.3137C261.969 0.50431 270.002 0.843956 274.094 1.23996L272.167 21.147ZM275.561 10.7703C313.347 15.4811 345.555 26.8478 376.877 46.7165L366.164 63.6051C337.43 45.3784 308.055 34.9761 273.087 30.6166L275.561 10.7703ZM376.857 46.704C379.569 48.4154 384.348 51.7193 388.41 54.6045C390.472 56.0687 392.429 57.4824 393.938 58.6018C394.686 59.1565 395.372 59.6741 395.921 60.1058C396.191 60.3175 396.486 60.5542 396.764 60.7901C396.837 60.8525 397.575 61.4593 398.25 62.269L382.886 75.0727C383.27 75.5342 383.6 75.8378 383.647 75.8813C383.703 75.934 383.747 75.9725 383.771 75.9938C383.796 76.0161 383.812 76.0296 383.816 76.0331C383.816 76.0332 383.745 75.9737 383.57 75.836C383.23 75.5689 382.711 75.1755 382.024 74.6657C380.663 73.6562 378.825 72.328 376.829 70.9099C372.775 68.0307 368.388 65.0092 366.183 63.6176L376.857 46.704ZM397.639 61.5998C397.521 61.4816 397.428 61.3952 397.405 61.374C397.369 61.3401 397.343 61.3163 397.334 61.308C397.315 61.2912 397.312 61.2888 397.334 61.3082C397.375 61.3448 397.45 61.4105 397.564 61.5093C397.788 61.7037 398.111 61.9816 398.511 62.3237C399.309 63.0061 400.38 63.914 401.52 64.8683L388.686 80.2071C386.595 78.4574 384.046 76.2912 383.497 75.7419L397.639 61.5998ZM401.476 64.8311C450.481 105.353 481.826 166.356 486.707 230.51L466.765 232.028C462.29 173.207 433.484 117.25 388.731 80.2443L401.476 64.8311ZM486.707 230.506C490.039 274.071 482.075 316.33 463.148 355.229L445.164 346.479C462.518 310.811 469.83 272.104 466.765 232.031L486.707 230.506ZM463.152 355.222C451.431 379.362 436.113 400.705 416.773 419.995L402.649 405.834C420.45 388.079 434.444 368.558 445.16 346.487L463.152 355.222ZM416.764 420.004C407.316 429.402 401.089 434.878 391.249 442.221L379.288 426.191C388.258 419.498 393.774 414.663 402.659 405.825L416.764 420.004ZM391.271 442.205C357.544 467.512 316.887 483.675 275.757 488.022L273.655 468.133C311.103 464.175 348.356 449.402 379.267 426.207L391.271 442.205ZM275.743 488.024C246.703 491.052 218.255 489.125 191.178 482.231L196.113 462.849C220.785 469.131 246.854 470.928 273.669 468.132L275.743 488.024ZM191.165 482.228C103.385 459.747 35.848 389.035 16.8751 299.947L36.4364 295.781C53.8405 377.503 115.771 442.273 196.127 462.853L191.165 482.228ZM16.8791 299.966C14.6295 289.5 14.2371 287.083 13.2867 278.979L33.1505 276.649C34.0142 284.013 34.2901 285.796 36.4325 295.763L16.8791 299.966ZM13.2798 278.918C10.9078 257.571 10.9046 240.971 13.283 220.111L33.1542 222.377C30.9497 241.712 30.9465 256.811 33.1574 276.71L13.2798 278.918ZM13.2835 220.107C14.2278 211.856 14.7583 208.574 16.593 200.045L36.1457 204.251C34.4477 212.145 34.0235 214.782 33.1537 222.381L13.2835 220.107ZM16.5876 200.071C24.9442 160.725 41.601 126.229 67.3825 94.8345L82.8387 107.527C59.0673 136.474 43.8347 168.049 36.1512 204.226L16.5876 200.071ZM67.3881 94.8277C73.3063 87.6341 88.0988 72.644 95.0532 66.7635L107.967 82.0355C101.936 87.1348 87.9903 101.265 82.833 107.534L67.3881 94.8277ZM95.0737 66.7462C125.337 41.2953 158.19 24.5214 195.37 15.6001L200.037 35.0481C165.991 43.2173 135.924 58.5238 107.946 82.0528L95.0737 66.7462ZM195.379 15.5981C205.699 13.1314 223.364 10.4626 233.377 9.85267L234.593 29.8157C225.797 30.3514 209.281 32.8385 200.028 35.0501L195.379 15.5981ZM233.394 9.85165C237.491 9.60908 246.595 9.65886 255.01 9.83639C263.292 10.0111 272.183 10.3333 275.607 10.776L273.042 30.6109C270.928 30.3376 263.277 30.0153 254.588 29.8319C246.032 29.6514 237.736 29.6296 234.576 29.8167L233.394 9.85165Z" fill="black" mask="url(#path-1-inside-1_12_81)"/>
<path d="M233.256 57.5V69.4473H233.555H233.614C233.547 67.7579 233.514 66.3053 233.576 65.215C233.605 64.697 233.669 63.923 233.894 63.1489C234.005 62.7632 234.237 62.0853 234.735 61.387C234.861 61.21 235.013 61.0204 235.193 60.8292H233.282V55.8292V50.1005V44.3719V41.5529C233.195 41.5538 233.11 41.5548 233.026 41.5558C233.06 42.0822 233.086 42.6366 233.109 43.2216C233.221 46.0808 233.256 50.4993 233.256 57.5ZM260.588 60.2571C260.168 60.3453 259.713 60.42 259.22 60.4832L259.475 60.8486L260.97 62.9952C260.97 62.9935 260.97 62.9917 260.97 62.99C260.97 61.6806 261.47 60.7355 261.714 60.3296C261.817 60.1579 261.924 60.0037 262.026 59.8675C261.545 60.0316 261.063 60.1575 260.588 60.2571ZM267.298 54.946C267.033 55.5131 266.66 56.249 266.091 56.995C266.776 56.4005 267.572 55.2379 267.953 53.319C267.769 53.8586 267.546 54.4209 267.298 54.946Z" stroke="black" stroke-width="10"/>
<path d="M296.997 63.5454C297.611 59.7993 299.462 56.6415 302.134 54.3599C300.128 55.6391 298.733 57.2949 297.814 59.2659C297.338 60.3018 297.226 60.6727 297.149 61.1204C297.069 61.5937 297.017 62.2591 296.997 63.5454ZM335.951 72.9732C335.296 76.0416 333.709 79.2989 330.909 81.4605C332.634 80.3411 334.045 78.7499 335.152 76.5204L335.159 76.5078L335.165 76.4954C336.672 73.5011 337.067 70.3713 336.191 67.1871C336.452 69.1582 336.342 71.1453 335.951 72.9732Z" stroke="black" stroke-width="10"/>
<path d="M150.027 67.1558C150.028 67.1557 150.024 67.1569 150.016 67.1597C150.023 67.1572 150.027 67.1559 150.027 67.1558ZM169.324 81.3889C167.941 80.4849 166.458 79.516 164.961 78.5375C165.022 78.637 165.085 78.7479 165.147 78.8691C165.294 79.1566 165.706 80.0053 165.706 81.1784C165.706 81.7015 165.625 82.1607 165.519 82.5379C165.629 82.4797 165.735 82.4246 165.835 82.3728C166.12 82.2249 166.407 82.0801 166.658 81.963C166.776 81.9079 166.952 81.8278 167.148 81.7516C167.242 81.7148 167.41 81.6517 167.618 81.5908C167.621 81.5899 167.625 81.5888 167.629 81.5875C167.746 81.5527 168.322 81.3819 169.06 81.3819C169.15 81.3819 169.238 81.3844 169.324 81.3889ZM152.151 73.093C152.151 73.0929 152.15 73.1012 152.148 73.119C152.15 73.1022 152.151 73.0932 152.151 73.093Z" stroke="black" stroke-width="10"/>
<path d="M375.177 83.3134C374.174 82.328 373.31 81.4877 372.57 80.7757C372.067 81.3311 371.497 81.9471 370.869 82.6135C368.59 85.0338 365.395 88.2878 361.582 92.0768L361.573 92.0859L352.739 100.819L352.892 100.962L358.352 95.6783L358.36 95.6708L358.368 95.6634C361.876 92.2968 364.246 90.085 365.774 88.8092C366.439 88.2543 367.336 87.5357 368.262 87.0886C368.268 87.0858 368.274 87.0827 368.281 87.0793C368.597 86.9261 370.044 86.2239 371.862 86.6299C373.034 86.8916 374.133 87.5681 374.901 88.6216C375.121 88.9235 375.291 89.2256 375.424 89.5151C375.46 89.2163 375.497 88.9194 375.534 88.626L376.086 84.2059L375.178 83.3137C375.178 83.3136 375.178 83.3135 375.177 83.3134ZM365.912 91.812C365.911 91.8144 365.91 91.8487 365.911 91.9077C365.913 91.8391 365.912 91.8096 365.912 91.812ZM374.78 110.471C374.337 109.91 374.103 109.367 373.987 109.047C373.788 110.631 373.621 111.979 373.48 113.125C374.666 112.859 375.99 112.555 377.428 112.22C376.103 111.866 375.222 111.032 374.78 110.471ZM401.138 107.587L396.839 108.533C397.371 108.722 398.084 109.074 398.734 109.723C400.249 111.238 400.211 113.048 400.197 113.442C400.176 114.048 400.048 114.509 399.996 114.688C399.878 115.089 399.734 115.391 399.689 115.485C399.571 115.732 399.448 115.943 399.385 116.05C399.235 116.303 399.048 116.594 398.859 116.882C398.467 117.477 397.911 118.288 397.245 119.243C395.907 121.159 394.048 123.754 391.978 126.57C391.976 126.573 391.973 126.576 391.971 126.579L387.191 133.149L387.297 133.248C389.081 130.942 391.444 127.842 394.019 124.433C398.176 118.878 402.308 113.401 404.41 110.672C403.834 110.133 403.214 109.549 402.599 108.966C402.597 108.965 402.596 108.963 402.594 108.961L401.138 107.587ZM384.354 136.961C384.354 136.961 384.356 136.959 384.36 136.955C384.356 136.959 384.354 136.961 384.354 136.961ZM390.781 110.954C390.789 110.94 390.787 110.942 390.778 110.958C390.779 110.957 390.78 110.955 390.781 110.954Z" stroke="black" stroke-width="10"/>
<path d="M104.829 131.574L103.016 129.74L102.808 129.975L99.0506 126.272L95.7566 123.026L95.7436 123.013L95.7307 123C94.8217 122.091 93.968 121.213 93.3266 120.526C93.0125 120.19 92.7116 119.859 92.4713 119.577C92.3597 119.446 92.2007 119.255 92.0469 119.044C91.9768 118.948 91.8355 118.75 91.6897 118.493C91.6179 118.367 91.4927 118.135 91.3731 117.832C91.3109 117.675 91.1518 117.261 91.0701 116.685C90.5991 117.201 90.1467 117.7 89.7198 118.174C90.0851 118.483 90.4709 118.817 90.877 119.175C93.1896 121.215 96.4812 124.313 101.02 128.709C101.022 128.711 101.024 128.713 101.026 128.715L109.822 137.175L109.847 137.147L109.857 137.136L109.868 137.124L110.091 136.883L109.145 135.938L109.136 135.928L109.126 135.918L104.829 131.574ZM112.41 90.1423C112.409 90.1428 112.407 90.1451 112.405 90.1491C112.409 90.1438 112.41 90.1416 112.41 90.1423Z" stroke="black" stroke-width="10"/>
<mask id="path-8-inside-2_12_81" fill="white">
<path d="M234.224 89.2462C197.99 93.2085 167.819 106.957 141.038 131.638C114.113 156.462 95.7815 192.648 91.3896 229.598C90.2438 239.193 90.2438 260.246 91.3896 269.364C93.8242 288.746 98.8845 305.121 107.955 323.166C125.093 357.06 153.832 383.651 189.397 398.498C210.975 407.52 237.374 411.817 260.241 410.098C291.653 407.711 319.771 397.256 344.978 378.59C350.802 374.246 361.256 364.842 366.173 359.447C382.452 341.736 395.103 319.824 402.025 297.435C403.696 291.992 406.322 280.44 407.42 273.518C408.804 265.068 409.377 250.364 408.756 239.575C408.088 228.452 407.849 226.304 405.797 216.47C399.352 185.535 385.364 159.279 363.118 136.603C349.465 122.663 337.292 113.736 320.106 105.095C305.402 97.6482 290.603 92.9698 273.751 90.3919C266.782 89.294 263.917 89.103 251.887 89.0075C244.297 88.912 236.324 89.0075 234.224 89.2462ZM263.631 97.3618C282.583 99.2713 299.96 104.284 316.812 112.734C319.962 114.261 323.256 116.266 324.163 117.078C327.505 120.229 328.555 125.337 326.694 129.442C325.548 132.02 322.445 134.884 320.058 135.505C319.055 135.791 312.658 136.078 305.832 136.126C293.563 136.269 293.372 136.269 290.746 137.51C288.073 138.799 287.118 139.754 283.777 144.575C280.578 149.206 280.817 149.158 261.101 149.302C251.696 149.397 244.01 149.588 244.01 149.731C244.01 149.922 244.869 151.45 245.872 153.168C248.163 157.035 252.126 161.427 256.136 164.626L259.191 167.06H278.048H296.952L298.241 168.158C299.817 169.543 299.912 171.452 298.432 173.075L297.334 174.221H278H258.666L256.327 175.701C252.651 178.088 247.638 183.817 245.442 188.161C244.392 190.261 243.533 192.314 243.533 192.648C243.533 193.221 248.88 193.317 277.427 193.317C315.523 193.317 313.995 193.173 316.621 196.802C318.292 199.093 318.769 201.289 318.005 203.533C317.241 205.92 315.714 207.638 313.518 208.641C311.704 209.452 309.985 209.548 292.226 209.548C281.581 209.548 271.46 209.786 269.694 210.025C265.445 210.646 259.096 212.889 255.372 215.038C245.586 220.766 238.998 229.216 235.56 240.435C234.415 244.206 234.271 245.399 234.271 252.035C234.224 257.668 234.415 260.151 235.035 262.442C236.467 267.503 238.282 271.656 240.907 275.666C246.827 284.736 255.277 290.942 265.349 293.711C268.834 294.618 270.601 294.714 294.422 294.952C318.53 295.239 319.867 295.286 320.822 296.146C322.206 297.387 322.158 299.965 320.774 300.92C319.819 301.588 316.668 301.683 295.759 301.683C273.704 301.683 271.555 301.731 268.261 302.59C257.377 305.359 249.452 312.616 245.872 323.023C240.048 340.018 250.264 358.922 267.736 363.457C269.98 364.03 273.131 364.221 281.294 364.221C293.372 364.221 296.093 364.651 299.817 367.038C304.352 369.95 307.455 376.347 306.882 381.407C306.452 384.796 304.161 388.998 301.153 391.719C298.91 393.771 297.907 394.296 293.611 395.633C288.025 397.352 278.334 399.5 270.505 400.837C266.209 401.553 262.533 401.696 250.694 401.696C232.696 401.696 227.158 401.123 213.219 397.686C204.864 395.633 190.065 390.334 186.867 388.281L185.769 387.613V327.701V267.789H207.251C219.091 267.789 228.734 267.646 228.734 267.407C228.734 267.216 228.4 265.879 228.018 264.447C226.729 259.578 226.251 252.942 226.824 247.691C227.397 242.535 229.116 235.947 230.643 232.94C231.168 231.889 231.598 230.839 231.598 230.553C231.598 230.266 224.055 230.028 208.827 229.98L186.008 229.837V170.402V110.967L191.02 108.771C203.48 103.281 219.282 99.1759 234.94 97.4095C240.191 96.8367 257.902 96.7889 263.631 97.3618ZM148.915 182.91L148.771 229.837L124.138 229.98L99.5051 230.075L100.126 226.018C102.704 209.93 107.382 195.322 114.591 180.905C119.985 170.116 126.048 160.759 133.638 151.593C137.648 146.819 147.96 136.03 148.628 136.03C148.819 136.03 148.962 157.131 148.915 182.91ZM369.277 156.08C386.033 177.802 395.915 201.766 399.972 230.314C401.166 238.907 401.166 260.198 399.925 268.505C396.631 291.229 390.282 309.608 379.54 327.749C367.844 347.465 351.374 364.746 332.327 377.254C327.076 380.691 316.716 386.658 316 386.658C315.809 386.658 316.859 385.56 318.244 384.224C323.591 379.163 326.121 373.101 326.121 365.319C326.073 355.915 321.777 348.133 313.947 343.455C308.314 340.113 306.739 339.874 288.932 339.874H273.083L271.937 338.681C270.505 337.249 270.457 336.103 271.746 334.432L272.701 333.191H297.478C317.91 333.191 322.874 333.048 326.121 332.427C334.857 330.804 340.92 327.462 347.221 320.874C352.377 315.432 355.528 309.56 357.199 302.161C357.962 298.724 357.819 288.842 356.912 285.214C353.38 271.226 343.593 260.915 329.844 256.714C326.455 255.711 325.5 255.663 300.246 255.377C271.317 255.09 272.51 255.234 272.51 252.035C272.51 248.884 271.842 248.98 295.472 248.646C313.184 248.455 317.48 248.264 320.822 247.548C340.92 243.394 357.055 231.03 366.173 212.985C367.988 209.405 370.709 201.432 371.616 197.088C373 190.405 372.952 177.276 371.472 170.641C370.184 164.626 367.033 156.653 364.073 151.736C363.166 150.256 362.402 148.729 362.402 148.394C362.45 147.583 364.55 149.97 369.277 156.08ZM149.01 315.289C149.01 341.402 148.819 362.789 148.628 362.789C147.864 362.789 135.787 350.09 131.92 345.269C117.312 326.842 106.809 304.786 102.035 282.588C101.128 278.244 100.221 273.756 100.078 272.563C99.9348 271.369 99.6961 269.842 99.5529 269.078L99.2665 267.789H124.138H149.01V315.289Z"/>
</mask>
<path d="M234.224 89.2462C197.99 93.2085 167.819 106.957 141.038 131.638C114.113 156.462 95.7815 192.648 91.3896 229.598C90.2438 239.193 90.2438 260.246 91.3896 269.364C93.8242 288.746 98.8845 305.121 107.955 323.166C125.093 357.06 153.832 383.651 189.397 398.498C210.975 407.52 237.374 411.817 260.241 410.098C291.653 407.711 319.771 397.256 344.978 378.59C350.802 374.246 361.256 364.842 366.173 359.447C382.452 341.736 395.103 319.824 402.025 297.435C403.696 291.992 406.322 280.44 407.42 273.518C408.804 265.068 409.377 250.364 408.756 239.575C408.088 228.452 407.849 226.304 405.797 216.47C399.352 185.535 385.364 159.279 363.118 136.603C349.465 122.663 337.292 113.736 320.106 105.095C305.402 97.6482 290.603 92.9698 273.751 90.3919C266.782 89.294 263.917 89.103 251.887 89.0075C244.297 88.912 236.324 89.0075 234.224 89.2462ZM263.631 97.3618C282.583 99.2713 299.96 104.284 316.812 112.734C319.962 114.261 323.256 116.266 324.163 117.078C327.505 120.229 328.555 125.337 326.694 129.442C325.548 132.02 322.445 134.884 320.058 135.505C319.055 135.791 312.658 136.078 305.832 136.126C293.563 136.269 293.372 136.269 290.746 137.51C288.073 138.799 287.118 139.754 283.777 144.575C280.578 149.206 280.817 149.158 261.101 149.302C251.696 149.397 244.01 149.588 244.01 149.731C244.01 149.922 244.869 151.45 245.872 153.168C248.163 157.035 252.126 161.427 256.136 164.626L259.191 167.06H278.048H296.952L298.241 168.158C299.817 169.543 299.912 171.452 298.432 173.075L297.334 174.221H278H258.666L256.327 175.701C252.651 178.088 247.638 183.817 245.442 188.161C244.392 190.261 243.533 192.314 243.533 192.648C243.533 193.221 248.88 193.317 277.427 193.317C315.523 193.317 313.995 193.173 316.621 196.802C318.292 199.093 318.769 201.289 318.005 203.533C317.241 205.92 315.714 207.638 313.518 208.641C311.704 209.452 309.985 209.548 292.226 209.548C281.581 209.548 271.46 209.786 269.694 210.025C265.445 210.646 259.096 212.889 255.372 215.038C245.586 220.766 238.998 229.216 235.56 240.435C234.415 244.206 234.271 245.399 234.271 252.035C234.224 257.668 234.415 260.151 235.035 262.442C236.467 267.503 238.282 271.656 240.907 275.666C246.827 284.736 255.277 290.942 265.349 293.711C268.834 294.618 270.601 294.714 294.422 294.952C318.53 295.239 319.867 295.286 320.822 296.146C322.206 297.387 322.158 299.965 320.774 300.92C319.819 301.588 316.668 301.683 295.759 301.683C273.704 301.683 271.555 301.731 268.261 302.59C257.377 305.359 249.452 312.616 245.872 323.023C240.048 340.018 250.264 358.922 267.736 363.457C269.98 364.03 273.131 364.221 281.294 364.221C293.372 364.221 296.093 364.651 299.817 367.038C304.352 369.95 307.455 376.347 306.882 381.407C306.452 384.796 304.161 388.998 301.153 391.719C298.91 393.771 297.907 394.296 293.611 395.633C288.025 397.352 278.334 399.5 270.505 400.837C266.209 401.553 262.533 401.696 250.694 401.696C232.696 401.696 227.158 401.123 213.219 397.686C204.864 395.633 190.065 390.334 186.867 388.281L185.769 387.613V327.701V267.789H207.251C219.091 267.789 228.734 267.646 228.734 267.407C228.734 267.216 228.4 265.879 228.018 264.447C226.729 259.578 226.251 252.942 226.824 247.691C227.397 242.535 229.116 235.947 230.643 232.94C231.168 231.889 231.598 230.839 231.598 230.553C231.598 230.266 224.055 230.028 208.827 229.98L186.008 229.837V170.402V110.967L191.02 108.771C203.48 103.281 219.282 99.1759 234.94 97.4095C240.191 96.8367 257.902 96.7889 263.631 97.3618ZM148.915 182.91L148.771 229.837L124.138 229.98L99.5051 230.075L100.126 226.018C102.704 209.93 107.382 195.322 114.591 180.905C119.985 170.116 126.048 160.759 133.638 151.593C137.648 146.819 147.96 136.03 148.628 136.03C148.819 136.03 148.962 157.131 148.915 182.91ZM369.277 156.08C386.033 177.802 395.915 201.766 399.972 230.314C401.166 238.907 401.166 260.198 399.925 268.505C396.631 291.229 390.282 309.608 379.54 327.749C367.844 347.465 351.374 364.746 332.327 377.254C327.076 380.691 316.716 386.658 316 386.658C315.809 386.658 316.859 385.56 318.244 384.224C323.591 379.163 326.121 373.101 326.121 365.319C326.073 355.915 321.777 348.133 313.947 343.455C308.314 340.113 306.739 339.874 288.932 339.874H273.083L271.937 338.681C270.505 337.249 270.457 336.103 271.746 334.432L272.701 333.191H297.478C317.91 333.191 322.874 333.048 326.121 332.427C334.857 330.804 340.92 327.462 347.221 320.874C352.377 315.432 355.528 309.56 357.199 302.161C357.962 298.724 357.819 288.842 356.912 285.214C353.38 271.226 343.593 260.915 329.844 256.714C326.455 255.711 325.5 255.663 300.246 255.377C271.317 255.09 272.51 255.234 272.51 252.035C272.51 248.884 271.842 248.98 295.472 248.646C313.184 248.455 317.48 248.264 320.822 247.548C340.92 243.394 357.055 231.03 366.173 212.985C367.988 209.405 370.709 201.432 371.616 197.088C373 190.405 372.952 177.276 371.472 170.641C370.184 164.626 367.033 156.653 364.073 151.736C363.166 150.256 362.402 148.729 362.402 148.394C362.45 147.583 364.55 149.97 369.277 156.08ZM149.01 315.289C149.01 341.402 148.819 362.789 148.628 362.789C147.864 362.789 135.787 350.09 131.92 345.269C117.312 326.842 106.809 304.786 102.035 282.588C101.128 278.244 100.221 273.756 100.078 272.563C99.9348 271.369 99.6961 269.842 99.5529 269.078L99.2665 267.789H124.138H149.01V315.289Z" stroke="black" stroke-width="20" mask="url(#path-8-inside-2_12_81)"/>
<path d="M245.886 113.185C245.884 113.153 245.881 113.123 245.877 113.097C245.759 112.901 245.621 112.816 245.539 112.779C245.474 112.749 245.306 112.691 245.06 112.706C245.001 112.71 244.936 112.718 244.868 112.732L245.06 112.907L245.535 113.338L245.602 113.4L245.852 113.627C245.854 113.616 245.857 113.606 245.859 113.594C245.881 113.479 245.889 113.372 245.889 113.281C245.889 113.247 245.888 113.215 245.886 113.185ZM245.06 112.976L244.813 112.745C244.777 112.754 244.74 112.764 244.702 112.776C244.699 112.778 244.696 112.781 244.691 112.784C244.673 112.797 244.642 112.821 244.605 112.859C244.562 112.903 244.512 112.965 244.466 113.049C244.358 113.246 244.344 113.432 244.368 113.571C244.379 113.64 244.405 113.723 244.452 113.811C244.461 113.828 244.471 113.846 244.483 113.864C244.528 113.936 244.589 114.011 244.67 114.082C244.817 114.211 244.952 114.263 245.022 114.283C245.033 114.28 245.046 114.277 245.06 114.273C245.089 114.264 245.121 114.254 245.157 114.241C245.165 114.238 245.173 114.235 245.182 114.232C245.197 114.227 245.212 114.22 245.228 114.214C245.344 114.167 245.468 114.102 245.591 114.019C245.662 113.97 245.724 113.921 245.777 113.876C245.795 113.831 245.816 113.771 245.835 113.699L245.542 113.425L245.476 113.364L245.06 112.976Z" stroke="black" stroke-width="10"/>
<path d="M263.026 112.673C263.001 112.671 262.972 112.669 262.94 112.669C262.928 112.669 262.915 112.669 262.902 112.669C262.901 112.669 262.9 112.669 262.899 112.669C262.827 112.67 262.751 112.675 262.674 112.687L262.824 112.856L262.848 112.884L263.039 113.101L263.115 113.187L263.466 113.584C263.464 113.54 263.459 113.49 263.45 113.435C263.425 113.284 263.372 113.136 263.296 113.001C263.278 112.969 263.258 112.938 263.238 112.908C263.218 112.878 263.196 112.849 263.174 112.822C263.119 112.755 263.068 112.707 263.026 112.673ZM263.446 113.818L262.96 113.348L262.872 113.262L262.741 113.136L262.717 113.112L262.359 112.766C262.357 112.767 262.355 112.768 262.353 112.768C262.144 112.993 262.044 113.202 262 113.324C261.95 113.461 261.949 113.542 261.95 113.565C261.95 113.59 261.954 113.631 261.981 113.7C262.003 113.754 262.05 113.851 262.146 113.967C262.161 113.985 262.178 114.005 262.197 114.024C262.216 114.043 262.236 114.06 262.254 114.075C262.27 114.088 262.286 114.1 262.301 114.112C262.307 114.117 262.314 114.122 262.32 114.126C262.407 114.189 262.479 114.224 262.523 114.241C262.592 114.268 262.631 114.271 262.651 114.271C262.669 114.272 262.737 114.272 262.857 114.229C262.977 114.185 263.203 114.078 263.441 113.835C263.443 113.83 263.444 113.824 263.446 113.818ZM263.425 113.879C263.425 113.879 263.425 113.877 263.427 113.874C263.425 113.877 263.424 113.879 263.425 113.879ZM262.451 112.736L262.757 113.017L262.782 113.04L262.946 113.191L262.997 113.239L262.949 113.187L262.791 113.018L262.767 112.992L262.511 112.719C262.49 112.725 262.47 112.73 262.451 112.736Z" stroke="black" stroke-width="10"/>
<path d="M280.731 113.278C280.732 113.225 280.73 113.18 280.727 113.146C280.671 113.017 280.614 112.93 280.576 112.88C280.558 112.857 280.545 112.841 280.537 112.833C280.53 112.825 280.525 112.819 280.52 112.814C280.512 112.807 280.507 112.803 280.506 112.802C280.506 112.802 280.506 112.802 280.506 112.801C280.505 112.801 280.503 112.8 280.5 112.799C280.496 112.797 280.488 112.793 280.475 112.789C280.452 112.78 280.403 112.764 280.325 112.751C280.234 112.736 280.059 112.717 279.823 112.746L280.226 113.1L280.298 113.163L280.513 113.353L280.546 113.381L280.711 113.526C280.719 113.47 280.725 113.414 280.729 113.36C280.729 113.346 280.73 113.332 280.73 113.319C280.731 113.305 280.731 113.291 280.731 113.278ZM280.132 113.19L279.681 112.768C279.624 112.778 279.564 112.791 279.502 112.808C279.497 112.809 279.492 112.81 279.488 112.812C279.48 112.815 279.468 112.821 279.455 112.829C279.432 112.843 279.407 112.861 279.381 112.884C279.373 112.891 279.364 112.899 279.356 112.908C279.289 112.976 279.231 113.07 279.198 113.188C279.164 113.307 279.151 113.467 279.197 113.649C279.209 113.699 279.225 113.745 279.242 113.787C279.246 113.796 279.249 113.804 279.253 113.812C279.278 113.87 279.307 113.92 279.336 113.962C279.354 113.988 279.371 114.01 279.388 114.029C279.399 114.04 279.41 114.05 279.421 114.059C279.545 114.165 279.65 114.217 279.707 114.24C279.767 114.264 279.806 114.27 279.831 114.271C279.835 114.271 279.839 114.271 279.842 114.271C279.854 114.272 279.884 114.272 279.93 114.264C279.969 114.257 280.02 114.244 280.083 114.221C280.2 114.179 280.4 114.083 280.616 113.889C280.636 113.837 280.657 113.773 280.676 113.699L280.391 113.432L280.361 113.404L280.205 113.258L280.132 113.19Z" stroke="black" stroke-width="10"/>
<path d="M244.295 123.596C244.293 123.595 244.292 123.595 244.294 123.596L244.295 123.596ZM280.987 123.446C281.034 123.434 281.055 123.427 281.053 123.426C281.052 123.425 281.028 123.431 280.987 123.446ZM281.257 128.063C281.341 128.094 281.391 128.106 281.396 128.104C281.4 128.102 281.358 128.086 281.257 128.063Z" stroke="black" stroke-width="10"/>
<path d="M243.547 169.467C239.055 165.019 236.37 161.255 233.821 155.745C234.059 158.059 234.188 160.551 234.112 162.29C234.075 163.387 234.012 164.513 233.844 165.49C233.725 166.185 233.369 168.187 231.707 169.639C231.683 169.659 231.66 169.679 231.637 169.699H234.211V174.699V178.374C234.211 180.349 234.06 182.534 233.811 184.684C236.588 178.785 239.853 174.207 244.221 170.134L243.549 169.469L243.547 169.467ZM224.96 170.293C224.158 169.899 223.442 169.405 222.916 169.028L222.895 169.014L222.874 168.999C221.07 167.682 220.49 167.375 220.144 167.247C219.923 167.166 219.599 167.072 217.958 167.048C216.63 167.049 216.237 167.117 216.099 167.151C216.069 167.159 216.045 167.166 215.981 167.196C215.893 167.239 215.73 167.327 215.41 167.535C214.851 167.896 214.63 168.199 214.5 168.463C214.348 168.772 214.161 169.363 214.161 170.498C214.161 171.525 214.338 171.856 214.4 171.959C214.475 172.087 214.732 172.454 215.725 173.045C216.392 173.421 216.66 173.511 216.821 173.553C216.995 173.598 217.325 173.659 218.191 173.661C219.447 173.638 219.757 173.533 219.898 173.478C220.094 173.401 220.515 173.192 221.706 172.201C222.571 171.474 223.544 170.907 224.435 170.511C224.591 170.442 224.767 170.368 224.96 170.293ZM223.98 163.844C223.98 163.844 223.981 163.84 223.983 163.831C223.981 163.84 223.98 163.844 223.98 163.844Z" stroke="black" stroke-width="10"/>
<path d="M425.973 141.194C425.889 141.246 425.804 141.298 425.718 141.351C423 143.014 418.409 145.553 410.713 149.733L410.702 149.739C407.312 151.57 404.246 153.264 401.983 154.55C402.219 155.012 402.468 155.498 402.725 156.001C402.815 155.801 402.899 155.647 402.957 155.547C403.195 155.132 403.445 154.831 403.589 154.668C403.881 154.337 404.169 154.089 404.329 153.956C404.678 153.667 405.064 153.396 405.384 153.182C406.055 152.732 406.886 152.23 407.678 151.78C408.466 151.333 409.325 150.875 410.057 150.533C410.396 150.375 410.859 150.17 411.335 150.016C411.537 149.951 412.006 149.805 412.588 149.747C412.869 149.718 413.453 149.679 414.164 149.825C414.436 149.881 414.814 149.983 415.233 150.172C415.235 150.155 415.237 150.139 415.238 150.122C415.28 149.727 415.46 148.321 416.678 147.103C417.014 146.767 417.337 146.545 417.391 146.508C417.394 146.507 417.395 146.505 417.397 146.504C417.507 146.428 417.605 146.366 417.665 146.328C417.79 146.251 417.917 146.177 418.02 146.118C418.234 145.996 418.498 145.851 418.777 145.7C419.335 145.399 420.055 145.021 420.8 144.636L423.538 143.173L426.242 141.728C426.151 141.546 426.061 141.368 425.973 141.194ZM413.448 186.215C413.448 186.215 413.451 186.214 413.459 186.21C413.452 186.213 413.449 186.215 413.448 186.215ZM398.53 156.589C398.515 156.6 398.518 156.599 398.534 156.587C398.533 156.588 398.531 156.589 398.53 156.589Z" stroke="black" stroke-width="10"/>
<path d="M83.8203 179.894C83.0064 180.085 81.7738 180.168 80.4873 179.542C80.4331 179.517 80.3821 179.492 80.34 179.472C80.2288 179.419 80.0951 179.353 79.9527 179.282C79.6636 179.138 79.2739 178.942 78.8184 178.711C78.1072 178.351 77.2065 177.892 76.2248 177.392C75.9463 177.251 75.6613 177.105 75.3723 176.958L75.3404 176.942L75.3087 176.925C72.6842 175.542 66.8902 172.477 62.4694 170.075C61.091 169.333 59.7842 168.635 58.637 168.026C58.5425 168.215 58.4469 168.407 58.3503 168.603C59.4467 169.098 60.7273 169.708 62.1882 170.429C66.5058 172.557 72.667 175.777 80.8636 180.174L80.874 180.18C81.649 180.598 82.3947 180.993 83.086 181.354C83.2365 181.055 83.3935 180.743 83.5568 180.419C83.643 180.247 83.7308 180.073 83.8203 179.894ZM97.2946 152.02C97.2943 152.02 97.2918 152.029 97.2878 152.045C97.2928 152.028 97.2948 152.02 97.2946 152.02Z" stroke="black" stroke-width="10"/>
<path d="M67.7796 209.422L68.0708 207.493C67.0457 207.843 65.9874 208.204 64.904 208.573C65.5024 208.722 66.1513 208.993 66.7848 209.465C67.1251 209.719 67.4109 209.993 67.651 210.274L67.7796 209.422ZM64.542 218.3C64.544 218.299 64.5189 218.304 64.4606 218.319C64.5109 218.308 64.54 218.301 64.542 218.3ZM64.2864 233.894C64.2864 233.578 64.3129 233.184 64.3528 232.761C63.706 233.205 62.7538 233.643 61.505 233.643C61.4314 233.643 61.3593 233.642 61.289 233.638C61.6426 233.912 62.0035 234.192 62.3719 234.478L62.3896 234.491L62.4072 234.505C63.1038 235.055 63.9201 235.695 64.7881 236.373C64.5171 235.711 64.3363 234.974 64.2933 234.157L64.2864 234.026V233.894ZM44.2814 224.752C44.2815 224.752 44.2817 224.743 44.2814 224.727C44.281 224.745 44.2812 224.753 44.2814 224.752ZM56.9724 226.673C56.9731 226.671 56.974 226.668 56.9748 226.665C56.9663 226.69 56.9657 226.694 56.9724 226.673Z" stroke="black" stroke-width="10"/>
<path d="M434.888 203.656L434.879 203.659C433.091 204.297 431.402 205.501 429.973 207.216C431.123 206.234 432.446 205.403 433.949 204.761C435.741 203.99 437.743 203.672 439.546 203.647C441.244 203.624 443.154 203.857 444.899 204.527C444.73 204.434 444.561 204.346 444.391 204.264C443.288 203.736 441.553 203.303 439.592 203.182C437.614 203.06 435.917 203.286 434.888 203.656ZM446.962 243.979C448.622 243.141 450.091 241.993 451.314 240.493C449.07 242.526 446.426 243.951 443.46 244.419C440.595 244.871 437.77 244.376 435.151 243.152C435.978 243.754 436.705 244.149 437.41 244.424C438.542 244.866 439.936 245.126 442.078 245.126C443.735 245.126 444.245 245.065 444.61 244.979C444.983 244.891 445.468 244.714 446.962 243.979Z" stroke="black" stroke-width="10"/>
</g>
<defs>
<clipPath id="clip0_12_81">
<rect width="475" height="479.296" fill="white" transform="translate(12 10)"/>
</clipPath>
</defs>
</svg>
