<svg width="500" height="500" viewBox="0 0 500 500" fill="none" xmlns="http://www.w3.org/2000/svg">
<mask id="path-1-inside-1_12_81" fill="white">
<path d="M236.637 162.227C214.928 166.031 197.116 176.236 182.457 193.399L179.21 197.296L174.943 196.09C168.634 194.327 163.624 195.255 156.388 199.708C152.863 201.841 147.018 204.439 143.4 205.46C134.957 207.965 132.638 209.263 128.556 213.438C125.866 216.221 124.381 216.964 120.299 217.52C113.898 218.355 109.63 220.396 104.157 225.313C99.889 229.21 94.7865 231.343 89.9622 231.343C84.8597 231.343 77.9945 234.219 73.1702 238.394C62.223 247.764 52.6673 250.919 46.7298 247.208C44.1322 245.631 43.6683 244.703 43.6683 241.827C43.6683 237.095 46.1732 233.384 52.7601 227.911C60.0892 221.973 62.223 218.726 62.223 213.809C62.223 205.924 58.6976 202.491 48.2142 200.079C44.1322 199.244 39.8646 197.388 36.9886 195.44C34.0199 193.492 31.6077 192.564 30.5872 192.842C28.4535 193.585 27.4329 198.409 28.3607 204.254C29.1956 209.727 34.391 215.201 39.679 216.036C46.5443 217.242 47.1009 217.984 42.9261 220.489C33.1849 226.148 28.2679 237.095 31.1439 246.744C33.9271 256.392 40.3285 260.845 52.2962 261.495C55.9144 261.773 58.8831 262.051 58.8831 262.144C59.0687 262.423 61.7591 272.442 62.7796 276.339C63.429 278.843 58.4193 281.348 54.0589 280.699C50.2552 280.142 48.1214 281.998 46.3587 287.286C45.7093 289.42 44.6888 291.461 44.2249 291.832C43.7611 292.11 41.9056 291.461 40.1429 290.255C37.0814 288.214 36.6175 288.121 33.7415 289.327C29.5667 291.09 28.0824 292.296 23.3509 297.491C20.9388 300.089 18.9906 303.243 18.5267 305.377C18.1556 307.232 17.5062 309.923 17.1351 311.314C16.764 313.077 17.1351 314.283 18.5267 315.675C20.1038 317.252 21.7738 317.623 27.7113 317.808C41.0706 318.179 40.9779 318.179 44.596 314.005C47.5648 310.572 48.307 310.201 52.2035 310.201C55.6361 310.201 57.306 309.551 60.6458 307.047C66.3978 302.686 70.2943 301.573 76.2318 302.593C81.7982 303.614 85.3236 302.872 93.1165 298.883C97.9408 296.47 98.7757 295.635 101.281 290.44L103.971 284.688L111.95 283.668C117.145 282.925 120.949 282.833 122.897 283.389C124.474 283.946 129.855 284.317 134.865 284.41C142.75 284.503 145.997 285.245 144.606 286.636C144.327 286.822 139.689 287.379 134.308 287.75C120.392 288.863 118.908 290.718 124.938 299.717C127.257 303.243 129.02 304.82 130.783 305.191C132.36 305.562 134.03 306.861 134.957 308.531C136.813 311.685 141.544 314.84 144.327 314.84C146.276 314.84 157.965 310.572 163.16 307.882C164.83 307.047 167.15 306.49 168.17 306.768C170.49 307.418 174.943 305.284 175.685 303.243C176.613 300.924 178.468 301.666 181.437 305.655C191.178 318.922 209.918 331.26 227.36 335.992C239.884 339.425 249.718 340.167 261.036 338.59C282.931 335.435 300.372 326.529 315.123 310.85C319.298 306.49 322.452 303.8 323.195 304.078C323.751 304.449 325.328 305.284 326.627 306.026C327.926 306.768 329.596 307.139 330.524 306.861C331.359 306.675 335.997 308.067 340.822 310.201C345.646 312.242 350.841 314.19 352.326 314.468C355.944 315.211 360.118 312.984 363.366 308.809C364.664 307.047 366.613 305.562 367.54 305.562C369.21 305.562 376.447 296.842 376.725 294.337C377.374 289.791 374.777 287.935 367.54 287.935C360.49 287.935 354.367 286.822 354.738 285.709C354.923 285.059 358.449 284.595 364.108 284.503C369.025 284.41 374.498 283.946 376.168 283.389C378.209 282.833 381.92 282.925 386.93 283.668L394.537 284.781L396.857 289.327C400.104 295.728 401.495 297.12 407.34 299.717C415.226 303.336 417.267 303.707 422.462 302.686C428.771 301.48 431.461 302.222 437.213 306.583C441.295 309.551 442.78 310.201 446.398 310.201C450.387 310.201 451.036 310.572 454.098 314.097L457.345 318.087L467.828 317.808C477.477 317.53 478.497 317.344 480.538 315.303C482.858 313.077 482.858 312.984 481.281 309.737C480.446 307.882 479.703 305.469 479.703 304.356C479.703 303.15 477.662 300.089 474.786 297.12C467.272 288.956 461.891 287.008 457.716 290.811C455.118 293.316 453.17 292.11 452.243 287.471C451.315 282.554 448.532 280.235 444.357 280.792C439.904 281.348 434.616 278.472 435.636 276.06C437.77 271.05 438.79 267.711 438.883 265.484C438.883 262.237 439.811 261.773 447.326 261.495C456.417 261.124 462.54 257.598 465.973 250.733C471.261 240.342 467.643 228.467 456.788 221.046C451.964 217.706 451.964 217.799 459.943 215.665C468.014 213.531 472.838 204.439 470.241 196.553C468.849 192.286 466.53 191.358 463.654 194.049C460.499 196.832 454.562 199.522 449.83 200.264C442.13 201.378 437.492 205.552 436.378 212.232C435.636 217.242 437.399 220.303 445.099 227.261C455.861 236.91 457.623 240.899 453.356 245.909C451.408 248.135 450.48 248.507 446.119 248.414C440.089 248.321 434.708 245.909 427.75 240.064C420.607 234.219 417.081 232.55 408.917 231.436C400.661 230.323 397.785 229.024 393.888 224.849C390.177 220.86 384.982 218.355 379.23 217.706C375.148 217.242 373.663 216.407 369.674 212.882C366.427 209.913 363.18 207.965 359.469 206.851C349.635 203.697 346.666 202.491 341.1 199.058C335.997 195.904 334.977 195.626 328.483 195.626H321.432L313.825 188.111C292.672 166.959 264.191 157.403 236.637 162.227ZM34.391 197.574C36.0609 199.522 41.0706 201.47 48.5853 203.233C56.3783 204.996 59.4398 208.057 59.4398 214.18C59.4398 217.984 59.1615 218.448 51.9251 224.942C47.8431 228.653 43.6683 233.199 42.6478 235.147C37.7308 244.796 43.39 252.681 54.1517 251.383C60.182 250.733 66.9544 247.393 73.263 242.012C80.0355 236.26 82.5404 235.054 90.3333 234.219C98.9613 233.199 100.91 232.364 106.661 227.261C112.228 222.344 116.681 220.211 121.691 220.211C124.567 220.211 126.144 219.376 130.411 215.665C135.236 211.49 141.915 208.15 145.719 208.15C147.482 208.15 157.594 203.048 160.006 200.914C162.511 198.594 174.757 198.78 179.118 201.099C184.869 204.161 199.249 216.314 206.207 224.014C217.34 236.168 221.701 243.961 221.793 251.29C221.886 254.444 224.855 266.505 226.339 269.288C226.896 270.308 227.36 272.164 227.36 273.37C227.36 274.669 228.844 277.452 230.7 279.678C232.462 281.812 234.596 284.781 235.245 286.173C235.988 287.564 238.307 290.162 240.348 291.925C244.523 295.45 244.059 296.842 239.049 295.914C235.802 295.264 233.112 292.852 228.102 286.173C223.185 279.586 222.535 280.699 226.525 288.585C229.493 294.337 231.071 296.378 234.318 298.511C238.864 301.295 238.956 302.779 234.874 302.779C231.163 302.779 226.154 300.552 222.257 297.12L218.917 294.151L215.949 296.285C213.722 297.955 211.31 298.604 205.558 299.068C201.476 299.439 196.281 300.46 193.961 301.295C188.302 303.243 184.962 303.15 183.756 301.016C182.55 298.697 182.55 293.78 183.756 293.038C184.869 292.388 185.055 289.698 184.035 289.884C180.045 290.533 180.045 288.028 184.035 283.575C186.91 280.328 189.323 275.875 189.323 274.019C189.323 273.648 186.91 273.834 184.035 274.576C177.633 276.06 175.407 276.153 173.551 274.947C172.438 274.205 172.438 273.741 173.829 270.772C175.685 266.876 177.077 259.175 175.685 260.567C175.128 261.031 174.015 263.721 173.087 266.319C171.417 271.7 169.376 273.555 163.995 275.04L160.563 275.967L163.439 281.256C165.109 284.132 167.057 287.471 167.799 288.677C168.727 290.162 169.005 292.017 168.541 294.986C167.892 299.717 168.634 299.717 171.046 295.079L172.809 291.925L169.376 285.152C165.758 278.008 165.758 275.596 169.098 276.06C170.675 276.246 172.067 278.101 174.664 283.297C176.613 287.1 178.19 291.275 178.19 292.481C178.19 293.687 176.891 296.749 175.314 299.254C172.809 303.057 171.974 303.707 169.376 303.707C167.706 303.707 161.954 305.562 156.574 307.882C151.193 310.201 145.719 312.056 144.513 312.056C142.101 312.056 137.369 308.809 137.369 307.232C137.369 305.377 134.401 302.779 132.267 302.779C130.968 302.779 129.391 301.48 127.721 298.883C124.01 293.223 124.66 292.11 131.71 292.11H137.648L141.266 297.398C143.307 300.367 145.534 302.779 146.276 302.779C148.317 302.779 157.687 298.697 158.151 297.584C159.078 295.172 155.089 288.956 151.564 287.1C147.482 285.059 141.637 279.029 140.617 275.967C139.596 272.72 138.483 274.669 138.947 278.843L139.503 282.647L132.174 281.905C128.185 281.441 119.928 281.07 113.991 281.07C103.971 280.977 102.951 280.792 101.002 278.843C99.1468 276.988 98.8685 275.875 98.9613 269.288C99.054 259.918 97.5697 261.773 96.6419 272.164C96.1781 277.916 95.5286 279.957 93.4876 282.647C88.4779 289.234 81.4271 292.574 72.057 292.667C62.3158 292.759 62.7796 293.966 72.7064 294.151C84.0247 294.429 86.8079 293.687 91.5394 288.863C93.9515 286.358 95.9925 285.152 97.7552 285.152C99.1468 285.152 100.26 285.338 100.26 285.523C100.26 285.709 99.4251 287.75 98.4046 290.069C96.6419 293.966 95.807 294.708 89.3128 297.676C82.5404 300.924 81.891 301.016 76.5101 300.274C69.6449 299.254 66.2122 300.089 60.182 304.263C56.471 306.768 54.6156 307.418 51.0902 307.418C46.9154 307.418 46.3587 307.696 43.1117 311.592C39.679 315.86 38.3802 316.324 32.6283 315.211C30.2161 314.654 29.7523 314.19 29.7523 311.871C29.7523 309.737 30.8656 307.974 34.762 304.356C37.4525 301.666 40.9779 298.79 42.555 297.955C44.5033 296.934 46.4515 294.429 48.3997 290.533C51.8324 283.76 52.4818 283.111 56.0072 283.853C59.1615 284.503 65.9339 280.421 65.9339 277.916C65.8411 277.081 65.099 274.019 64.0785 271.236C63.0579 268.453 62.3158 264.371 62.223 262.33V258.433L56.1927 258.99C37.7308 260.382 28.5462 247.393 36.7103 231.343C38.473 227.911 40.4212 225.777 44.1322 223.458C48.5853 220.582 51.1829 217.149 49.8841 215.943C49.6058 215.665 46.637 214.83 43.2044 214.18C36.2464 212.696 33.8343 211.026 31.9788 206.573C29.1956 200.079 31.0511 193.399 34.391 197.574ZM467.643 201.841C467.643 206.016 467.272 206.851 464.118 210.006C461.334 212.789 459.664 213.716 456.046 214.18C449.645 215.015 449.088 215.294 449.088 217.335C449.088 218.448 451.129 220.675 454.469 223.179C461.242 228.282 464.86 234.962 464.86 242.198C464.86 253.516 456.603 259.825 443.058 258.99L437.399 258.619L436.285 264.556C435.636 267.803 434.523 271.7 433.688 273.277C432.946 274.761 432.389 276.895 432.575 278.008C432.946 280.699 439.44 284.41 442.687 283.853C445.841 283.297 447.418 284.595 450.109 290.069C451.315 292.574 453.727 295.728 455.397 297.027C457.067 298.419 459.664 300.645 460.963 301.944C462.355 303.243 464.396 304.82 465.509 305.377C467.643 306.583 469.962 312.891 468.756 314.097C468.385 314.468 466.159 315.118 463.746 315.396C459.201 316.046 458.273 315.489 454.191 309.923C452.614 307.789 451.686 307.418 447.604 307.418C443.615 307.418 442.223 306.861 438.605 304.171C433.41 300.181 429.049 299.161 421.813 300.274C416.618 301.016 416.061 300.924 409.288 297.491C403.815 294.708 401.867 293.223 400.66 290.718C399.826 288.956 399.083 286.915 398.991 286.265C398.898 283.853 403.073 285.338 407.526 289.234C412.907 294.151 416.71 295.079 426.452 293.687L432.853 292.852L426.637 292.667C418.473 292.574 411.886 289.605 406.691 283.946C402.423 279.307 402.052 278.287 401.495 269.566C401.032 260.474 399.362 260.66 399.454 269.844C399.454 280.884 399.454 280.884 383.405 281.256C376.447 281.348 368.19 281.534 365.128 281.719L359.562 281.905L359.84 277.916C360.211 272.999 359.005 272.906 356.871 277.73C355.294 281.256 349.542 287.008 347.501 287.008C345.646 287.008 341.471 292.11 340.914 295.079C340.358 297.769 340.636 298.14 343.883 299.81C349.078 302.408 353.16 303.15 354.367 301.666C354.923 301.016 356.779 298.604 358.449 296.285C361.417 292.203 361.603 292.11 367.262 291.832C374.498 291.461 375.148 292.574 371.159 298.511C369.118 301.48 367.633 302.779 366.149 302.779C364.757 302.779 363.18 304.078 361.139 306.954C356.964 312.984 355.109 313.077 343.883 308.345C338.688 306.212 332.75 304.171 330.524 303.985C327.091 303.614 326.071 302.965 323.751 299.717C319.577 293.966 319.484 292.388 322.916 285.338C326.535 278.009 328.204 275.875 330.431 275.875C333.4 275.875 333.214 277.545 329.874 284.132C326.163 291.553 325.978 292.667 328.204 296.378C330.431 300.089 331.173 299.717 330.06 295.45C329.225 292.481 329.41 291.461 330.988 288.77C335.348 281.534 337.76 276.617 337.296 275.875C337.111 275.504 335.441 274.854 333.678 274.576C329.782 273.834 325.978 269.659 325.143 265.206C324.865 263.35 324.215 261.68 323.751 261.402C322.174 260.474 322.916 267.061 324.772 270.494C326.349 273.463 326.349 274.019 325.143 275.04C324.03 275.967 322.545 275.967 317.907 275.133C309 273.463 309 273.463 310.392 277.359C311.041 279.307 312.34 281.441 313.453 282.276C317.257 285.338 318.556 291.461 315.031 290.162C313.268 289.42 313.268 290.255 315.123 293.038C316.051 294.522 316.422 296.192 315.958 298.048C314.845 303.15 313.082 303.521 303.898 300.924C301.857 300.367 296.94 299.532 292.951 299.161C287.848 298.604 284.879 297.769 283.024 296.47C280.519 294.615 277.457 294.522 277.457 296.378C277.457 298.048 267.716 302.779 264.284 302.779C259.552 302.779 259.83 301.109 264.84 298.048C268.087 296.007 269.479 294.244 272.262 288.585C274.118 284.688 275.602 281.256 275.602 280.977C275.602 279.586 272.355 283.018 269.479 287.564C266.046 292.852 261.408 296.285 257.604 296.285C254.264 296.285 254.635 294.337 258.346 291.925C260.016 290.811 262.706 287.75 264.191 284.967C265.768 282.276 267.902 279.215 269.015 278.287C270.035 277.266 270.963 275.596 270.963 274.39C270.963 273.277 271.705 270.494 272.633 268.267C273.561 266.041 274.86 261.588 275.509 258.248C276.066 254.908 277.086 249.898 277.643 247.115C278.942 240.435 284.415 232.271 294.806 221.509C303.063 213.067 311.691 205.831 318.649 201.656C321.803 199.708 323.659 199.337 329.41 199.337C335.812 199.337 336.74 199.615 341.935 202.862C344.996 204.81 350.377 207.222 353.995 208.243C362.438 210.841 364.757 212.047 369.21 216.5C372.365 219.747 373.385 220.211 376.911 220.211C382.013 220.211 389.342 223.736 393.331 228.189C396.95 232.086 399.176 233.013 407.99 234.127C415.875 235.147 419.122 236.632 425.338 242.012C437.213 252.496 451.779 254.63 456.603 246.744C457.531 245.167 458.366 243.033 458.366 242.012C458.273 238.487 454.933 232.642 450.387 228.56C439.533 218.448 438.883 217.706 438.883 214.737C438.883 208.15 442.872 204.346 450.944 203.048C455.582 202.305 460.499 200.264 463.839 197.759C466.808 195.533 467.643 196.368 467.643 201.841ZM38.5658 294.429C39.4007 295.821 34.8548 301.573 32.4427 302.315C29.7523 303.15 26.1341 299.81 28.0824 298.233C33.8343 293.409 37.1742 292.203 38.5658 294.429ZM467.921 295.821C471.91 298.604 472.282 300.552 469.035 302.037C466.901 302.965 466.344 302.779 463.468 299.996C457.438 294.151 460.778 290.997 467.921 295.821ZM27.3402 303.336C29.1029 305.098 29.1029 305.006 27.5257 310.201C26.5052 313.819 25.9486 314.376 23.5365 314.654C19.1761 315.118 18.9906 313.077 22.4232 303.892C23.3509 301.48 25.2992 301.295 27.3402 303.336ZM477.384 307.047C479.24 313.355 478.776 314.84 475.158 314.84C472.745 314.84 472.282 314.376 471.447 311.314C469.684 305.006 470.612 301.851 474.23 301.851C475.436 301.851 476.271 303.336 477.384 307.047Z"/>
</mask>
<path d="M236.637 162.227C214.928 166.031 197.116 176.236 182.457 193.399L179.21 197.296L174.943 196.09C168.634 194.327 163.624 195.255 156.388 199.708C152.863 201.841 147.018 204.439 143.4 205.46C134.957 207.965 132.638 209.263 128.556 213.438C125.866 216.221 124.381 216.964 120.299 217.52C113.898 218.355 109.63 220.396 104.157 225.313C99.889 229.21 94.7865 231.343 89.9622 231.343C84.8597 231.343 77.9945 234.219 73.1702 238.394C62.223 247.764 52.6673 250.919 46.7298 247.208C44.1322 245.631 43.6683 244.703 43.6683 241.827C43.6683 237.095 46.1732 233.384 52.7601 227.911C60.0892 221.973 62.223 218.726 62.223 213.809C62.223 205.924 58.6976 202.491 48.2142 200.079C44.1322 199.244 39.8646 197.388 36.9886 195.44C34.0199 193.492 31.6077 192.564 30.5872 192.842C28.4535 193.585 27.4329 198.409 28.3607 204.254C29.1956 209.727 34.391 215.201 39.679 216.036C46.5443 217.242 47.1009 217.984 42.9261 220.489C33.1849 226.148 28.2679 237.095 31.1439 246.744C33.9271 256.392 40.3285 260.845 52.2962 261.495C55.9144 261.773 58.8831 262.051 58.8831 262.144C59.0687 262.423 61.7591 272.442 62.7796 276.339C63.429 278.843 58.4193 281.348 54.0589 280.699C50.2552 280.142 48.1214 281.998 46.3587 287.286C45.7093 289.42 44.6888 291.461 44.2249 291.832C43.7611 292.11 41.9056 291.461 40.1429 290.255C37.0814 288.214 36.6175 288.121 33.7415 289.327C29.5667 291.09 28.0824 292.296 23.3509 297.491C20.9388 300.089 18.9906 303.243 18.5267 305.377C18.1556 307.232 17.5062 309.923 17.1351 311.314C16.764 313.077 17.1351 314.283 18.5267 315.675C20.1038 317.252 21.7738 317.623 27.7113 317.808C41.0706 318.179 40.9779 318.179 44.596 314.005C47.5648 310.572 48.307 310.201 52.2035 310.201C55.6361 310.201 57.306 309.551 60.6458 307.047C66.3978 302.686 70.2943 301.573 76.2318 302.593C81.7982 303.614 85.3236 302.872 93.1165 298.883C97.9408 296.47 98.7757 295.635 101.281 290.44L103.971 284.688L111.95 283.668C117.145 282.925 120.949 282.833 122.897 283.389C124.474 283.946 129.855 284.317 134.865 284.41C142.75 284.503 145.997 285.245 144.606 286.636C144.327 286.822 139.689 287.379 134.308 287.75C120.392 288.863 118.908 290.718 124.938 299.717C127.257 303.243 129.02 304.82 130.783 305.191C132.36 305.562 134.03 306.861 134.957 308.531C136.813 311.685 141.544 314.84 144.327 314.84C146.276 314.84 157.965 310.572 163.16 307.882C164.83 307.047 167.15 306.49 168.17 306.768C170.49 307.418 174.943 305.284 175.685 303.243C176.613 300.924 178.468 301.666 181.437 305.655C191.178 318.922 209.918 331.26 227.36 335.992C239.884 339.425 249.718 340.167 261.036 338.59C282.931 335.435 300.372 326.529 315.123 310.85C319.298 306.49 322.452 303.8 323.195 304.078C323.751 304.449 325.328 305.284 326.627 306.026C327.926 306.768 329.596 307.139 330.524 306.861C331.359 306.675 335.997 308.067 340.822 310.201C345.646 312.242 350.841 314.19 352.326 314.468C355.944 315.211 360.118 312.984 363.366 308.809C364.664 307.047 366.613 305.562 367.54 305.562C369.21 305.562 376.447 296.842 376.725 294.337C377.374 289.791 374.777 287.935 367.54 287.935C360.49 287.935 354.367 286.822 354.738 285.709C354.923 285.059 358.449 284.595 364.108 284.503C369.025 284.41 374.498 283.946 376.168 283.389C378.209 282.833 381.92 282.925 386.93 283.668L394.537 284.781L396.857 289.327C400.104 295.728 401.495 297.12 407.34 299.717C415.226 303.336 417.267 303.707 422.462 302.686C428.771 301.48 431.461 302.222 437.213 306.583C441.295 309.551 442.78 310.201 446.398 310.201C450.387 310.201 451.036 310.572 454.098 314.097L457.345 318.087L467.828 317.808C477.477 317.53 478.497 317.344 480.538 315.303C482.858 313.077 482.858 312.984 481.281 309.737C480.446 307.882 479.703 305.469 479.703 304.356C479.703 303.15 477.662 300.089 474.786 297.12C467.272 288.956 461.891 287.008 457.716 290.811C455.118 293.316 453.17 292.11 452.243 287.471C451.315 282.554 448.532 280.235 444.357 280.792C439.904 281.348 434.616 278.472 435.636 276.06C437.77 271.05 438.79 267.711 438.883 265.484C438.883 262.237 439.811 261.773 447.326 261.495C456.417 261.124 462.54 257.598 465.973 250.733C471.261 240.342 467.643 228.467 456.788 221.046C451.964 217.706 451.964 217.799 459.943 215.665C468.014 213.531 472.838 204.439 470.241 196.553C468.849 192.286 466.53 191.358 463.654 194.049C460.499 196.832 454.562 199.522 449.83 200.264C442.13 201.378 437.492 205.552 436.378 212.232C435.636 217.242 437.399 220.303 445.099 227.261C455.861 236.91 457.623 240.899 453.356 245.909C451.408 248.135 450.48 248.507 446.119 248.414C440.089 248.321 434.708 245.909 427.75 240.064C420.607 234.219 417.081 232.55 408.917 231.436C400.661 230.323 397.785 229.024 393.888 224.849C390.177 220.86 384.982 218.355 379.23 217.706C375.148 217.242 373.663 216.407 369.674 212.882C366.427 209.913 363.18 207.965 359.469 206.851C349.635 203.697 346.666 202.491 341.1 199.058C335.997 195.904 334.977 195.626 328.483 195.626H321.432L313.825 188.111C292.672 166.959 264.191 157.403 236.637 162.227ZM34.391 197.574C36.0609 199.522 41.0706 201.47 48.5853 203.233C56.3783 204.996 59.4398 208.057 59.4398 214.18C59.4398 217.984 59.1615 218.448 51.9251 224.942C47.8431 228.653 43.6683 233.199 42.6478 235.147C37.7308 244.796 43.39 252.681 54.1517 251.383C60.182 250.733 66.9544 247.393 73.263 242.012C80.0355 236.26 82.5404 235.054 90.3333 234.219C98.9613 233.199 100.91 232.364 106.661 227.261C112.228 222.344 116.681 220.211 121.691 220.211C124.567 220.211 126.144 219.376 130.411 215.665C135.236 211.49 141.915 208.15 145.719 208.15C147.482 208.15 157.594 203.048 160.006 200.914C162.511 198.594 174.757 198.78 179.118 201.099C184.869 204.161 199.249 216.314 206.207 224.014C217.34 236.168 221.701 243.961 221.793 251.29C221.886 254.444 224.855 266.505 226.339 269.288C226.896 270.308 227.36 272.164 227.36 273.37C227.36 274.669 228.844 277.452 230.7 279.678C232.462 281.812 234.596 284.781 235.245 286.173C235.988 287.564 238.307 290.162 240.348 291.925C244.523 295.45 244.059 296.842 239.049 295.914C235.802 295.264 233.112 292.852 228.102 286.173C223.185 279.586 222.535 280.699 226.525 288.585C229.493 294.337 231.071 296.378 234.318 298.511C238.864 301.295 238.956 302.779 234.874 302.779C231.163 302.779 226.154 300.552 222.257 297.12L218.917 294.151L215.949 296.285C213.722 297.955 211.31 298.604 205.558 299.068C201.476 299.439 196.281 300.46 193.961 301.295C188.302 303.243 184.962 303.15 183.756 301.016C182.55 298.697 182.55 293.78 183.756 293.038C184.869 292.388 185.055 289.698 184.035 289.884C180.045 290.533 180.045 288.028 184.035 283.575C186.91 280.328 189.323 275.875 189.323 274.019C189.323 273.648 186.91 273.834 184.035 274.576C177.633 276.06 175.407 276.153 173.551 274.947C172.438 274.205 172.438 273.741 173.829 270.772C175.685 266.876 177.077 259.175 175.685 260.567C175.128 261.031 174.015 263.721 173.087 266.319C171.417 271.7 169.376 273.555 163.995 275.04L160.563 275.967L163.439 281.256C165.109 284.132 167.057 287.471 167.799 288.677C168.727 290.162 169.005 292.017 168.541 294.986C167.892 299.717 168.634 299.717 171.046 295.079L172.809 291.925L169.376 285.152C165.758 278.008 165.758 275.596 169.098 276.06C170.675 276.246 172.067 278.101 174.664 283.297C176.613 287.1 178.19 291.275 178.19 292.481C178.19 293.687 176.891 296.749 175.314 299.254C172.809 303.057 171.974 303.707 169.376 303.707C167.706 303.707 161.954 305.562 156.574 307.882C151.193 310.201 145.719 312.056 144.513 312.056C142.101 312.056 137.369 308.809 137.369 307.232C137.369 305.377 134.401 302.779 132.267 302.779C130.968 302.779 129.391 301.48 127.721 298.883C124.01 293.223 124.66 292.11 131.71 292.11H137.648L141.266 297.398C143.307 300.367 145.534 302.779 146.276 302.779C148.317 302.779 157.687 298.697 158.151 297.584C159.078 295.172 155.089 288.956 151.564 287.1C147.482 285.059 141.637 279.029 140.617 275.967C139.596 272.72 138.483 274.669 138.947 278.843L139.503 282.647L132.174 281.905C128.185 281.441 119.928 281.07 113.991 281.07C103.971 280.977 102.951 280.792 101.002 278.843C99.1468 276.988 98.8685 275.875 98.9613 269.288C99.054 259.918 97.5697 261.773 96.6419 272.164C96.1781 277.916 95.5286 279.957 93.4876 282.647C88.4779 289.234 81.4271 292.574 72.057 292.667C62.3158 292.759 62.7796 293.966 72.7064 294.151C84.0247 294.429 86.8079 293.687 91.5394 288.863C93.9515 286.358 95.9925 285.152 97.7552 285.152C99.1468 285.152 100.26 285.338 100.26 285.523C100.26 285.709 99.4251 287.75 98.4046 290.069C96.6419 293.966 95.807 294.708 89.3128 297.676C82.5404 300.924 81.891 301.016 76.5101 300.274C69.6449 299.254 66.2122 300.089 60.182 304.263C56.471 306.768 54.6156 307.418 51.0902 307.418C46.9154 307.418 46.3587 307.696 43.1117 311.592C39.679 315.86 38.3802 316.324 32.6283 315.211C30.2161 314.654 29.7523 314.19 29.7523 311.871C29.7523 309.737 30.8656 307.974 34.762 304.356C37.4525 301.666 40.9779 298.79 42.555 297.955C44.5033 296.934 46.4515 294.429 48.3997 290.533C51.8324 283.76 52.4818 283.111 56.0072 283.853C59.1615 284.503 65.9339 280.421 65.9339 277.916C65.8411 277.081 65.099 274.019 64.0785 271.236C63.0579 268.453 62.3158 264.371 62.223 262.33V258.433L56.1927 258.99C37.7308 260.382 28.5462 247.393 36.7103 231.343C38.473 227.911 40.4212 225.777 44.1322 223.458C48.5853 220.582 51.1829 217.149 49.8841 215.943C49.6058 215.665 46.637 214.83 43.2044 214.18C36.2464 212.696 33.8343 211.026 31.9788 206.573C29.1956 200.079 31.0511 193.399 34.391 197.574ZM467.643 201.841C467.643 206.016 467.272 206.851 464.118 210.006C461.334 212.789 459.664 213.716 456.046 214.18C449.645 215.015 449.088 215.294 449.088 217.335C449.088 218.448 451.129 220.675 454.469 223.179C461.242 228.282 464.86 234.962 464.86 242.198C464.86 253.516 456.603 259.825 443.058 258.99L437.399 258.619L436.285 264.556C435.636 267.803 434.523 271.7 433.688 273.277C432.946 274.761 432.389 276.895 432.575 278.008C432.946 280.699 439.44 284.41 442.687 283.853C445.841 283.297 447.418 284.595 450.109 290.069C451.315 292.574 453.727 295.728 455.397 297.027C457.067 298.419 459.664 300.645 460.963 301.944C462.355 303.243 464.396 304.82 465.509 305.377C467.643 306.583 469.962 312.891 468.756 314.097C468.385 314.468 466.159 315.118 463.746 315.396C459.201 316.046 458.273 315.489 454.191 309.923C452.614 307.789 451.686 307.418 447.604 307.418C443.615 307.418 442.223 306.861 438.605 304.171C433.41 300.181 429.049 299.161 421.813 300.274C416.618 301.016 416.061 300.924 409.288 297.491C403.815 294.708 401.867 293.223 400.66 290.718C399.826 288.956 399.083 286.915 398.991 286.265C398.898 283.853 403.073 285.338 407.526 289.234C412.907 294.151 416.71 295.079 426.452 293.687L432.853 292.852L426.637 292.667C418.473 292.574 411.886 289.605 406.691 283.946C402.423 279.307 402.052 278.287 401.495 269.566C401.032 260.474 399.362 260.66 399.454 269.844C399.454 280.884 399.454 280.884 383.405 281.256C376.447 281.348 368.19 281.534 365.128 281.719L359.562 281.905L359.84 277.916C360.211 272.999 359.005 272.906 356.871 277.73C355.294 281.256 349.542 287.008 347.501 287.008C345.646 287.008 341.471 292.11 340.914 295.079C340.358 297.769 340.636 298.14 343.883 299.81C349.078 302.408 353.16 303.15 354.367 301.666C354.923 301.016 356.779 298.604 358.449 296.285C361.417 292.203 361.603 292.11 367.262 291.832C374.498 291.461 375.148 292.574 371.159 298.511C369.118 301.48 367.633 302.779 366.149 302.779C364.757 302.779 363.18 304.078 361.139 306.954C356.964 312.984 355.109 313.077 343.883 308.345C338.688 306.212 332.75 304.171 330.524 303.985C327.091 303.614 326.071 302.965 323.751 299.717C319.577 293.966 319.484 292.388 322.916 285.338C326.535 278.009 328.204 275.875 330.431 275.875C333.4 275.875 333.214 277.545 329.874 284.132C326.163 291.553 325.978 292.667 328.204 296.378C330.431 300.089 331.173 299.717 330.06 295.45C329.225 292.481 329.41 291.461 330.988 288.77C335.348 281.534 337.76 276.617 337.296 275.875C337.111 275.504 335.441 274.854 333.678 274.576C329.782 273.834 325.978 269.659 325.143 265.206C324.865 263.35 324.215 261.68 323.751 261.402C322.174 260.474 322.916 267.061 324.772 270.494C326.349 273.463 326.349 274.019 325.143 275.04C324.03 275.967 322.545 275.967 317.907 275.133C309 273.463 309 273.463 310.392 277.359C311.041 279.307 312.34 281.441 313.453 282.276C317.257 285.338 318.556 291.461 315.031 290.162C313.268 289.42 313.268 290.255 315.123 293.038C316.051 294.522 316.422 296.192 315.958 298.048C314.845 303.15 313.082 303.521 303.898 300.924C301.857 300.367 296.94 299.532 292.951 299.161C287.848 298.604 284.879 297.769 283.024 296.47C280.519 294.615 277.457 294.522 277.457 296.378C277.457 298.048 267.716 302.779 264.284 302.779C259.552 302.779 259.83 301.109 264.84 298.048C268.087 296.007 269.479 294.244 272.262 288.585C274.118 284.688 275.602 281.256 275.602 280.977C275.602 279.586 272.355 283.018 269.479 287.564C266.046 292.852 261.408 296.285 257.604 296.285C254.264 296.285 254.635 294.337 258.346 291.925C260.016 290.811 262.706 287.75 264.191 284.967C265.768 282.276 267.902 279.215 269.015 278.287C270.035 277.266 270.963 275.596 270.963 274.39C270.963 273.277 271.705 270.494 272.633 268.267C273.561 266.041 274.86 261.588 275.509 258.248C276.066 254.908 277.086 249.898 277.643 247.115C278.942 240.435 284.415 232.271 294.806 221.509C303.063 213.067 311.691 205.831 318.649 201.656C321.803 199.708 323.659 199.337 329.41 199.337C335.812 199.337 336.74 199.615 341.935 202.862C344.996 204.81 350.377 207.222 353.995 208.243C362.438 210.841 364.757 212.047 369.21 216.5C372.365 219.747 373.385 220.211 376.911 220.211C382.013 220.211 389.342 223.736 393.331 228.189C396.95 232.086 399.176 233.013 407.99 234.127C415.875 235.147 419.122 236.632 425.338 242.012C437.213 252.496 451.779 254.63 456.603 246.744C457.531 245.167 458.366 243.033 458.366 242.012C458.273 238.487 454.933 232.642 450.387 228.56C439.533 218.448 438.883 217.706 438.883 214.737C438.883 208.15 442.872 204.346 450.944 203.048C455.582 202.305 460.499 200.264 463.839 197.759C466.808 195.533 467.643 196.368 467.643 201.841ZM38.5658 294.429C39.4007 295.821 34.8548 301.573 32.4427 302.315C29.7523 303.15 26.1341 299.81 28.0824 298.233C33.8343 293.409 37.1742 292.203 38.5658 294.429ZM467.921 295.821C471.91 298.604 472.282 300.552 469.035 302.037C466.901 302.965 466.344 302.779 463.468 299.996C457.438 294.151 460.778 290.997 467.921 295.821ZM27.3402 303.336C29.1029 305.098 29.1029 305.006 27.5257 310.201C26.5052 313.819 25.9486 314.376 23.5365 314.654C19.1761 315.118 18.9906 313.077 22.4232 303.892C23.3509 301.48 25.2992 301.295 27.3402 303.336ZM477.384 307.047C479.24 313.355 478.776 314.84 475.158 314.84C472.745 314.84 472.282 314.376 471.447 311.314C469.684 305.006 470.612 301.851 474.23 301.851C475.436 301.851 476.271 303.336 477.384 307.047Z" stroke="black" stroke-width="8" mask="url(#path-1-inside-1_12_81)"/>
<mask id="path-2-inside-2_12_81" fill="white">
<path d="M204.074 287.842C202.589 289.049 202.125 289.976 202.775 290.533C204.074 291.739 207.877 290.255 207.877 288.492C207.877 286.265 206.3 285.987 204.074 287.842Z"/>
</mask>
<path d="M204.074 287.842C202.589 289.049 202.125 289.976 202.775 290.533C204.074 291.739 207.877 290.255 207.877 288.492C207.877 286.265 206.3 285.987 204.074 287.842Z" stroke="black" stroke-width="20" mask="url(#path-2-inside-2_12_81)"/>
</svg>
