<svg width="500" height="500" viewBox="0 0 500 500" fill="none" xmlns="http://www.w3.org/2000/svg">
<mask id="path-1-inside-1_12_81" fill="white">
<path d="M248.328 75.9493C245.495 81.8986 227.08 119.389 199.223 175.86C191.196 192.197 179.392 216.183 173.065 229.215C163.055 249.707 144.074 288.236 120.748 335.358C117.066 342.912 114.044 349.523 114.044 350.089C114.044 350.656 115.555 354.339 117.443 358.211C120.843 365.104 124.998 373.887 130.097 385.03C131.514 388.146 134.63 394.756 136.991 399.667C148.323 423.747 149.928 427.242 149.928 427.997C149.928 428.375 150.589 428.941 151.345 429.319C152.1 429.602 152.761 429.413 152.761 428.941C152.761 428.469 156.444 420.065 160.883 410.338C170.704 388.713 187.891 351.223 191.479 343.479C192.896 340.363 195.256 335.263 196.673 332.147C203.944 315.999 216.221 289.18 221.792 277.092C223.398 273.598 225.758 268.405 227.08 265.572C228.403 262.739 230.386 258.206 231.613 255.656C232.746 253.012 234.824 248.574 236.146 245.741C237.374 242.908 239.829 237.714 241.434 234.125C243.04 230.631 245.684 225.06 247.195 221.566C248.8 218.166 250.5 215.711 250.972 215.994C251.539 216.277 251.916 216.938 251.916 217.411C251.916 217.788 254.655 223.832 257.866 230.726C261.171 237.714 265.609 246.968 267.687 251.407C271.181 258.678 274.014 264.627 284.968 287.763C286.951 291.918 290.729 299.945 293.467 305.706C299.228 317.793 306.31 332.714 311.409 343.479C313.393 347.634 317.17 355.661 319.908 361.421C325.952 374.17 332.185 387.296 336.906 397.306C348.711 422.237 352.016 428.941 352.771 428.941C353.243 428.941 357.115 420.537 361.459 410.243C369.675 390.601 370.525 388.524 373.641 381.536C374.774 379.08 375.624 376.909 375.624 376.625C375.624 376.436 376.946 373.32 378.552 369.732C380.063 366.238 381.762 362.46 382.235 361.421C385.823 353.395 386.956 350.562 386.956 350.184C386.956 349.995 382.612 340.929 377.418 330.07C372.13 319.304 365.142 304.856 361.931 298.151C358.626 291.352 351.638 276.904 346.35 266.044C341.062 255.089 334.451 241.491 331.713 235.825C328.974 230.065 322.553 216.938 317.548 206.551C295.45 161.128 290.162 150.268 285.912 141.392C283.457 136.198 275.808 120.427 269.009 106.451C262.21 92.3807 255.41 78.499 253.9 75.4771L251.255 70L248.328 75.9493Z"/>
</mask>
<path d="M248.328 75.9493C245.495 81.8986 227.08 119.389 199.223 175.86C191.196 192.197 179.392 216.183 173.065 229.215C163.055 249.707 144.074 288.236 120.748 335.358C117.066 342.912 114.044 349.523 114.044 350.089C114.044 350.656 115.555 354.339 117.443 358.211C120.843 365.104 124.998 373.887 130.097 385.03C131.514 388.146 134.63 394.756 136.991 399.667C148.323 423.747 149.928 427.242 149.928 427.997C149.928 428.375 150.589 428.941 151.345 429.319C152.1 429.602 152.761 429.413 152.761 428.941C152.761 428.469 156.444 420.065 160.883 410.338C170.704 388.713 187.891 351.223 191.479 343.479C192.896 340.363 195.256 335.263 196.673 332.147C203.944 315.999 216.221 289.18 221.792 277.092C223.398 273.598 225.758 268.405 227.08 265.572C228.403 262.739 230.386 258.206 231.613 255.656C232.746 253.012 234.824 248.574 236.146 245.741C237.374 242.908 239.829 237.714 241.434 234.125C243.04 230.631 245.684 225.06 247.195 221.566C248.8 218.166 250.5 215.711 250.972 215.994C251.539 216.277 251.916 216.938 251.916 217.411C251.916 217.788 254.655 223.832 257.866 230.726C261.171 237.714 265.609 246.968 267.687 251.407C271.181 258.678 274.014 264.627 284.968 287.763C286.951 291.918 290.729 299.945 293.467 305.706C299.228 317.793 306.31 332.714 311.409 343.479C313.393 347.634 317.17 355.661 319.908 361.421C325.952 374.17 332.185 387.296 336.906 397.306C348.711 422.237 352.016 428.941 352.771 428.941C353.243 428.941 357.115 420.537 361.459 410.243C369.675 390.601 370.525 388.524 373.641 381.536C374.774 379.08 375.624 376.909 375.624 376.625C375.624 376.436 376.946 373.32 378.552 369.732C380.063 366.238 381.762 362.46 382.235 361.421C385.823 353.395 386.956 350.562 386.956 350.184C386.956 349.995 382.612 340.929 377.418 330.07C372.13 319.304 365.142 304.856 361.931 298.151C358.626 291.352 351.638 276.904 346.35 266.044C341.062 255.089 334.451 241.491 331.713 235.825C328.974 230.065 322.553 216.938 317.548 206.551C295.45 161.128 290.162 150.268 285.912 141.392C283.457 136.198 275.808 120.427 269.009 106.451C262.21 92.3807 255.41 78.499 253.9 75.4771L251.255 70L248.328 75.9493Z" stroke="black" stroke-width="20" mask="url(#path-1-inside-1_12_81)"/>
<mask id="path-2-inside-2_12_81" fill="white">
<path d="M403.104 78.7822C402.16 81.0486 400.271 86.0536 398.949 89.9254C397.533 93.7971 394.605 102.296 392.245 108.812C376.38 153.574 370.525 170.194 369.486 173.499C368.731 175.576 367.031 180.487 365.709 184.359C363.065 191.536 355.793 212.122 351.355 224.776L348.994 231.764L363.914 261.133C390.45 313.544 395.172 322.609 396.116 322.893C396.683 323.081 397.438 322.043 397.722 320.626C398.099 319.21 401.31 310.144 404.804 300.512C413.398 277.376 426.902 240.452 435.684 216.466C439.65 205.795 443.333 195.596 444.088 193.802C444.749 192.008 447.866 183.509 450.982 174.915C454.098 166.322 460.425 148.946 465.147 136.198C484.789 82.8429 487.056 76.5158 487.056 75.6659C487.056 75.1938 470.908 74.816 445.977 74.816H404.804L403.104 78.7822Z"/>
</mask>
<path d="M403.104 78.7822C402.16 81.0486 400.271 86.0536 398.949 89.9254C397.533 93.7971 394.605 102.296 392.245 108.812C376.38 153.574 370.525 170.194 369.486 173.499C368.731 175.576 367.031 180.487 365.709 184.359C363.065 191.536 355.793 212.122 351.355 224.776L348.994 231.764L363.914 261.133C390.45 313.544 395.172 322.609 396.116 322.893C396.683 323.081 397.438 322.043 397.722 320.626C398.099 319.21 401.31 310.144 404.804 300.512C413.398 277.376 426.902 240.452 435.684 216.466C439.65 205.795 443.333 195.596 444.088 193.802C444.749 192.008 447.866 183.509 450.982 174.915C454.098 166.322 460.425 148.946 465.147 136.198C484.789 82.8429 487.056 76.5158 487.056 75.6659C487.056 75.1938 470.908 74.816 445.977 74.816H404.804L403.104 78.7822Z" stroke="black" stroke-width="20" mask="url(#path-2-inside-2_12_81)"/>
<mask id="path-3-inside-3_12_81" fill="white">
<path d="M13 80.8597C13 82.0873 21.0268 104.751 24.8042 114.478C25.5596 116.272 28.6759 124.771 31.7922 133.365C34.9085 141.958 40.0079 156.123 43.2187 165C46.4294 173.782 51.6233 188.042 54.7396 196.635C69.0934 236.014 71.832 243.568 72.9652 246.685C76.1759 255.089 99.7843 319.871 100.445 321.948C100.634 322.609 101.106 323.176 101.484 323.176C101.956 323.176 105.356 316.66 109.228 308.727C113.099 300.889 123.204 280.303 131.608 263.116L147.001 231.859L119.238 157.823C103.939 117.122 91.3797 83.3149 91.3797 82.6539C91.3797 79.8209 87.1302 79.5376 50.3956 79.5376C18.5716 79.5376 13 79.7265 13 80.8597Z"/>
</mask>
<path d="M13 80.8597C13 82.0873 21.0268 104.751 24.8042 114.478C25.5596 116.272 28.6759 124.771 31.7922 133.365C34.9085 141.958 40.0079 156.123 43.2187 165C46.4294 173.782 51.6233 188.042 54.7396 196.635C69.0934 236.014 71.832 243.568 72.9652 246.685C76.1759 255.089 99.7843 319.871 100.445 321.948C100.634 322.609 101.106 323.176 101.484 323.176C101.956 323.176 105.356 316.66 109.228 308.727C113.099 300.889 123.204 280.303 131.608 263.116L147.001 231.859L119.238 157.823C103.939 117.122 91.3797 83.3149 91.3797 82.6539C91.3797 79.8209 87.1302 79.5376 50.3956 79.5376C18.5716 79.5376 13 79.7265 13 80.8597Z" stroke="black" stroke-width="20" mask="url(#path-3-inside-3_12_81)"/>
</svg>
