<svg id="visual" viewBox="0 0 1920 1080" width="1920" height="1080"
    xmlns="http://www.w3.org/2000/svg" xmlns:xlink="http://www.w3.org/1999/xlink" version="1.1">
    <rect x="0" y="0" width="1920" height="1080" fill="#00ec00"></rect>

        <g class="rigth" transform="translate(1920, 0)">
            <path
                d="M0 972C-56 934.5 -112 896.9 -177.7 893.5C-243.5 890.1 -319 920.8 -372 898C-424.9 875.2 -455.2 798.9 -507.2 759.1C-559.3 719.3 -633 716 -681.7 681.7C-730.3 647.3 -754 581.9 -787.4 526.1C-820.8 470.3 -863.9 424.1 -890.6 368.9C-917.4 313.7 -927.8 249.7 -938.6 186.7C-949.5 123.7 -960.7 61.9 -972 0L0 0Z"
                fill="#242124"></path>
        </g>
        <g class="left" transform="translate(0, 1080)">
            <path
                d="M0 -972C58.6 -949.8 117.2 -927.6 183.2 -921C249.2 -914.3 322.5 -923.3 362.8 -875.8C403 -828.4 410.2 -724.6 461.7 -691C513.2 -657.3 609.1 -693.9 683.1 -683.1C757 -672.2 809 -613.9 808.2 -540C807.4 -466.2 753.8 -376.8 765 -316.9C776.2 -256.9 852.1 -226.4 897.4 -178.5C942.7 -130.6 957.4 -65.3 972 0L0 0Z"
                fill="#242124"></path>
        </g>

        <style>
            .rigth path{
                animation: move 20s linear infinite alternate-reverse;

            }

            .left path{
                animation: move2 20s linear infinite alternate-reverse;

            }


            @keyframes move {
                50%{
                    transform: translateY(42px);
                }

                100% {
                    
                    transform: translateY(-42px);

                }
            }

            @keyframes move2 {
                20%{
                    transform: translateY(42px);
                }

                450% {
                    
                    transform: translateY(-42px);

                }
            }
            


        </style>

</svg>

