<svg id="visual" viewBox="0 0 960 540" width="960" height="540" xmlns="http://www.w3.org/2000/svg" xmlns:xlink="http://www.w3.org/1999/xlink" version="1.1"><rect x="0" y="0" width="960" height="540" fill="#00ec00"></rect><defs><linearGradient id="grad1_0" x1="43.8%" y1="100%" x2="100%" y2="0%"><stop offset="14.444444444444446%" stop-color="#00ec00" stop-opacity="1"></stop><stop offset="85.55555555555554%" stop-color="#00ec00" stop-opacity="1"></stop></linearGradient></defs><defs><linearGradient id="grad2_0" x1="0%" y1="100%" x2="56.3%" y2="0%"><stop offset="14.444444444444446%" stop-color="#00ec00" stop-opacity="1"></stop><stop offset="85.55555555555554%" stop-color="#00ec00" stop-opacity="1"></stop></linearGradient></defs><g transform="translate(960, 540)"><path d="M-395 0C-395.4 -40.2 -395.9 -80.4 -365.1 -97.8C-334.4 -115.3 -272.5 -110 -284.9 -164.5C-297.3 -219 -384.1 -333.1 -381.8 -381.8C-379.6 -430.5 -288.4 -413.8 -223.5 -387.1C-158.6 -360.4 -120.1 -323.9 -87.2 -325.5C-54.4 -327.2 -27.2 -367.1 0 -407L0 0Z" fill="#242124"></path></g><g transform="translate(0, 0)"><path d="M540 0C523.5 42.5 507.1 85 496.5 133C485.9 181.1 481.2 234.6 432.1 249.5C383.1 264.4 289.6 240.6 241.1 241.1C192.7 241.6 189.2 266.5 177.5 307.4C165.8 348.4 145.9 405.6 114.9 428.9C84 452.2 42 441.6 0 431L0 0Z" fill="#242124"></path></g></svg>