<svg width="319" height="230" viewBox="0 0 319 230" fill="none" xmlns="http://www.w3.org/2000/svg">
<g id="Pass 1">
<path id="borders" d="M0.99999 105.124C68.8786 102.082 220.031 96 223.53 96C241.724 96 225.629 219.82 318 215.909" stroke="white" stroke-width="16"/>
<path id="tarmac" d="M0.99999 105.124C68.8786 102.082 220.031 96 223.53 96C241.724 96 225.629 219.82 318 215.909" stroke="#1E1E1E" stroke-width="13"/>
<circle id="maxp" r="5" fill="#3671C6"/>
<circle id="rusp" r="5" fill="#6CD3BF" ></circle>
<g id="D&#195;&#169;part">
<path d="M92.4478 27V1.8H101.988C104.508 1.8 106.668 2.256 108.468 3.168C110.268 4.08 111.648 5.436 112.608 7.236C113.568 9.012 114.048 11.22 114.048 13.86V14.58C114.048 17.268 113.556 19.536 112.572 21.384C111.588 23.232 110.16 24.636 108.288 25.596C106.44 26.532 104.22 27 101.628 27H92.4478ZM98.9278 21.672H101.268C102.372 21.672 103.368 21.444 104.256 20.988C105.168 20.532 105.912 19.788 106.488 18.756C107.064 17.7 107.352 16.308 107.352 14.58V13.86C107.352 12.228 107.088 10.92 106.56 9.936C106.056 8.952 105.372 8.244 104.508 7.812C103.644 7.356 102.684 7.128 101.628 7.128H98.9278V21.672Z" fill="#68FE9A"/>
<path d="M126.642 27.468C124.77 27.468 123.09 27.12 121.602 26.424C120.114 25.704 118.926 24.612 118.038 23.148C117.174 21.684 116.742 19.848 116.742 17.64V16.92C116.742 14.808 117.162 13.056 118.002 11.664C118.842 10.272 119.982 9.228 121.422 8.532C122.886 7.812 124.506 7.452 126.282 7.452C129.426 7.452 131.802 8.268 133.41 9.9C135.018 11.508 135.822 13.848 135.822 16.92V18.936H122.43C122.478 19.872 122.694 20.652 123.078 21.276C123.486 21.9 124.002 22.356 124.626 22.644C125.25 22.908 125.922 23.04 126.642 23.04C127.698 23.04 128.526 22.884 129.126 22.572C129.75 22.236 130.158 21.792 130.35 21.24H135.462C135.078 23.328 134.13 24.888 132.618 25.92C131.106 26.952 129.114 27.468 126.642 27.468ZM126.462 11.88C125.79 11.88 125.154 11.988 124.554 12.204C123.954 12.42 123.462 12.78 123.078 13.284C122.718 13.764 122.514 14.424 122.466 15.264H130.386C130.386 14.376 130.206 13.692 129.846 13.212C129.486 12.708 129.006 12.36 128.406 12.168C127.83 11.976 127.182 11.88 126.462 11.88ZM124.122 6.12L128.082 0.360001H133.842L128.442 6.12H124.122Z" fill="#68FE9A"/>
<path d="M138.697 34.2V7.92H143.809V10.512C144.313 9.744 145.057 9.048 146.041 8.424C147.049 7.776 148.285 7.452 149.749 7.452C152.437 7.452 154.477 8.244 155.869 9.828C157.261 11.412 157.957 13.776 157.957 16.92V17.64C157.957 19.8 157.621 21.612 156.949 23.076C156.277 24.516 155.329 25.608 154.105 26.352C152.881 27.096 151.429 27.468 149.749 27.468C148.669 27.468 147.637 27.228 146.653 26.748C145.693 26.244 144.889 25.524 144.241 24.588V34.2H138.697ZM148.417 22.896C149.521 22.896 150.433 22.452 151.153 21.564C151.897 20.652 152.269 19.344 152.269 17.64V16.92C152.269 15.264 151.909 14.04 151.189 13.248C150.493 12.432 149.569 12.024 148.417 12.024C147.649 12.024 146.941 12.192 146.293 12.528C145.669 12.84 145.165 13.32 144.781 13.968C144.421 14.616 144.241 15.42 144.241 16.38V18.18C144.241 19.164 144.421 20.016 144.781 20.736C145.165 21.432 145.669 21.972 146.293 22.356C146.941 22.716 147.649 22.896 148.417 22.896Z" fill="#68FE9A"/>
<path d="M166.785 27.468C165.417 27.468 164.241 27.204 163.257 26.676C162.297 26.148 161.565 25.428 161.061 24.516C160.557 23.58 160.305 22.548 160.305 21.42C160.305 19.524 160.881 18.072 162.033 17.064C163.209 16.056 164.973 15.552 167.325 15.552H172.725V14.76C172.725 13.608 172.449 12.816 171.897 12.384C171.369 11.952 170.625 11.736 169.665 11.736C168.753 11.736 168.081 11.88 167.649 12.168C167.217 12.432 166.977 12.876 166.929 13.5H161.385C161.457 12.348 161.817 11.316 162.465 10.404C163.137 9.492 164.085 8.772 165.309 8.244C166.557 7.716 168.069 7.452 169.845 7.452C171.525 7.452 173.001 7.704 174.273 8.208C175.545 8.712 176.529 9.528 177.225 10.656C177.945 11.76 178.305 13.248 178.305 15.12V22.14C178.305 23.148 178.329 24.036 178.377 24.804C178.425 25.548 178.497 26.28 178.593 27H173.301C173.277 26.592 173.241 26.232 173.193 25.92C173.169 25.608 173.157 25.224 173.157 24.768C172.581 25.536 171.777 26.184 170.745 26.712C169.737 27.216 168.417 27.468 166.785 27.468ZM168.585 23.544C169.377 23.544 170.085 23.4 170.709 23.112C171.333 22.824 171.825 22.392 172.185 21.816C172.545 21.216 172.725 20.544 172.725 19.8V19.008H168.405C167.589 19.008 166.977 19.224 166.569 19.656C166.185 20.088 165.993 20.58 165.993 21.132C165.993 21.852 166.185 22.44 166.569 22.896C166.977 23.328 167.649 23.544 168.585 23.544Z" fill="#68FE9A"/>
<path d="M181.728 27V7.92H186.84V10.512C187.032 10.08 187.356 9.624 187.812 9.144C188.268 8.664 188.82 8.268 189.468 7.956C190.116 7.62 190.836 7.452 191.628 7.452C192.036 7.452 192.36 7.476 192.6 7.524C192.84 7.572 193.056 7.62 193.248 7.668V12.456C193.128 12.384 192.852 12.3 192.42 12.204C191.988 12.108 191.496 12.06 190.944 12.06C190.08 12.06 189.372 12.228 188.82 12.564C188.292 12.9 187.896 13.356 187.632 13.932C187.392 14.508 187.272 15.156 187.272 15.876V27H181.728Z" fill="#68FE9A"/>
<path d="M204.558 27.216C202.974 27.216 201.678 27.012 200.67 26.604C199.662 26.172 198.918 25.476 198.438 24.516C197.958 23.532 197.718 22.2 197.718 20.52V12.456H195.378V7.92H197.718V3.6H203.262V7.92H207.618V12.456H203.262V19.62C203.262 20.7 203.43 21.468 203.766 21.924C204.126 22.38 204.81 22.608 205.818 22.608C206.538 22.608 207.258 22.572 207.978 22.5V27C207.522 27.072 207.042 27.12 206.538 27.144C206.034 27.192 205.374 27.216 204.558 27.216Z" fill="#68FE9A"/>
</g>
<g id="V1">
<path d="M239.654 81L234.434 67H238.454L241.614 76.4L244.654 67H248.254L243.254 81H239.654Z" fill="white"/>
<path d="M249.253 81V78.04H252.333V70.62L249.253 72.82V69.22L252.353 67H255.953V78.04H258.453V81H249.253Z" fill="white"/>
</g>
<g id="V2">
<path d="M238.697 230L233.477 216H237.497L240.657 225.4L243.697 216H247.297L242.297 230H238.697Z" fill="white"/>
<path d="M247.996 230V227.44L252.636 223.6C253.236 223.107 253.723 222.673 254.096 222.3C254.483 221.913 254.756 221.56 254.916 221.24C255.089 220.907 255.176 220.56 255.176 220.2C255.176 219.733 255.049 219.373 254.796 219.12C254.543 218.867 254.176 218.74 253.696 218.74C253.069 218.74 252.596 218.94 252.276 219.34C251.956 219.74 251.796 220.327 251.796 221.1H248.196C248.196 219.953 248.396 218.987 248.796 218.2C249.209 217.4 249.823 216.793 250.636 216.38C251.449 215.953 252.469 215.74 253.696 215.74C254.843 215.74 255.789 215.933 256.536 216.32C257.296 216.693 257.863 217.213 258.236 217.88C258.609 218.547 258.796 219.32 258.796 220.2C258.796 220.84 258.649 221.447 258.356 222.02C258.063 222.593 257.663 223.14 257.156 223.66C256.663 224.18 256.089 224.693 255.436 225.2L253.016 227.04H258.996V230H247.996Z" fill="white"/>
</g>
</g>
<style>
#rusp{
    position:absolute;
    offset-distance: 0%;
    aspect-ratio:1/1;
    width: 25px;
    z-index: 1;
    offset-path: path("M15.5 109C76.8333 107 196 106 202 99.5002C207.521 93.5194 230 99.5003 234.5 106C242.65 117.772 253.5 228.5 318 223");
    animation: followpathrus 10s  linear  infinite forwards;
}

#maxp{
    position:absolute;
    offset-distance: 0%;
        aspect-ratio:1/1;
        width: 25px;
        z-index: 1;
        offset-path: path("M37 101C173.5 99 191.5 101 196.5 93C207.167 92.3334 230 93 236 101C243.5 111 246.5 229 317.5 223");
        animation: followpathmax 10s linear infinite forwards;
}


 @keyframes followpathmax {
    0%,30% {
        offset-distance: 0%;
    }



    70%,100%{
        motion-offset: 100%;
        offset-distance: 100%;
    }
    70%{
        opacity:1
    }
    100%{
        opacity:0;
    }
 }

 @keyframes followpathrus {
    0%,30% {
        offset-distance: 0%;
    }


    65%,100%{
        motion-offset: 100%;
        offset-distance: 100%;
    }
    65%{
        opacity:1
    }
    100%{
        opacity:0;
    }
 }
</style>

</svg>


